<svg version="1.1" xmlns="http://www.w3.org/2000/svg" width="1024" height="1024" viewBox="0 0 1024 1024">
<path d="M512 777.95c-12.6 0-25-3.8-35.8-11-10.6-7-19.4-17.2-25.4-29.2-3-6-0.6-13.3 5.4-16.4 6-3 13.3-0.6 16.4 5.4 4.2 8.3 10.1 15.2 17.1 19.9 6.8 4.5 14.5 6.9 22.3 6.9s15.4-2.4 22.3-6.9c7.1-4.7 13-11.6 17.1-19.9 3-6 10.3-8.5 16.4-5.4 6 3 8.5 10.3 5.4 16.4-6.1 12.1-14.8 22.2-25.4 29.2-10.8 7.2-23.2 11-35.8 11z"></path>
<path d="M680.6 452.25c0.4 125.7 39.7 185.2 60.2 207.7 6.1 6.7 5.6 15.5 3.4 21.1-2.1 5.6-8 13-17.9 13h-428.6c-9.9 0-15.7-7.4-17.9-13s-2.7-14.4 3.4-21.1c20.5-22.7 60.1-82.6 60.1-209.4 0-44.2 17.8-86.5 49.5-117.7 31.6-31.2 74.5-48.7 119.2-48.7 5.9 0 11.7 0.3 17.4 0.9-4.6 7.4-8.3 15.3-11.2 23.6-2.1-0.1-4.2-0.1-6.3-0.1-38.3 0-75 15-102.1 41.7-27 26.6-42.2 62.8-42.2 100.4 0 122.7-35.7 188.3-60.8 219.1h410c-24.3-29.9-58.7-92.7-60.7-208.8 8.7-2 16.9-5 24.5-8.7v0z"></path>
<path d="M624.8 447.25c55.5 0 100.6-45 100.6-100.6s-45-100.6-100.6-100.6c-55.5 0-100.6 45-100.6 100.6s45 100.6 100.6 100.6v0zM609.5 343.65v-36.6c0-6.7 5.5-12.2 12.2-12.2s12.2 5.5 12.2 12.2v36.6c0 6.7-5.5 12.2-12.2 12.2s-12.2-5.5-12.2-12.2zM633.9 380.25c0 6.7-5.5 12.2-12.2 12.2s-12.2-5.5-12.2-12.2c0-6.7 5.5-12.2 12.2-12.2s12.2 5.5 12.2 12.2z"></path>
</svg>
