<svg version="1.1" xmlns="http://www.w3.org/2000/svg" width="1024" height="1024" viewBox="0 0 1024 1024">
<path d="M694.857 512c0 65.829-34.133 123.124-86.552 154.819l-6.095 99.962c-1.219 15.848-6.095 30.476-14.629 42.667s-20.724 19.505-35.352 19.505h-81.676c-14.629 0-26.819-7.314-35.352-19.505-8.533-10.971-13.41-26.819-14.629-42.667l-6.095-99.962c-51.2-32.914-85.333-90.21-85.333-154.819zM440.076 680.229l4.876 85.333c1.219 12.19 4.876 21.943 9.752 29.257s10.971 9.752 15.848 9.752v0h81.676c4.876 0 10.971-2.438 15.848-9.752s8.533-17.067 9.752-29.257l4.876-85.333c-20.724 9.752-45.105 14.629-70.705 14.629s-49.981-4.876-71.924-14.629zM353.524 512c0 87.771 70.705 158.476 158.476 158.476s158.476-70.705 158.476-158.476zM499.81 463.238c7.314 0 12.19 4.876 12.19 12.19v52.419l25.6 25.6c4.876 4.876 4.876 12.19 0 17.067s-12.19 4.876-17.067 0l-29.257-29.257c-2.438-1.219-3.657-4.876-3.657-7.314v-58.514c0-7.314 4.876-12.19 12.19-12.19z"></path>
<path d="M329.143 512c0-65.829 34.133-123.124 86.552-154.819l6.095-99.962c1.219-15.848 6.095-30.476 14.629-42.667s20.724-19.505 35.352-19.505h81.676c14.629 0 26.819 7.314 35.352 19.505 8.533 10.971 13.41 26.819 14.629 42.667l6.095 99.962c51.2 32.914 85.333 90.21 85.333 154.819zM583.924 343.771l-4.876-85.333c-1.219-12.19-4.876-21.943-9.752-29.257s-10.971-9.752-15.848-9.752v0h-81.676c-4.876 0-10.971 2.438-15.848 9.752s-8.533 17.067-9.752 29.257l-4.876 85.333c21.943-9.752 46.324-14.629 71.924-14.629 24.381 0 48.762 4.876 70.705 14.629zM670.476 512c0-87.771-70.705-158.476-158.476-158.476s-158.476 70.705-158.476 158.476z"></path>
</svg>
