<svg version="1.1" xmlns="http://www.w3.org/2000/svg" width="1024" height="1024" viewBox="0 0 1024 1024">
<path d="M511.691-0.31c283.104 0.619 512.31 229.827 512.31 512.93 0 281.862-231.686 512.31-513.549 511.69-281.863-1.238-511.071-232.304-510.451-514.787 0.619-280.625 231.685-510.452 511.69-509.832zM511.074 746.783c130.090 0.618 236.019-104.074 236.64-234.163 0.621-130.093-104.074-236.023-234.163-236.642s-235.403 103.452-236.022 234.162c-1.859 130.71 102.835 236.022 233.545 236.643zM488.152 90.753c-118.941 4.336-231.686 63.187-306.643 156.728-140.622 175.932-89.205 423.724 106.55 514.169 6.195 3.098 13.628 4.336 29.116 9.91-128.852-110.266-152.392-242.214-109.648-389.034 42.125-144.957 136.907-242.215 280.625-291.774zM498.683 186.153c124.515 1.858 222.394 55.753 302.304 143.1 81.773 87.965 115.843 194.515 109.648 314.694 56.374-135.664 14.25-307.882-96.019-403.28-87.344-76.196-232.922-102.214-315.933-54.514zM820.194 614.834c-48.32 117.699-131.949 188.32-239.12 232.925-107.789 44.602-216.819 41.504-325.227-1.859 118.939 87.347 247.173 113.363 384.696 51.414 110.886-50.176 185.226-167.258 179.651-282.48z"></path>
</svg>
