<svg version="1.1" xmlns="http://www.w3.org/2000/svg" width="32" height="32" viewBox="0 0 32 32">
<path d="M6.354 7.167c0.881-0.788 2.031-1.245 3.342-1.245h12.563c1.168 0.015 2.291 0.418 3.2 1.136l-7.742 7.429c-1.103 1.025-2.569 1.025-3.671-0.002l-7.692-7.318zM4.871 9.437l7.351 6.993c2.13 1.99 5.193 1.99 7.322 0l7.535-7.229c0.307 0.741 0.447 1.55 0.399 2.369-0.002 0.026-0.002 0.052-0.002 0.078v8.704c0 0.026 0.001 0.052 0.002 0.078 0.086 1.459-0.427 2.888-1.415 3.954-0.986 1.064-2.361 1.675-3.803 1.693h-12.563c-3.020 0-5.184-2.426-5.184-5.725v-8.704c0-0.795 0.126-1.539 0.358-2.211zM9.697 3.256c-4.766 0-7.851 3.909-7.851 8.392v8.704c0 4.483 3.084 8.392 7.851 8.392l12.585-0c2.18-0.024 4.253-0.946 5.737-2.547 1.474-1.591 2.24-3.715 2.123-5.882v-8.629c0.116-2.167-0.649-4.291-2.123-5.882-1.484-1.601-3.557-2.523-5.737-2.547v-0h-12.585z"></path>
</svg>
