<svg version="1.1" xmlns="http://www.w3.org/2000/svg" width="32" height="32" viewBox="0 0 32 32">
<path d="M10.816 20.503l-0.289-0.291-0.402 0.081c-0.286 0.057-0.583 0.088-0.887 0.088s-0.601-0.030-0.887-0.088l-0.402-0.081-0.289 0.291c-0.51 0.513-1.214 0.83-1.994 0.83-1.552 0-2.81-1.258-2.81-2.81 0-1.086 0.616-2.030 1.522-2.498l0.365-0.189 0.043-0.408c0.237-2.248 2.14-4 4.451-4s4.214 1.752 4.451 4l0.043 0.408 0.365 0.189c0.906 0.468 1.522 1.412 1.522 2.498 0 1.552-1.258 2.81-2.81 2.81-0.78 0-1.484-0.317-1.994-0.83zM9.714 21.122c0.19-0.017 0.377-0.044 0.561-0.081 0.647 0.652 1.544 1.055 2.534 1.055 1.972 0 3.571-1.599 3.571-3.571 0-1.382-0.785-2.581-1.934-3.175-0.277-2.632-2.504-4.682-5.209-4.682s-4.931 2.051-5.209 4.682c-1.149 0.594-1.934 1.793-1.934 3.175 0 1.972 1.599 3.571 3.571 3.571 0.991 0 1.887-0.403 2.534-1.055 0.245 0.049 0.496 0.081 0.751 0.095v7.436c0 0.21 0.171 0.381 0.381 0.381s0.381-0.171 0.381-0.381v-7.45z"></path>
<path d="M22.667 4.952v-1.524c0-0.21 0.171-0.381 0.381-0.381s0.381 0.171 0.381 0.381v1.524c0 0.21-0.171 0.381-0.381 0.381s-0.381-0.171-0.381-0.381zM23.048 12.191c-1.473 0-2.667-1.194-2.667-2.667s1.194-2.667 2.667-2.667c1.473 0 2.667 1.194 2.667 2.667s-1.194 2.667-2.667 2.667zM23.048 12.952c1.894 0 3.429-1.535 3.429-3.429s-1.535-3.429-3.429-3.429c-1.894 0-3.429 1.535-3.429 3.429s1.535 3.429 3.429 3.429zM23.048 16c0.21 0 0.381-0.171 0.381-0.381v-1.524c0-0.21-0.171-0.381-0.381-0.381s-0.381 0.171-0.381 0.381v1.524c0 0.21 0.171 0.381 0.381 0.381zM16.952 9.143c0 0.21 0.171 0.381 0.381 0.381h1.524c0.21 0 0.381-0.171 0.381-0.381s-0.171-0.381-0.381-0.381h-1.524c-0.21 0-0.381 0.171-0.381 0.381zM28 8.762h1.524c0.21 0 0.381 0.171 0.381 0.381s-0.171 0.381-0.381 0.381h-1.524c-0.21 0-0.381-0.171-0.381-0.381s0.171-0.381 0.381-0.381zM18.58 13.834c0.149 0.149 0.39 0.149 0.539 0l1.078-1.078c0.149-0.149 0.149-0.39 0-0.539s-0.39-0.149-0.539 0l-1.078 1.078c-0.149 0.149-0.149 0.39 0 0.539zM26.122 5.753l1.078-1.077c0.149-0.149 0.39-0.149 0.539 0s0.149 0.39 0 0.539l-1.078 1.077c-0.149 0.149-0.39 0.149-0.539 0s-0.149-0.39 0-0.539zM19.119 4.675c-0.149 0.149-0.149 0.39 0 0.539l1.078 1.077c0.149 0.149 0.39 0.149 0.539 0s0.149-0.39 0-0.539l-1.078-1.077c-0.149-0.149-0.39-0.149-0.539 0zM27.2 12.218l1.078 1.078c0.149 0.149 0.149 0.39 0 0.539s-0.39 0.149-0.539 0l-1.078-1.078c-0.149-0.149-0.149-0.39 0-0.539s0.39-0.149 0.539 0z"></path>
</svg>
