<!-- Generated by IcoMoon.io -->
<svg version="1.1" xmlns="http://www.w3.org/2000/svg" width="1024" height="1024" viewBox="0 0 1024 1024">
<title></title>
<g id="icomoon-ignore">
</g>
<path d="M635.179 92.16c-22.606-23.224-54.169-37.632-89.097-37.632-0.027 0-0.054 0-0.081 0h-53.5c-68.412 0.024-123.861 55.489-123.861 123.904 0 0.030 0 0.060 0 0.090v-0.005c-0.476 21.073-17.615 37.987-38.73 38.101h-0.011c-6.474-0.122-12.493-1.962-17.652-5.081l0.158 0.089-0.597-0.299c-17.736-10.334-39.039-16.435-61.767-16.435-45.6 0-85.465 24.557-107.090 61.168l-0.316 0.579-28.8 47.317c-10.439 17.806-16.603 39.213-16.603 62.060 0 45.634 24.594 85.524 61.25 107.138l0.58 0.316 0.085 0.043c11.739 6.858 19.501 19.397 19.501 33.749s-7.762 26.892-19.317 33.65l-0.184 0.1c-37.26 21.831-61.886 61.672-61.886 107.266 0 22.792 6.154 44.147 16.891 62.493l-0.317-0.586 0.043 0.085 26.752 46.165c21.679 38.268 62.125 63.672 108.504 63.672 22.336 0 43.296-5.892 61.41-16.206l-0.613 0.321 0.64-0.427c5.503-3.261 12.129-5.188 19.206-5.188 14.124 0 26.454 7.676 33.048 19.084l0.098 0.184 0.341 0.555c3.030 5.028 4.858 11.080 4.949 17.553v0.026c0.17 68.514 55.75 123.989 124.288 123.989 0 0 0 0 0 0h53.547c68.43-0.024 123.93-55.344 124.245-123.703v-0.414c0-0.051 0-0.111 0-0.172 0-21.212 17.123-38.425 38.301-38.57h0.014c6.868 0.274 13.226 2.22 18.753 5.437l-0.193-0.104c27.904 15.957 61.525 18.56 91.093 11.435 29.867-7.168 59.904-25.387 78.080-56.448l27.989-46.635 0.299-0.469c10.599-17.88 16.863-39.411 16.863-62.405 0-45.693-24.734-85.61-61.544-107.091l-0.588-0.317c-11.627-6.789-19.315-19.207-19.315-33.42 0-7.148 1.944-13.841 5.333-19.581l-0.098 0.18 0.128-0.256c3.365-5.806 8.061-10.502 13.688-13.771l0.179-0.096 0.341-0.213c37.076-21.968 61.545-61.77 61.545-107.288 0-21.082-5.249-40.937-14.511-58.332l0.326 0.671c-0.778-1.79-1.534-3.261-2.37-4.679l0.109 0.199-26.539-46.080c-21.876-37.47-61.892-62.246-107.695-62.246-22.749 0-44.071 6.112-62.412 16.783l0.593-0.319-0.427 0.256c-5.602 3.356-12.36 5.34-19.581 5.34-14.117 0-26.463-7.584-33.185-18.901l-0.098-0.178-0.085-0.171c-2.961-4.907-4.778-10.8-4.948-17.104l-0.001-0.048c0.015-0.727 0.024-1.583 0.024-2.442 0-33.709-13.42-64.284-35.208-86.674l0.027 0.028zM546.005 139.861c0.042 0 0.092 0 0.142 0 21.514 0 38.955 17.441 38.955 38.955 0 0.976-0.036 1.944-0.106 2.902l0.008-0.128c0.213 21.248 6.016 42.027 16.811 60.288 21.927 36.839 61.541 61.137 106.829 61.137 23.074 0 44.674-6.307 63.172-17.291l-0.572 0.314c5.526-3.19 12.154-5.073 19.222-5.073 14.367 0 26.917 7.777 33.67 19.352l0.1 0.185 24.661 42.837c0.555 1.195 1.152 2.347 1.792 3.456 10.539 18.517 4.309 42.027-13.995 52.864-18.816 10.795-34.432 26.453-45.227 45.227-10.547 17.845-16.778 39.324-16.778 62.259 0 45.676 24.716 85.58 61.503 107.067l0.587 0.317c11.639 6.786 19.337 19.211 19.337 33.433 0 7.073-1.904 13.702-5.227 19.401l0.099-0.183-28.245 47.104c-4.437 7.595-12.928 13.909-24.448 16.64-11.947 2.901-22.656 0.939-28.8-2.56-16.983-9.882-37.268-15.95-58.919-16.551l-0.174-0.004h-0.939c-0.178-0.001-0.388-0.001-0.598-0.001-68.43 0-123.904 55.474-123.904 123.904 0 0.121 0 0.241 0.001 0.361v-0.019c-0.193 21.367-17.559 38.613-38.953 38.613-0.001 0-0.001 0-0.002 0h-53.504c-21.514 0-38.955-17.441-38.955-38.955v0-0.427c-0.233-22.202-6.418-42.911-17.031-60.669l0.305 0.552c-21.74-37.241-61.511-61.865-107.032-61.865-22.773 0-44.106 6.163-62.424 16.911l0.581-0.315c-5.43 3.053-11.919 4.852-18.828 4.852-14.588 0-27.303-8.019-33.978-19.889l-0.101-0.196-0.384-0.725-26.88-46.421h-0.043c-3.244-5.529-5.161-12.178-5.161-19.273 0-14.183 7.655-26.578 19.059-33.279l0.181-0.098c37.394-21.894 62.111-61.869 62.111-107.618 0-45.731-24.698-85.693-61.483-107.276l-0.585-0.317c-11.626-6.884-19.299-19.362-19.299-33.632 0-7.020 1.857-13.607 5.107-19.295l-0.101 0.191 28.16-46.336 0.555-0.853c6.853-11.757 19.402-19.533 33.768-19.533 7.034 0 13.633 1.865 19.33 5.126l-0.19-0.1c17.181 10.297 37.859 16.48 59.963 16.725l0.069 0.001h0.427c0.004 0 0.008 0 0.012 0 68.027 0 123.29-54.653 124.275-122.446l0.001-0.093v-0.811c0-0.063-0.001-0.138-0.001-0.213 0-21.278 17.25-38.528 38.528-38.528 0.030 0 0.060 0 0.091 0h53.456zM449.664 507.264c0-38.551 31.252-69.803 69.803-69.803s69.803 31.252 69.803 69.803v0c0 38.551-31.252 69.803-69.803 69.803s-69.803-31.252-69.803-69.803v0zM519.467 352.128c-85.679 0-155.136 69.457-155.136 155.136s69.457 155.136 155.136 155.136v0c85.679 0 155.136-69.457 155.136-155.136s-69.457-155.136-155.136-155.136v0z"></path>
</svg>
