<svg version="1.1" xmlns="http://www.w3.org/2000/svg" width="32" height="32" viewBox="0 0 32 32">
<path d="M5.586 14.959c0.525-6.499 5.919-11.626 12.519-11.626 3.571 0 6.793 1.504 9.076 3.91 2.159 2.275 3.485 5.362 3.485 8.757 0 6.984-5.612 12.667-12.561 12.667h-5.438c-0.736 0-1.333-0.597-1.333-1.333s0.597-1.333 1.333-1.333h5.438c5.453 0 9.895-4.465 9.895-10 0-2.688-1.048-5.124-2.753-6.921-1.804-1.901-4.337-3.079-7.142-3.079-4.957 0-9.079 3.69-9.787 8.52l1.387-1.444c0.51-0.531 1.354-0.548 1.885-0.037s0.548 1.354 0.037 1.885l-3.844 4c-0.245 0.255-0.582 0.402-0.935 0.409s-0.696-0.127-0.951-0.372l-4.156-4c-0.531-0.511-0.547-1.355-0.036-1.885s1.355-0.547 1.885-0.036l1.994 1.92z"></path>
</svg>
