<svg version="1.1" xmlns="http://www.w3.org/2000/svg" width="32" height="32" viewBox="0 0 32 32">
<path d="M17.402 8.233c-0.224 0-0.423-0.047-0.597-0.14-0.171-0.093-0.305-0.223-0.402-0.39s-0.146-0.36-0.146-0.579c0-0.219 0.049-0.412 0.146-0.579 0.102-0.167 0.238-0.295 0.408-0.384 0.175-0.093 0.374-0.14 0.597-0.14s0.421 0.047 0.591 0.14c0.175 0.089 0.311 0.217 0.408 0.384 0.102 0.167 0.152 0.36 0.152 0.579s-0.051 0.412-0.152 0.579c-0.102 0.167-0.24 0.297-0.414 0.39-0.171 0.093-0.368 0.14-0.591 0.14zM17.402 7.831c0.171 0 0.319-0.059 0.445-0.177 0.13-0.118 0.195-0.293 0.195-0.524 0-0.236-0.065-0.412-0.195-0.53-0.126-0.122-0.274-0.183-0.445-0.183s-0.319 0.061-0.445 0.183c-0.122 0.118-0.183 0.295-0.183 0.53 0 0.232 0.061 0.406 0.183 0.524 0.126 0.118 0.274 0.177 0.445 0.177zM21.080 10.434c-0.423 0-0.788-0.091-1.097-0.274-0.305-0.187-0.54-0.445-0.707-0.774-0.167-0.333-0.25-0.717-0.25-1.152 0-0.439 0.083-0.823 0.25-1.152 0.167-0.333 0.402-0.593 0.707-0.78 0.309-0.187 0.675-0.28 1.097-0.28 0.5 0 0.908 0.122 1.225 0.366s0.518 0.585 0.603 1.024h-0.719c-0.057-0.248-0.179-0.445-0.366-0.591s-0.437-0.219-0.75-0.219c-0.427 0-0.764 0.146-1.012 0.439-0.248 0.288-0.372 0.687-0.372 1.195 0 0.504 0.124 0.9 0.372 1.189s0.585 0.433 1.012 0.433c0.313 0 0.563-0.069 0.75-0.207s0.309-0.327 0.366-0.567h0.719c-0.085 0.423-0.286 0.754-0.603 0.994s-0.725 0.36-1.225 0.36zM11.377 19.503l-0.304 0.229c-0.742 0.557-1.22 1.442-1.22 2.439 0 1.683 1.364 3.048 3.048 3.048s3.048-1.364 3.048-3.048c0-0.997-0.478-1.881-1.22-2.439l-0.304-0.229v-10.285c0-0.842-0.682-1.524-1.524-1.524s-1.524 0.682-1.524 1.524v10.285zM10.615 9.218c0-1.262 1.023-2.286 2.286-2.286s2.286 1.023 2.286 2.286v9.904c0.925 0.695 1.524 1.802 1.524 3.048 0 2.104-1.706 3.81-3.81 3.81s-3.81-1.706-3.81-3.81c0-1.246 0.598-2.353 1.524-3.048v-9.905zM12.139 20.014v-6.987h1.524v6.987c0.888 0.314 1.524 1.16 1.524 2.156 0 1.262-1.023 2.286-2.286 2.286s-2.286-1.023-2.286-2.286c0-0.995 0.636-1.842 1.524-2.156z"></path>
</svg>
