<svg version="1.1" xmlns="http://www.w3.org/2000/svg" width="1024" height="1024" viewBox="0 0 1024 1024">
<path d="M234.133 745.266v0 0c0-12.8 0-21.333 4.267-34.133 4.267-8.533 8.533-17.067 25.6-25.6 12.8-8.533 34.133-17.067 51.2-21.333v0c34.133-8.533 64-17.067 98.133-17.067v0c64-8.533 128-8.533 192 0v0c34.133 4.267 64 8.533 98.133 17.067v0c21.333 4.267 38.4 12.8 55.467 21.333 12.8 8.533 21.333 17.067 21.333 25.6 8.533 21.333 8.533 46.933 0 68.267-4.267 8.533-8.533 17.067-21.333 25.6s-34.133 17.067-51.2 21.333c0 0 0 0-4.267 0-29.867 8.533-64 17.067-93.867 17.067v0c-51.2 4.267-102.4 8.533-153.6 4.267h-4.267c-8.533 0-8.533 0-12.8 0s-4.267 0-4.267 0c-4.267 0-8.533 0-12.8-4.267-29.867-4.267-64-8.533-93.867-17.067 0 0 0 0-4.267 0-21.333-4.267-38.4-12.8-51.2-21.333s-21.333-17.067-25.6-25.6c-12.8-12.8-12.8-21.333-12.8-34.133zM865.6 809.266c12.8-38.4 12.8-85.333 0-123.733-21.333-59.733-85.333-89.6-136.533-102.4-38.4-8.533-72.533-17.067-110.933-21.333-68.267-8.533-140.8-8.533-209.067 0-38.4 4.267-76.8 8.533-110.933 21.333-55.467 12.8-115.2 42.667-140.8 98.133-4.267 21.333-8.533 42.667-8.533 64s4.267 42.667 8.533 64c21.333 59.733 85.333 89.6 136.533 102.4 38.4 12.8 72.533 17.067 110.933 21.333 12.8 4.267 25.6 4.267 38.4 4.267 55.467 4.267 115.2 4.267 170.667-4.267 38.4-4.267 76.8-8.533 110.933-21.333 55.467-17.067 115.2-42.667 140.8-102.4z"></path>
<path d="M524.267 83.932c-119.467 0-213.333 93.867-213.333 213.333s93.867 213.333 213.333 213.333 213.333-93.867 213.333-213.333-93.867-213.333-213.333-213.333zM528.533 438.066c-89.6 0-140.8-46.933-140.8-136.533s46.933-136.533 136.533-136.533 140.8 46.933 140.8 136.533-46.933 136.533-136.533 136.533z"></path>
</svg>
