<svg width="179" height="64" viewBox="0 0 179 64" fill="none" xmlns="http://www.w3.org/2000/svg">
<g clip-path="url(#clip0)">
<path d="M169.09 82.1293C169.687 69.7531 167.057 57.4342 161.458 46.3809C155.858 35.3277 147.482 25.9195 137.151 19.0792C126.819 12.2389 114.887 8.20139 102.525 7.36261C90.1631 6.52382 77.7951 8.91259 66.6344 14.2946C55.4738 19.6766 45.9036 27.8671 38.8625 38.0628C31.8215 48.2584 27.5514 60.1091 26.4709 72.4525C25.3905 84.7959 27.5369 97.2082 32.6997 108.472C37.8624 119.736 45.8641 129.464 55.9201 136.703L76.6411 107.92C71.5741 104.272 67.5422 99.37 64.9409 93.6944C62.3395 88.0188 61.258 81.7646 61.8024 75.545C62.3468 69.3254 64.4984 63.3542 68.0462 58.2168C71.594 53.0795 76.4162 48.9525 82.0398 46.2406C87.6634 43.5287 93.8953 42.3251 100.124 42.7477C106.353 43.1704 112.366 45.2048 117.571 48.6515C122.777 52.0981 126.998 56.8387 129.819 62.4082C132.64 67.9777 133.966 74.1848 133.665 80.4209L169.09 82.1293Z" fill="#EDE7EE"/>
<g style="mix-blend-mode:multiply">
<path d="M36.996 12.0681C25.5571 18.6723 16.0313 28.1363 9.35262 39.5318C2.67397 50.9273 -0.928116 63.8631 -1.10035 77.0704C-1.27258 90.2777 1.99095 103.303 8.37017 114.869C14.7494 126.435 24.0252 136.144 35.288 143.044C46.5507 149.944 59.4135 153.799 72.6149 154.229C85.8163 154.66 98.903 151.652 110.591 145.5C122.28 139.348 132.168 130.264 139.288 119.138C146.407 108.013 150.512 95.2276 151.201 82.0371L113.445 80.066C113.098 86.7124 111.029 93.1544 107.442 98.7603C103.855 104.366 98.8721 108.944 92.9826 112.043C87.0931 115.143 80.4991 116.659 73.8472 116.442C67.1953 116.225 60.7141 114.283 55.039 110.806C49.364 107.329 44.6901 102.437 41.4758 96.6091C38.2615 90.7814 36.617 84.2182 36.7038 77.5634C36.7906 70.9085 38.6056 64.3905 41.9708 58.6486C45.336 52.9066 50.1359 48.138 55.8997 44.8103L36.996 12.0681Z" fill="#969DE2"/>
</g>
<g style="mix-blend-mode:multiply">
<path d="M53.46 130.442C64.3694 139.823 77.53 146.208 91.651 148.97C105.772 151.733 120.368 150.777 134.009 146.197C147.649 141.618 159.865 133.571 169.458 122.847C179.051 112.124 185.692 99.0904 188.73 85.0262C191.768 70.962 191.098 56.3496 186.786 42.6224C182.474 28.8951 174.668 16.5243 164.134 6.72322C153.6 -3.07786 140.699 -9.97263 126.697 -13.2849C112.695 -16.5971 98.0719 -16.2131 84.2629 -12.1704L95.8344 27.3559C102.792 25.3189 110.16 25.1254 117.216 26.7944C124.271 28.4634 130.772 31.9375 136.08 36.876C141.387 41.8145 145.321 48.0479 147.493 54.9647C149.666 61.8816 150.004 69.2444 148.473 76.331C146.942 83.4177 143.596 89.9848 138.762 95.3883C133.928 100.792 127.773 104.846 120.9 107.154C114.027 109.461 106.672 109.943 99.5571 108.551C92.4419 107.159 85.8106 103.942 80.3136 99.2149L53.46 130.442Z" fill="#5ECBA1"/>
</g>
</g>
<defs>
<clipPath id="clip0">
<rect width="179" height="64" fill="white"/>
</clipPath>
</defs>
</svg>
