<svg width="801" height="277" viewBox="0 0 801 277" fill="none" xmlns="http://www.w3.org/2000/svg">
<line x1="5.78247" y1="253.5" x2="5.78247" y2="256.5" stroke="#A4A4A4" stroke-linecap="round"/>
<line x1="35.7825" y1="253.5" x2="35.7825" y2="256.5" stroke="#A4A4A4" stroke-linecap="round"/>
<line x1="65.7825" y1="253.5" x2="65.7825" y2="256.5" stroke="#A4A4A4" stroke-linecap="round"/>
<line x1="95.7825" y1="253.5" x2="95.7825" y2="256.5" stroke="#A4A4A4" stroke-linecap="round"/>
<line x1="125.782" y1="253.5" x2="125.782" y2="256.5" stroke="#A4A4A4" stroke-linecap="round"/>
<line x1="155.782" y1="253.5" x2="155.782" y2="256.5" stroke="#A4A4A4" stroke-linecap="round"/>
<line x1="185.782" y1="253.5" x2="185.782" y2="256.5" stroke="#A4A4A4" stroke-linecap="round"/>
<line x1="215.782" y1="253.5" x2="215.782" y2="256.5" stroke="#A4A4A4" stroke-linecap="round"/>
<line x1="245.782" y1="253.5" x2="245.782" y2="256.5" stroke="#A4A4A4" stroke-linecap="round"/>
<line x1="275.782" y1="253.5" x2="275.782" y2="256.5" stroke="#A4A4A4" stroke-linecap="round"/>
<line x1="305.782" y1="253.5" x2="305.782" y2="256.5" stroke="#A4A4A4" stroke-linecap="round"/>
<line x1="335.782" y1="253.5" x2="335.782" y2="256.5" stroke="#A4A4A4" stroke-linecap="round"/>
<line x1="365.782" y1="253.5" x2="365.782" y2="256.5" stroke="#A4A4A4" stroke-linecap="round"/>
<line x1="395.782" y1="253.5" x2="395.782" y2="256.5" stroke="#A4A4A4" stroke-linecap="round"/>
<line x1="425.782" y1="253.5" x2="425.782" y2="256.5" stroke="#A4A4A4" stroke-linecap="round"/>
<line x1="455.782" y1="253.5" x2="455.782" y2="256.5" stroke="#A4A4A4" stroke-linecap="round"/>
<line x1="485.782" y1="253.5" x2="485.782" y2="256.5" stroke="#A4A4A4" stroke-linecap="round"/>
<line x1="515.782" y1="253.5" x2="515.782" y2="256.5" stroke="#A4A4A4" stroke-linecap="round"/>
<line x1="545.782" y1="253.5" x2="545.782" y2="256.5" stroke="#A4A4A4" stroke-linecap="round"/>
<line x1="575.782" y1="253.5" x2="575.782" y2="256.5" stroke="#A4A4A4" stroke-linecap="round"/>
<line x1="605.782" y1="253.5" x2="605.782" y2="256.5" stroke="#A4A4A4" stroke-linecap="round"/>
<line x1="635.782" y1="253.5" x2="635.782" y2="256.5" stroke="#A4A4A4" stroke-linecap="round"/>
<line x1="665.782" y1="253.5" x2="665.782" y2="256.5" stroke="#A4A4A4" stroke-linecap="round"/>
<line x1="695.782" y1="253.5" x2="695.782" y2="256.5" stroke="#A4A4A4" stroke-linecap="round"/>
<line x1="725.782" y1="253.5" x2="725.782" y2="256.5" stroke="#A4A4A4" stroke-linecap="round"/>
<rect opacity="0.2" x="5" y="106" width="746" height="24" fill="#F2F2F2"/>
<rect opacity="0.2" x="5" y="59" width="746" height="24" fill="#F2F2F2"/>
<rect opacity="0.2" x="5" y="11" width="746" height="24" fill="#F2F2F2"/>
<rect opacity="0.2" x="5" y="155" width="746" height="24" fill="#F2F2F2"/>
<rect opacity="0.2" x="5" y="202" width="746" height="24" fill="#F2F2F2"/>
<path d="M5 251L751 251" stroke="#E0E1E4"/>
<path d="M5 227L751 227" stroke="#F2F2F2"/>
<path d="M5 203L751 203" stroke="#F2F2F2"/>
<path d="M5 179L751 179" stroke="#F2F2F2"/>
<path d="M5 155L751 155" stroke="#F2F2F2"/>
<path d="M5 131L751 131" stroke="#F2F2F2"/>
<path d="M5 107L751 107" stroke="#F2F2F2"/>
<path d="M5 83L751 83.0001" stroke="#F2F2F2"/>
<path d="M5 35L751 35.0001" stroke="#F2F2F2"/>
<path d="M5 59L751 59.0001" stroke="#F2F2F2"/>
<path d="M5 11L751 11.0001" stroke="#F2F2F2"/>
<path d="M768.859 14V6.46L767.39 6.798V5.784L769.405 4.9H770.289V14H768.859ZM775.778 14.156C774.955 14.156 774.244 13.961 773.646 13.571C773.057 13.1723 772.602 12.622 772.281 11.92C771.969 11.2093 771.813 10.386 771.813 9.45C771.813 8.514 771.969 7.695 772.281 6.993C772.602 6.28233 773.057 5.732 773.646 5.342C774.244 4.94333 774.955 4.744 775.778 4.744C776.601 4.744 777.308 4.94333 777.897 5.342C778.486 5.732 778.937 6.28233 779.249 6.993C779.57 7.695 779.73 8.514 779.73 9.45C779.73 10.386 779.57 11.2093 779.249 11.92C778.937 12.622 778.486 13.1723 777.897 13.571C777.308 13.961 776.601 14.156 775.778 14.156ZM775.778 12.921C776.272 12.921 776.71 12.7823 777.091 12.505C777.481 12.2277 777.784 11.829 778.001 11.309C778.218 10.789 778.326 10.1693 778.326 9.45C778.326 8.73067 778.218 8.111 778.001 7.591C777.784 7.071 777.481 6.67233 777.091 6.395C776.71 6.11767 776.272 5.979 775.778 5.979C775.275 5.979 774.833 6.11767 774.452 6.395C774.071 6.67233 773.772 7.071 773.555 7.591C773.338 8.111 773.23 8.73067 773.23 9.45C773.23 10.1693 773.338 10.789 773.555 11.309C773.772 11.829 774.071 12.2277 774.452 12.505C774.833 12.7823 775.275 12.921 775.778 12.921ZM784.906 14.156C784.082 14.156 783.372 13.961 782.774 13.571C782.184 13.1723 781.729 12.622 781.409 11.92C781.097 11.2093 780.941 10.386 780.941 9.45C780.941 8.514 781.097 7.695 781.409 6.993C781.729 6.28233 782.184 5.732 782.774 5.342C783.372 4.94333 784.082 4.744 784.906 4.744C785.729 4.744 786.435 4.94333 787.025 5.342C787.614 5.732 788.065 6.28233 788.377 6.993C788.697 7.695 788.858 8.514 788.858 9.45C788.858 10.386 788.697 11.2093 788.377 11.92C788.065 12.622 787.614 13.1723 787.025 13.571C786.435 13.961 785.729 14.156 784.906 14.156ZM784.906 12.921C785.4 12.921 785.837 12.7823 786.219 12.505C786.609 12.2277 786.912 11.829 787.129 11.309C787.345 10.789 787.454 10.1693 787.454 9.45C787.454 8.73067 787.345 8.111 787.129 7.591C786.912 7.071 786.609 6.67233 786.219 6.395C785.837 6.11767 785.4 5.979 784.906 5.979C784.403 5.979 783.961 6.11767 783.58 6.395C783.198 6.67233 782.899 7.071 782.683 7.591C782.466 8.111 782.358 8.73067 782.358 9.45C782.358 10.1693 782.466 10.789 782.683 11.309C782.899 11.829 783.198 12.2277 783.58 12.505C783.961 12.7823 784.403 12.921 784.906 12.921ZM792.149 9.242C791.741 9.242 791.373 9.151 791.044 8.969C790.723 8.787 790.467 8.53133 790.277 8.202C790.086 7.864 789.991 7.461 789.991 6.993C789.991 6.53367 790.086 6.13933 790.277 5.81C790.467 5.472 790.727 5.212 791.057 5.03C791.386 4.848 791.754 4.757 792.162 4.757C792.56 4.757 792.92 4.848 793.241 5.03C793.57 5.212 793.83 5.472 794.021 5.81C794.211 6.13933 794.307 6.53367 794.307 6.993C794.307 7.461 794.211 7.864 794.021 8.202C793.83 8.53133 793.57 8.787 793.241 8.969C792.92 9.151 792.556 9.242 792.149 9.242ZM791.499 14L796.712 4.9H798.064L792.864 14H791.499ZM792.149 8.254C792.426 8.254 792.664 8.15 792.864 7.942C793.072 7.72533 793.176 7.409 793.176 6.993C793.176 6.577 793.076 6.265 792.877 6.057C792.677 5.84033 792.435 5.732 792.149 5.732C791.871 5.732 791.629 5.84033 791.421 6.057C791.213 6.265 791.109 6.577 791.109 6.993C791.109 7.409 791.208 7.72533 791.408 7.942C791.616 8.15 791.863 8.254 792.149 8.254ZM797.492 14.156C797.084 14.156 796.716 14.065 796.387 13.883C796.066 13.701 795.81 13.4453 795.62 13.116C795.429 12.778 795.334 12.375 795.334 11.907C795.334 11.4477 795.429 11.049 795.62 10.711C795.81 10.373 796.07 10.113 796.4 9.931C796.729 9.749 797.097 9.658 797.505 9.658C797.903 9.658 798.263 9.749 798.584 9.931C798.913 10.113 799.173 10.373 799.364 10.711C799.554 11.049 799.65 11.4477 799.65 11.907C799.65 12.375 799.554 12.778 799.364 13.116C799.173 13.4453 798.913 13.701 798.584 13.883C798.263 14.065 797.899 14.156 797.492 14.156ZM797.492 13.155C797.769 13.155 798.007 13.051 798.207 12.843C798.415 12.635 798.519 12.323 798.519 11.907C798.519 11.491 798.419 11.179 798.22 10.971C798.02 10.7543 797.778 10.646 797.492 10.646C797.214 10.646 796.972 10.7543 796.764 10.971C796.556 11.179 796.452 11.491 796.452 11.907C796.452 12.323 796.551 12.635 796.751 12.843C796.959 13.051 797.206 13.155 797.492 13.155Z" fill="#949494"/>
<path d="M771.03 62.156C770.423 62.156 769.873 62.0477 769.379 61.831C768.894 61.6057 768.504 61.2937 768.209 60.895C767.923 60.4963 767.78 60.0283 767.78 59.491C767.78 58.945 767.932 58.4553 768.235 58.022C768.547 57.5887 768.959 57.294 769.47 57.138C769.011 56.956 768.655 56.6917 768.404 56.345C768.153 55.9897 768.027 55.5997 768.027 55.175C768.027 54.733 768.144 54.33 768.378 53.966C768.612 53.5933 768.95 53.2987 769.392 53.082C769.843 52.8567 770.389 52.744 771.03 52.744C771.671 52.744 772.213 52.8567 772.655 53.082C773.106 53.2987 773.448 53.5933 773.682 53.966C773.916 54.33 774.033 54.733 774.033 55.175C774.033 55.591 773.903 55.981 773.643 56.345C773.392 56.7003 773.036 56.9647 772.577 57.138C773.088 57.3027 773.496 57.6017 773.799 58.035C774.111 58.4597 774.267 58.945 774.267 59.491C774.267 60.0283 774.124 60.4963 773.838 60.895C773.552 61.2937 773.162 61.6057 772.668 61.831C772.183 62.0477 771.637 62.156 771.03 62.156ZM771.03 56.696C771.533 56.696 771.927 56.566 772.213 56.306C772.508 56.046 772.655 55.7123 772.655 55.305C772.655 54.8457 772.512 54.4947 772.226 54.252C771.94 54.0093 771.541 53.888 771.03 53.888C770.519 53.888 770.12 54.0093 769.834 54.252C769.548 54.4947 769.405 54.8457 769.405 55.305C769.405 55.7123 769.548 56.046 769.834 56.306C770.12 56.566 770.519 56.696 771.03 56.696ZM771.03 60.986C771.654 60.986 772.122 60.8387 772.434 60.544C772.746 60.2407 772.902 59.855 772.902 59.387C772.902 58.867 772.733 58.4683 772.395 58.191C772.066 57.905 771.611 57.762 771.03 57.762C770.449 57.762 769.99 57.905 769.652 58.191C769.314 58.4683 769.145 58.867 769.145 59.387C769.145 59.855 769.301 60.2407 769.613 60.544C769.934 60.8387 770.406 60.986 771.03 60.986ZM779.625 62.156C778.801 62.156 778.091 61.961 777.493 61.571C776.903 61.1723 776.448 60.622 776.128 59.92C775.816 59.2093 775.66 58.386 775.66 57.45C775.66 56.514 775.816 55.695 776.128 54.993C776.448 54.2823 776.903 53.732 777.493 53.342C778.091 52.9433 778.801 52.744 779.625 52.744C780.448 52.744 781.154 52.9433 781.744 53.342C782.333 53.732 782.784 54.2823 783.096 54.993C783.416 55.695 783.577 56.514 783.577 57.45C783.577 58.386 783.416 59.2093 783.096 59.92C782.784 60.622 782.333 61.1723 781.744 61.571C781.154 61.961 780.448 62.156 779.625 62.156ZM779.625 60.921C780.119 60.921 780.556 60.7823 780.938 60.505C781.328 60.2277 781.631 59.829 781.848 59.309C782.064 58.789 782.173 58.1693 782.173 57.45C782.173 56.7307 782.064 56.111 781.848 55.591C781.631 55.071 781.328 54.6723 780.938 54.395C780.556 54.1177 780.119 53.979 779.625 53.979C779.122 53.979 778.68 54.1177 778.299 54.395C777.917 54.6723 777.618 55.071 777.402 55.591C777.185 56.111 777.077 56.7307 777.077 57.45C777.077 58.1693 777.185 58.789 777.402 59.309C777.618 59.829 777.917 60.2277 778.299 60.505C778.68 60.7823 779.122 60.921 779.625 60.921ZM786.867 57.242C786.46 57.242 786.092 57.151 785.762 56.969C785.442 56.787 785.186 56.5313 784.995 56.202C784.805 55.864 784.709 55.461 784.709 54.993C784.709 54.5337 784.805 54.1393 784.995 53.81C785.186 53.472 785.446 53.212 785.775 53.03C786.105 52.848 786.473 52.757 786.88 52.757C787.279 52.757 787.639 52.848 787.959 53.03C788.289 53.212 788.549 53.472 788.739 53.81C788.93 54.1393 789.025 54.5337 789.025 54.993C789.025 55.461 788.93 55.864 788.739 56.202C788.549 56.5313 788.289 56.787 787.959 56.969C787.639 57.151 787.275 57.242 786.867 57.242ZM786.217 62L791.43 52.9H792.782L787.582 62H786.217ZM786.867 56.254C787.145 56.254 787.383 56.15 787.582 55.942C787.79 55.7253 787.894 55.409 787.894 54.993C787.894 54.577 787.795 54.265 787.595 54.057C787.396 53.8403 787.153 53.732 786.867 53.732C786.59 53.732 786.347 53.8403 786.139 54.057C785.931 54.265 785.827 54.577 785.827 54.993C785.827 55.409 785.927 55.7253 786.126 55.942C786.334 56.15 786.581 56.254 786.867 56.254ZM792.21 62.156C791.803 62.156 791.435 62.065 791.105 61.883C790.785 61.701 790.529 61.4453 790.338 61.116C790.148 60.778 790.052 60.375 790.052 59.907C790.052 59.4477 790.148 59.049 790.338 58.711C790.529 58.373 790.789 58.113 791.118 57.931C791.448 57.749 791.816 57.658 792.223 57.658C792.622 57.658 792.982 57.749 793.302 57.931C793.632 58.113 793.892 58.373 794.082 58.711C794.273 59.049 794.368 59.4477 794.368 59.907C794.368 60.375 794.273 60.778 794.082 61.116C793.892 61.4453 793.632 61.701 793.302 61.883C792.982 62.065 792.618 62.156 792.21 62.156ZM792.21 61.155C792.488 61.155 792.726 61.051 792.925 60.843C793.133 60.635 793.237 60.323 793.237 59.907C793.237 59.491 793.138 59.179 792.938 58.971C792.739 58.7543 792.496 58.646 792.21 58.646C791.933 58.646 791.69 58.7543 791.482 58.971C791.274 59.179 791.17 59.491 791.17 59.907C791.17 60.323 791.27 60.635 791.469 60.843C791.677 61.051 791.924 61.155 792.21 61.155Z" fill="#949494"/>
<path d="M770.978 38.156C770.38 38.156 769.869 38.039 769.444 37.805C769.019 37.571 768.686 37.259 768.443 36.869C768.209 36.479 768.066 36.0543 768.014 35.595H769.301C769.379 36.0457 769.565 36.3923 769.86 36.635C770.155 36.8777 770.532 36.999 770.991 36.999C771.624 36.999 772.144 36.7043 772.551 36.115C772.967 35.517 773.188 34.6027 773.214 33.372C773.006 33.7533 772.681 34.0783 772.239 34.347C771.806 34.6157 771.303 34.75 770.731 34.75C770.22 34.75 769.739 34.6287 769.288 34.386C768.837 34.1433 768.473 33.8053 768.196 33.372C767.919 32.93 767.78 32.41 767.78 31.812C767.78 31.2833 767.91 30.785 768.17 30.317C768.43 29.849 768.794 29.472 769.262 29.186C769.739 28.8913 770.302 28.744 770.952 28.744C771.619 28.744 772.183 28.8697 772.642 29.121C773.101 29.3723 773.47 29.706 773.747 30.122C774.024 30.538 774.224 31.006 774.345 31.526C774.475 32.046 774.54 32.579 774.54 33.125C774.54 34.1303 774.397 35.01 774.111 35.764C773.834 36.518 773.431 37.1073 772.902 37.532C772.373 37.948 771.732 38.156 770.978 38.156ZM771.043 33.567C771.407 33.567 771.732 33.4847 772.018 33.32C772.304 33.1553 772.529 32.9387 772.694 32.67C772.867 32.3927 772.954 32.0893 772.954 31.76C772.954 31.4047 772.867 31.0927 772.694 30.824C772.529 30.5467 772.3 30.33 772.005 30.174C771.719 30.018 771.394 29.94 771.03 29.94C770.666 29.94 770.341 30.018 770.055 30.174C769.769 30.33 769.539 30.5467 769.366 30.824C769.201 31.0927 769.119 31.4003 769.119 31.747C769.119 32.3017 769.301 32.7437 769.665 33.073C770.029 33.4023 770.488 33.567 771.043 33.567ZM779.777 38.156C778.954 38.156 778.243 37.961 777.645 37.571C777.056 37.1723 776.601 36.622 776.28 35.92C775.968 35.2093 775.812 34.386 775.812 33.45C775.812 32.514 775.968 31.695 776.28 30.993C776.601 30.2823 777.056 29.732 777.645 29.342C778.243 28.9433 778.954 28.744 779.777 28.744C780.6 28.744 781.307 28.9433 781.896 29.342C782.485 29.732 782.936 30.2823 783.248 30.993C783.569 31.695 783.729 32.514 783.729 33.45C783.729 34.386 783.569 35.2093 783.248 35.92C782.936 36.622 782.485 37.1723 781.896 37.571C781.307 37.961 780.6 38.156 779.777 38.156ZM779.777 36.921C780.271 36.921 780.709 36.7823 781.09 36.505C781.48 36.2277 781.783 35.829 782 35.309C782.217 34.789 782.325 34.1693 782.325 33.45C782.325 32.7307 782.217 32.111 782 31.591C781.783 31.071 781.48 30.6723 781.09 30.395C780.709 30.1177 780.271 29.979 779.777 29.979C779.274 29.979 778.832 30.1177 778.451 30.395C778.07 30.6723 777.771 31.071 777.554 31.591C777.337 32.111 777.229 32.7307 777.229 33.45C777.229 34.1693 777.337 34.789 777.554 35.309C777.771 35.829 778.07 36.2277 778.451 36.505C778.832 36.7823 779.274 36.921 779.777 36.921ZM787.02 33.242C786.612 33.242 786.244 33.151 785.915 32.969C785.594 32.787 785.338 32.5313 785.148 32.202C784.957 31.864 784.862 31.461 784.862 30.993C784.862 30.5337 784.957 30.1393 785.148 29.81C785.338 29.472 785.598 29.212 785.928 29.03C786.257 28.848 786.625 28.757 787.033 28.757C787.431 28.757 787.791 28.848 788.112 29.03C788.441 29.212 788.701 29.472 788.892 29.81C789.082 30.1393 789.178 30.5337 789.178 30.993C789.178 31.461 789.082 31.864 788.892 32.202C788.701 32.5313 788.441 32.787 788.112 32.969C787.791 33.151 787.427 33.242 787.02 33.242ZM786.37 38L791.583 28.9H792.935L787.735 38H786.37ZM787.02 32.254C787.297 32.254 787.535 32.15 787.735 31.942C787.943 31.7253 788.047 31.409 788.047 30.993C788.047 30.577 787.947 30.265 787.748 30.057C787.548 29.8403 787.306 29.732 787.02 29.732C786.742 29.732 786.5 29.8403 786.292 30.057C786.084 30.265 785.98 30.577 785.98 30.993C785.98 31.409 786.079 31.7253 786.279 31.942C786.487 32.15 786.734 32.254 787.02 32.254ZM792.363 38.156C791.955 38.156 791.587 38.065 791.258 37.883C790.937 37.701 790.681 37.4453 790.491 37.116C790.3 36.778 790.205 36.375 790.205 35.907C790.205 35.4477 790.3 35.049 790.491 34.711C790.681 34.373 790.941 34.113 791.271 33.931C791.6 33.749 791.968 33.658 792.376 33.658C792.774 33.658 793.134 33.749 793.455 33.931C793.784 34.113 794.044 34.373 794.235 34.711C794.425 35.049 794.521 35.4477 794.521 35.907C794.521 36.375 794.425 36.778 794.235 37.116C794.044 37.4453 793.784 37.701 793.455 37.883C793.134 38.065 792.77 38.156 792.363 38.156ZM792.363 37.155C792.64 37.155 792.878 37.051 793.078 36.843C793.286 36.635 793.39 36.323 793.39 35.907C793.39 35.491 793.29 35.179 793.091 34.971C792.891 34.7543 792.649 34.646 792.363 34.646C792.085 34.646 791.843 34.7543 791.635 34.971C791.427 35.179 791.323 35.491 791.323 35.907C791.323 36.323 791.422 36.635 791.622 36.843C791.83 37.051 792.077 37.155 792.363 37.155Z" fill="#949494"/>
<path d="M768.56 86L772.083 78.083H767.351V76.9H773.5V77.901L770.003 86H768.56ZM778.38 86.156C777.557 86.156 776.846 85.961 776.248 85.571C775.659 85.1723 775.204 84.622 774.883 83.92C774.571 83.2093 774.415 82.386 774.415 81.45C774.415 80.514 774.571 79.695 774.883 78.993C775.204 78.2823 775.659 77.732 776.248 77.342C776.846 76.9433 777.557 76.744 778.38 76.744C779.204 76.744 779.91 76.9433 780.499 77.342C781.089 77.732 781.539 78.2823 781.851 78.993C782.172 79.695 782.332 80.514 782.332 81.45C782.332 82.386 782.172 83.2093 781.851 83.92C781.539 84.622 781.089 85.1723 780.499 85.571C779.91 85.961 779.204 86.156 778.38 86.156ZM778.38 84.921C778.874 84.921 779.312 84.7823 779.693 84.505C780.083 84.2277 780.387 83.829 780.603 83.309C780.82 82.789 780.928 82.1693 780.928 81.45C780.928 80.7307 780.82 80.111 780.603 79.591C780.387 79.071 780.083 78.6723 779.693 78.395C779.312 78.1177 778.874 77.979 778.38 77.979C777.878 77.979 777.436 78.1177 777.054 78.395C776.673 78.6723 776.374 79.071 776.157 79.591C775.941 80.111 775.832 80.7307 775.832 81.45C775.832 82.1693 775.941 82.789 776.157 83.309C776.374 83.829 776.673 84.2277 777.054 84.505C777.436 84.7823 777.878 84.921 778.38 84.921ZM785.623 81.242C785.216 81.242 784.848 81.151 784.518 80.969C784.198 80.787 783.942 80.5313 783.751 80.202C783.561 79.864 783.465 79.461 783.465 78.993C783.465 78.5337 783.561 78.1393 783.751 77.81C783.942 77.472 784.202 77.212 784.531 77.03C784.861 76.848 785.229 76.757 785.636 76.757C786.035 76.757 786.395 76.848 786.715 77.03C787.045 77.212 787.305 77.472 787.495 77.81C787.686 78.1393 787.781 78.5337 787.781 78.993C787.781 79.461 787.686 79.864 787.495 80.202C787.305 80.5313 787.045 80.787 786.715 80.969C786.395 81.151 786.031 81.242 785.623 81.242ZM784.973 86L790.186 76.9H791.538L786.338 86H784.973ZM785.623 80.254C785.901 80.254 786.139 80.15 786.338 79.942C786.546 79.7253 786.65 79.409 786.65 78.993C786.65 78.577 786.551 78.265 786.351 78.057C786.152 77.8403 785.909 77.732 785.623 77.732C785.346 77.732 785.103 77.8403 784.895 78.057C784.687 78.265 784.583 78.577 784.583 78.993C784.583 79.409 784.683 79.7253 784.882 79.942C785.09 80.15 785.337 80.254 785.623 80.254ZM790.966 86.156C790.559 86.156 790.191 86.065 789.861 85.883C789.541 85.701 789.285 85.4453 789.094 85.116C788.904 84.778 788.808 84.375 788.808 83.907C788.808 83.4477 788.904 83.049 789.094 82.711C789.285 82.373 789.545 82.113 789.874 81.931C790.204 81.749 790.572 81.658 790.979 81.658C791.378 81.658 791.738 81.749 792.058 81.931C792.388 82.113 792.648 82.373 792.838 82.711C793.029 83.049 793.124 83.4477 793.124 83.907C793.124 84.375 793.029 84.778 792.838 85.116C792.648 85.4453 792.388 85.701 792.058 85.883C791.738 86.065 791.374 86.156 790.966 86.156ZM790.966 85.155C791.244 85.155 791.482 85.051 791.681 84.843C791.889 84.635 791.993 84.323 791.993 83.907C791.993 83.491 791.894 83.179 791.694 82.971C791.495 82.7543 791.252 82.646 790.966 82.646C790.689 82.646 790.446 82.7543 790.238 82.971C790.03 83.179 789.926 83.491 789.926 83.907C789.926 84.323 790.026 84.635 790.225 84.843C790.433 85.051 790.68 85.155 790.966 85.155Z" fill="#949494"/>
<path d="M771.264 110.156C770.597 110.156 770.033 110.03 769.574 109.779C769.115 109.528 768.742 109.194 768.456 108.778C768.179 108.362 767.979 107.894 767.858 107.374C767.737 106.854 767.676 106.321 767.676 105.775C767.676 104.77 767.815 103.89 768.092 103.136C768.378 102.382 768.785 101.797 769.314 101.381C769.843 100.956 770.484 100.744 771.238 100.744C771.836 100.744 772.347 100.861 772.772 101.095C773.197 101.329 773.526 101.641 773.76 102.031C774.003 102.421 774.15 102.846 774.202 103.305H772.915C772.837 102.854 772.651 102.508 772.356 102.265C772.061 102.022 771.684 101.901 771.225 101.901C770.592 101.901 770.068 102.2 769.652 102.798C769.245 103.387 769.028 104.297 769.002 105.528C769.21 105.147 769.531 104.822 769.964 104.553C770.406 104.284 770.913 104.15 771.485 104.15C771.996 104.15 772.473 104.271 772.915 104.514C773.366 104.757 773.73 105.099 774.007 105.541C774.293 105.974 774.436 106.49 774.436 107.088C774.436 107.617 774.306 108.115 774.046 108.583C773.786 109.051 773.418 109.432 772.941 109.727C772.473 110.013 771.914 110.156 771.264 110.156ZM771.186 108.96C771.55 108.96 771.875 108.882 772.161 108.726C772.447 108.57 772.672 108.358 772.837 108.089C773.002 107.812 773.084 107.5 773.084 107.153C773.084 106.598 772.902 106.156 772.538 105.827C772.183 105.498 771.728 105.333 771.173 105.333C770.809 105.333 770.48 105.415 770.185 105.58C769.899 105.745 769.674 105.966 769.509 106.243C769.344 106.512 769.262 106.811 769.262 107.14C769.262 107.495 769.344 107.812 769.509 108.089C769.682 108.358 769.912 108.57 770.198 108.726C770.493 108.882 770.822 108.96 771.186 108.96ZM779.777 110.156C778.954 110.156 778.243 109.961 777.645 109.571C777.056 109.172 776.601 108.622 776.28 107.92C775.968 107.209 775.812 106.386 775.812 105.45C775.812 104.514 775.968 103.695 776.28 102.993C776.601 102.282 777.056 101.732 777.645 101.342C778.243 100.943 778.954 100.744 779.777 100.744C780.6 100.744 781.307 100.943 781.896 101.342C782.485 101.732 782.936 102.282 783.248 102.993C783.569 103.695 783.729 104.514 783.729 105.45C783.729 106.386 783.569 107.209 783.248 107.92C782.936 108.622 782.485 109.172 781.896 109.571C781.307 109.961 780.6 110.156 779.777 110.156ZM779.777 108.921C780.271 108.921 780.709 108.782 781.09 108.505C781.48 108.228 781.783 107.829 782 107.309C782.217 106.789 782.325 106.169 782.325 105.45C782.325 104.731 782.217 104.111 782 103.591C781.783 103.071 781.48 102.672 781.09 102.395C780.709 102.118 780.271 101.979 779.777 101.979C779.274 101.979 778.832 102.118 778.451 102.395C778.07 102.672 777.771 103.071 777.554 103.591C777.337 104.111 777.229 104.731 777.229 105.45C777.229 106.169 777.337 106.789 777.554 107.309C777.771 107.829 778.07 108.228 778.451 108.505C778.832 108.782 779.274 108.921 779.777 108.921ZM787.02 105.242C786.612 105.242 786.244 105.151 785.915 104.969C785.594 104.787 785.338 104.531 785.148 104.202C784.957 103.864 784.862 103.461 784.862 102.993C784.862 102.534 784.957 102.139 785.148 101.81C785.338 101.472 785.598 101.212 785.928 101.03C786.257 100.848 786.625 100.757 787.033 100.757C787.431 100.757 787.791 100.848 788.112 101.03C788.441 101.212 788.701 101.472 788.892 101.81C789.082 102.139 789.178 102.534 789.178 102.993C789.178 103.461 789.082 103.864 788.892 104.202C788.701 104.531 788.441 104.787 788.112 104.969C787.791 105.151 787.427 105.242 787.02 105.242ZM786.37 110L791.583 100.9H792.935L787.735 110H786.37ZM787.02 104.254C787.297 104.254 787.535 104.15 787.735 103.942C787.943 103.725 788.047 103.409 788.047 102.993C788.047 102.577 787.947 102.265 787.748 102.057C787.548 101.84 787.306 101.732 787.02 101.732C786.742 101.732 786.5 101.84 786.292 102.057C786.084 102.265 785.98 102.577 785.98 102.993C785.98 103.409 786.079 103.725 786.279 103.942C786.487 104.15 786.734 104.254 787.02 104.254ZM792.363 110.156C791.955 110.156 791.587 110.065 791.258 109.883C790.937 109.701 790.681 109.445 790.491 109.116C790.3 108.778 790.205 108.375 790.205 107.907C790.205 107.448 790.3 107.049 790.491 106.711C790.681 106.373 790.941 106.113 791.271 105.931C791.6 105.749 791.968 105.658 792.376 105.658C792.774 105.658 793.134 105.749 793.455 105.931C793.784 106.113 794.044 106.373 794.235 106.711C794.425 107.049 794.521 107.448 794.521 107.907C794.521 108.375 794.425 108.778 794.235 109.116C794.044 109.445 793.784 109.701 793.455 109.883C793.134 110.065 792.77 110.156 792.363 110.156ZM792.363 109.155C792.64 109.155 792.878 109.051 793.078 108.843C793.286 108.635 793.39 108.323 793.39 107.907C793.39 107.491 793.29 107.179 793.091 106.971C792.891 106.754 792.649 106.646 792.363 106.646C792.085 106.646 791.843 106.754 791.635 106.971C791.427 107.179 791.323 107.491 791.323 107.907C791.323 108.323 791.422 108.635 791.622 108.843C791.83 109.051 792.077 109.155 792.363 109.155Z" fill="#949494"/>
<path d="M771.095 134.156C770.454 134.156 769.899 134.043 769.431 133.818C768.963 133.584 768.59 133.268 768.313 132.869C768.044 132.462 767.88 132.002 767.819 131.491H769.171C769.258 131.924 769.474 132.284 769.821 132.57C770.168 132.847 770.597 132.986 771.108 132.986C771.489 132.986 771.819 132.895 772.096 132.713C772.373 132.522 772.59 132.271 772.746 131.959C772.902 131.647 772.98 131.296 772.98 130.906C772.98 130.291 772.807 129.801 772.46 129.437C772.113 129.064 771.676 128.878 771.147 128.878C770.696 128.878 770.311 128.986 769.99 129.203C769.669 129.411 769.435 129.675 769.288 129.996H767.975L768.755 124.9H773.669V126.109H769.795L769.327 128.54C769.526 128.315 769.799 128.128 770.146 127.981C770.501 127.825 770.9 127.747 771.342 127.747C771.957 127.747 772.486 127.89 772.928 128.176C773.37 128.453 773.708 128.83 773.942 129.307C774.185 129.784 774.306 130.312 774.306 130.893C774.306 131.5 774.176 132.05 773.916 132.544C773.656 133.038 773.283 133.432 772.798 133.727C772.321 134.013 771.754 134.156 771.095 134.156ZM779.574 134.156C778.75 134.156 778.04 133.961 777.442 133.571C776.852 133.172 776.397 132.622 776.077 131.92C775.765 131.209 775.609 130.386 775.609 129.45C775.609 128.514 775.765 127.695 776.077 126.993C776.397 126.282 776.852 125.732 777.442 125.342C778.04 124.943 778.75 124.744 779.574 124.744C780.397 124.744 781.103 124.943 781.693 125.342C782.282 125.732 782.733 126.282 783.045 126.993C783.365 127.695 783.526 128.514 783.526 129.45C783.526 130.386 783.365 131.209 783.045 131.92C782.733 132.622 782.282 133.172 781.693 133.571C781.103 133.961 780.397 134.156 779.574 134.156ZM779.574 132.921C780.068 132.921 780.505 132.782 780.887 132.505C781.277 132.228 781.58 131.829 781.797 131.309C782.013 130.789 782.122 130.169 782.122 129.45C782.122 128.731 782.013 128.111 781.797 127.591C781.58 127.071 781.277 126.672 780.887 126.395C780.505 126.118 780.068 125.979 779.574 125.979C779.071 125.979 778.629 126.118 778.248 126.395C777.866 126.672 777.567 127.071 777.351 127.591C777.134 128.111 777.026 128.731 777.026 129.45C777.026 130.169 777.134 130.789 777.351 131.309C777.567 131.829 777.866 132.228 778.248 132.505C778.629 132.782 779.071 132.921 779.574 132.921ZM786.817 129.242C786.409 129.242 786.041 129.151 785.712 128.969C785.391 128.787 785.135 128.531 784.945 128.202C784.754 127.864 784.659 127.461 784.659 126.993C784.659 126.534 784.754 126.139 784.945 125.81C785.135 125.472 785.395 125.212 785.725 125.03C786.054 124.848 786.422 124.757 786.83 124.757C787.228 124.757 787.588 124.848 787.909 125.03C788.238 125.212 788.498 125.472 788.689 125.81C788.879 126.139 788.975 126.534 788.975 126.993C788.975 127.461 788.879 127.864 788.689 128.202C788.498 128.531 788.238 128.787 787.909 128.969C787.588 129.151 787.224 129.242 786.817 129.242ZM786.167 134L791.38 124.9H792.732L787.532 134H786.167ZM786.817 128.254C787.094 128.254 787.332 128.15 787.532 127.942C787.74 127.725 787.844 127.409 787.844 126.993C787.844 126.577 787.744 126.265 787.545 126.057C787.345 125.84 787.103 125.732 786.817 125.732C786.539 125.732 786.297 125.84 786.089 126.057C785.881 126.265 785.777 126.577 785.777 126.993C785.777 127.409 785.876 127.725 786.076 127.942C786.284 128.15 786.531 128.254 786.817 128.254ZM792.16 134.156C791.752 134.156 791.384 134.065 791.055 133.883C790.734 133.701 790.478 133.445 790.288 133.116C790.097 132.778 790.002 132.375 790.002 131.907C790.002 131.448 790.097 131.049 790.288 130.711C790.478 130.373 790.738 130.113 791.068 129.931C791.397 129.749 791.765 129.658 792.173 129.658C792.571 129.658 792.931 129.749 793.252 129.931C793.581 130.113 793.841 130.373 794.032 130.711C794.222 131.049 794.318 131.448 794.318 131.907C794.318 132.375 794.222 132.778 794.032 133.116C793.841 133.445 793.581 133.701 793.252 133.883C792.931 134.065 792.567 134.156 792.16 134.156ZM792.16 133.155C792.437 133.155 792.675 133.051 792.875 132.843C793.083 132.635 793.187 132.323 793.187 131.907C793.187 131.491 793.087 131.179 792.888 130.971C792.688 130.754 792.446 130.646 792.16 130.646C791.882 130.646 791.64 130.754 791.432 130.971C791.224 131.179 791.12 131.491 791.12 131.907C791.12 132.323 791.219 132.635 791.419 132.843C791.627 133.051 791.874 133.155 792.16 133.155Z" fill="#949494"/>
<path d="M772.07 158V156.18H767.507V155.088L771.849 148.9H773.435V154.984H774.709V156.18H773.435V158H772.07ZM769.002 154.984H772.148V150.421L769.002 154.984ZM779.663 158.156C778.839 158.156 778.129 157.961 777.531 157.571C776.941 157.172 776.486 156.622 776.166 155.92C775.854 155.209 775.698 154.386 775.698 153.45C775.698 152.514 775.854 151.695 776.166 150.993C776.486 150.282 776.941 149.732 777.531 149.342C778.129 148.943 778.839 148.744 779.663 148.744C780.486 148.744 781.192 148.943 781.782 149.342C782.371 149.732 782.822 150.282 783.134 150.993C783.454 151.695 783.615 152.514 783.615 153.45C783.615 154.386 783.454 155.209 783.134 155.92C782.822 156.622 782.371 157.172 781.782 157.571C781.192 157.961 780.486 158.156 779.663 158.156ZM779.663 156.921C780.157 156.921 780.594 156.782 780.976 156.505C781.366 156.228 781.669 155.829 781.886 155.309C782.102 154.789 782.211 154.169 782.211 153.45C782.211 152.731 782.102 152.111 781.886 151.591C781.669 151.071 781.366 150.672 780.976 150.395C780.594 150.118 780.157 149.979 779.663 149.979C779.16 149.979 778.718 150.118 778.337 150.395C777.955 150.672 777.656 151.071 777.44 151.591C777.223 152.111 777.115 152.731 777.115 153.45C777.115 154.169 777.223 154.789 777.44 155.309C777.656 155.829 777.955 156.228 778.337 156.505C778.718 156.782 779.16 156.921 779.663 156.921ZM786.906 153.242C786.498 153.242 786.13 153.151 785.801 152.969C785.48 152.787 785.224 152.531 785.034 152.202C784.843 151.864 784.748 151.461 784.748 150.993C784.748 150.534 784.843 150.139 785.034 149.81C785.224 149.472 785.484 149.212 785.814 149.03C786.143 148.848 786.511 148.757 786.919 148.757C787.317 148.757 787.677 148.848 787.998 149.03C788.327 149.212 788.587 149.472 788.778 149.81C788.968 150.139 789.064 150.534 789.064 150.993C789.064 151.461 788.968 151.864 788.778 152.202C788.587 152.531 788.327 152.787 787.998 152.969C787.677 153.151 787.313 153.242 786.906 153.242ZM786.256 158L791.469 148.9H792.821L787.621 158H786.256ZM786.906 152.254C787.183 152.254 787.421 152.15 787.621 151.942C787.829 151.725 787.933 151.409 787.933 150.993C787.933 150.577 787.833 150.265 787.634 150.057C787.434 149.84 787.192 149.732 786.906 149.732C786.628 149.732 786.386 149.84 786.178 150.057C785.97 150.265 785.866 150.577 785.866 150.993C785.866 151.409 785.965 151.725 786.165 151.942C786.373 152.15 786.62 152.254 786.906 152.254ZM792.249 158.156C791.841 158.156 791.473 158.065 791.144 157.883C790.823 157.701 790.567 157.445 790.377 157.116C790.186 156.778 790.091 156.375 790.091 155.907C790.091 155.448 790.186 155.049 790.377 154.711C790.567 154.373 790.827 154.113 791.157 153.931C791.486 153.749 791.854 153.658 792.262 153.658C792.66 153.658 793.02 153.749 793.341 153.931C793.67 154.113 793.93 154.373 794.121 154.711C794.311 155.049 794.407 155.448 794.407 155.907C794.407 156.375 794.311 156.778 794.121 157.116C793.93 157.445 793.67 157.701 793.341 157.883C793.02 158.065 792.656 158.156 792.249 158.156ZM792.249 157.155C792.526 157.155 792.764 157.051 792.964 156.843C793.172 156.635 793.276 156.323 793.276 155.907C793.276 155.491 793.176 155.179 792.977 154.971C792.777 154.754 792.535 154.646 792.249 154.646C791.971 154.646 791.729 154.754 791.521 154.971C791.313 155.179 791.209 155.491 791.209 155.907C791.209 156.323 791.308 156.635 791.508 156.843C791.716 157.051 791.963 157.155 792.249 157.155Z" fill="#949494"/>
<path d="M770.835 182.156C770.246 182.156 769.708 182.052 769.223 181.844C768.746 181.627 768.365 181.302 768.079 180.869C767.793 180.436 767.641 179.894 767.624 179.244H768.989C769.006 179.729 769.171 180.141 769.483 180.479C769.804 180.808 770.254 180.973 770.835 180.973C771.39 180.973 771.814 180.821 772.109 180.518C772.404 180.206 772.551 179.82 772.551 179.361C772.551 178.806 772.352 178.395 771.953 178.126C771.563 177.857 771.082 177.723 770.51 177.723H769.834V176.579H770.523C771.034 176.579 771.446 176.458 771.758 176.215C772.079 175.972 772.239 175.63 772.239 175.188C772.239 174.815 772.113 174.512 771.862 174.278C771.619 174.044 771.273 173.927 770.822 173.927C770.354 173.927 769.986 174.066 769.717 174.343C769.448 174.612 769.301 174.95 769.275 175.357H767.91C767.927 174.828 768.057 174.369 768.3 173.979C768.551 173.589 768.894 173.286 769.327 173.069C769.76 172.852 770.259 172.744 770.822 172.744C771.429 172.744 771.936 172.852 772.343 173.069C772.759 173.277 773.071 173.563 773.279 173.927C773.496 174.282 773.604 174.672 773.604 175.097C773.604 175.582 773.47 176.007 773.201 176.371C772.932 176.735 772.573 176.978 772.122 177.099C772.642 177.212 773.071 177.467 773.409 177.866C773.747 178.256 773.916 178.763 773.916 179.387C773.916 179.89 773.799 180.353 773.565 180.778C773.331 181.194 772.984 181.528 772.525 181.779C772.066 182.03 771.502 182.156 770.835 182.156ZM779.256 182.156C778.433 182.156 777.722 181.961 777.124 181.571C776.535 181.172 776.08 180.622 775.759 179.92C775.447 179.209 775.291 178.386 775.291 177.45C775.291 176.514 775.447 175.695 775.759 174.993C776.08 174.282 776.535 173.732 777.124 173.342C777.722 172.943 778.433 172.744 779.256 172.744C780.08 172.744 780.786 172.943 781.375 173.342C781.965 173.732 782.415 174.282 782.727 174.993C783.048 175.695 783.208 176.514 783.208 177.45C783.208 178.386 783.048 179.209 782.727 179.92C782.415 180.622 781.965 181.172 781.375 181.571C780.786 181.961 780.08 182.156 779.256 182.156ZM779.256 180.921C779.75 180.921 780.188 180.782 780.569 180.505C780.959 180.228 781.263 179.829 781.479 179.309C781.696 178.789 781.804 178.169 781.804 177.45C781.804 176.731 781.696 176.111 781.479 175.591C781.263 175.071 780.959 174.672 780.569 174.395C780.188 174.118 779.75 173.979 779.256 173.979C778.754 173.979 778.312 174.118 777.93 174.395C777.549 174.672 777.25 175.071 777.033 175.591C776.817 176.111 776.708 176.731 776.708 177.45C776.708 178.169 776.817 178.789 777.033 179.309C777.25 179.829 777.549 180.228 777.93 180.505C778.312 180.782 778.754 180.921 779.256 180.921ZM786.499 177.242C786.092 177.242 785.724 177.151 785.394 176.969C785.074 176.787 784.818 176.531 784.627 176.202C784.437 175.864 784.341 175.461 784.341 174.993C784.341 174.534 784.437 174.139 784.627 173.81C784.818 173.472 785.078 173.212 785.407 173.03C785.737 172.848 786.105 172.757 786.512 172.757C786.911 172.757 787.271 172.848 787.591 173.03C787.921 173.212 788.181 173.472 788.371 173.81C788.562 174.139 788.657 174.534 788.657 174.993C788.657 175.461 788.562 175.864 788.371 176.202C788.181 176.531 787.921 176.787 787.591 176.969C787.271 177.151 786.907 177.242 786.499 177.242ZM785.849 182L791.062 172.9H792.414L787.214 182H785.849ZM786.499 176.254C786.777 176.254 787.015 176.15 787.214 175.942C787.422 175.725 787.526 175.409 787.526 174.993C787.526 174.577 787.427 174.265 787.227 174.057C787.028 173.84 786.785 173.732 786.499 173.732C786.222 173.732 785.979 173.84 785.771 174.057C785.563 174.265 785.459 174.577 785.459 174.993C785.459 175.409 785.559 175.725 785.758 175.942C785.966 176.15 786.213 176.254 786.499 176.254ZM791.842 182.156C791.435 182.156 791.067 182.065 790.737 181.883C790.417 181.701 790.161 181.445 789.97 181.116C789.78 180.778 789.684 180.375 789.684 179.907C789.684 179.448 789.78 179.049 789.97 178.711C790.161 178.373 790.421 178.113 790.75 177.931C791.08 177.749 791.448 177.658 791.855 177.658C792.254 177.658 792.614 177.749 792.934 177.931C793.264 178.113 793.524 178.373 793.714 178.711C793.905 179.049 794 179.448 794 179.907C794 180.375 793.905 180.778 793.714 181.116C793.524 181.445 793.264 181.701 792.934 181.883C792.614 182.065 792.25 182.156 791.842 182.156ZM791.842 181.155C792.12 181.155 792.358 181.051 792.557 180.843C792.765 180.635 792.869 180.323 792.869 179.907C792.869 179.491 792.77 179.179 792.57 178.971C792.371 178.754 792.128 178.646 791.842 178.646C791.565 178.646 791.322 178.754 791.114 178.971C790.906 179.179 790.802 179.491 790.802 179.907C790.802 180.323 790.902 180.635 791.101 180.843C791.309 181.051 791.556 181.155 791.842 181.155Z" fill="#949494"/>
<path d="M767.741 206V205.012C768.33 204.544 768.894 204.072 769.431 203.595C769.968 203.118 770.445 202.65 770.861 202.191C771.286 201.723 771.619 201.268 771.862 200.826C772.105 200.375 772.226 199.942 772.226 199.526C772.226 199.249 772.178 198.989 772.083 198.746C771.988 198.495 771.832 198.295 771.615 198.148C771.398 197.992 771.108 197.914 770.744 197.914C770.198 197.914 769.786 198.087 769.509 198.434C769.24 198.781 769.11 199.197 769.119 199.682H767.78C767.789 199.041 767.923 198.503 768.183 198.07C768.452 197.637 768.807 197.307 769.249 197.082C769.7 196.857 770.207 196.744 770.77 196.744C771.628 196.744 772.313 196.987 772.824 197.472C773.344 197.949 773.604 198.616 773.604 199.474C773.604 199.985 773.478 200.492 773.227 200.995C772.984 201.498 772.664 201.983 772.265 202.451C771.875 202.91 771.455 203.344 771.004 203.751C770.553 204.158 770.124 204.527 769.717 204.856H773.877V206H767.741ZM778.901 206.156C778.078 206.156 777.367 205.961 776.769 205.571C776.18 205.172 775.725 204.622 775.404 203.92C775.092 203.209 774.936 202.386 774.936 201.45C774.936 200.514 775.092 199.695 775.404 198.993C775.725 198.282 776.18 197.732 776.769 197.342C777.367 196.943 778.078 196.744 778.901 196.744C779.724 196.744 780.431 196.943 781.02 197.342C781.609 197.732 782.06 198.282 782.372 198.993C782.693 199.695 782.853 200.514 782.853 201.45C782.853 202.386 782.693 203.209 782.372 203.92C782.06 204.622 781.609 205.172 781.02 205.571C780.431 205.961 779.724 206.156 778.901 206.156ZM778.901 204.921C779.395 204.921 779.833 204.782 780.214 204.505C780.604 204.228 780.907 203.829 781.124 203.309C781.341 202.789 781.449 202.169 781.449 201.45C781.449 200.731 781.341 200.111 781.124 199.591C780.907 199.071 780.604 198.672 780.214 198.395C779.833 198.118 779.395 197.979 778.901 197.979C778.398 197.979 777.956 198.118 777.575 198.395C777.194 198.672 776.895 199.071 776.678 199.591C776.461 200.111 776.353 200.731 776.353 201.45C776.353 202.169 776.461 202.789 776.678 203.309C776.895 203.829 777.194 204.228 777.575 204.505C777.956 204.782 778.398 204.921 778.901 204.921ZM786.144 201.242C785.736 201.242 785.368 201.151 785.039 200.969C784.718 200.787 784.462 200.531 784.272 200.202C784.081 199.864 783.986 199.461 783.986 198.993C783.986 198.534 784.081 198.139 784.272 197.81C784.462 197.472 784.722 197.212 785.052 197.03C785.381 196.848 785.749 196.757 786.157 196.757C786.555 196.757 786.915 196.848 787.236 197.03C787.565 197.212 787.825 197.472 788.016 197.81C788.206 198.139 788.302 198.534 788.302 198.993C788.302 199.461 788.206 199.864 788.016 200.202C787.825 200.531 787.565 200.787 787.236 200.969C786.915 201.151 786.551 201.242 786.144 201.242ZM785.494 206L790.707 196.9H792.059L786.859 206H785.494ZM786.144 200.254C786.421 200.254 786.659 200.15 786.859 199.942C787.067 199.725 787.171 199.409 787.171 198.993C787.171 198.577 787.071 198.265 786.872 198.057C786.672 197.84 786.43 197.732 786.144 197.732C785.866 197.732 785.624 197.84 785.416 198.057C785.208 198.265 785.104 198.577 785.104 198.993C785.104 199.409 785.203 199.725 785.403 199.942C785.611 200.15 785.858 200.254 786.144 200.254ZM791.487 206.156C791.079 206.156 790.711 206.065 790.382 205.883C790.061 205.701 789.805 205.445 789.615 205.116C789.424 204.778 789.329 204.375 789.329 203.907C789.329 203.448 789.424 203.049 789.615 202.711C789.805 202.373 790.065 202.113 790.395 201.931C790.724 201.749 791.092 201.658 791.5 201.658C791.898 201.658 792.258 201.749 792.579 201.931C792.908 202.113 793.168 202.373 793.359 202.711C793.549 203.049 793.645 203.448 793.645 203.907C793.645 204.375 793.549 204.778 793.359 205.116C793.168 205.445 792.908 205.701 792.579 205.883C792.258 206.065 791.894 206.156 791.487 206.156ZM791.487 205.155C791.764 205.155 792.002 205.051 792.202 204.843C792.41 204.635 792.514 204.323 792.514 203.907C792.514 203.491 792.414 203.179 792.215 202.971C792.015 202.754 791.773 202.646 791.487 202.646C791.209 202.646 790.967 202.754 790.759 202.971C790.551 203.179 790.447 203.491 790.447 203.907C790.447 204.323 790.546 204.635 790.746 204.843C790.954 205.051 791.201 205.155 791.487 205.155Z" fill="#949494"/>
<path d="M768.859 230V222.46L767.39 222.798V221.784L769.405 220.9H770.289V230H768.859ZM775.778 230.156C774.955 230.156 774.244 229.961 773.646 229.571C773.057 229.172 772.602 228.622 772.281 227.92C771.969 227.209 771.813 226.386 771.813 225.45C771.813 224.514 771.969 223.695 772.281 222.993C772.602 222.282 773.057 221.732 773.646 221.342C774.244 220.943 774.955 220.744 775.778 220.744C776.601 220.744 777.308 220.943 777.897 221.342C778.486 221.732 778.937 222.282 779.249 222.993C779.57 223.695 779.73 224.514 779.73 225.45C779.73 226.386 779.57 227.209 779.249 227.92C778.937 228.622 778.486 229.172 777.897 229.571C777.308 229.961 776.601 230.156 775.778 230.156ZM775.778 228.921C776.272 228.921 776.71 228.782 777.091 228.505C777.481 228.228 777.784 227.829 778.001 227.309C778.218 226.789 778.326 226.169 778.326 225.45C778.326 224.731 778.218 224.111 778.001 223.591C777.784 223.071 777.481 222.672 777.091 222.395C776.71 222.118 776.272 221.979 775.778 221.979C775.275 221.979 774.833 222.118 774.452 222.395C774.071 222.672 773.772 223.071 773.555 223.591C773.338 224.111 773.23 224.731 773.23 225.45C773.23 226.169 773.338 226.789 773.555 227.309C773.772 227.829 774.071 228.228 774.452 228.505C774.833 228.782 775.275 228.921 775.778 228.921ZM783.021 225.242C782.613 225.242 782.245 225.151 781.916 224.969C781.595 224.787 781.339 224.531 781.149 224.202C780.958 223.864 780.863 223.461 780.863 222.993C780.863 222.534 780.958 222.139 781.149 221.81C781.339 221.472 781.599 221.212 781.929 221.03C782.258 220.848 782.626 220.757 783.034 220.757C783.432 220.757 783.792 220.848 784.113 221.03C784.442 221.212 784.702 221.472 784.893 221.81C785.083 222.139 785.179 222.534 785.179 222.993C785.179 223.461 785.083 223.864 784.893 224.202C784.702 224.531 784.442 224.787 784.113 224.969C783.792 225.151 783.428 225.242 783.021 225.242ZM782.371 230L787.584 220.9H788.936L783.736 230H782.371ZM783.021 224.254C783.298 224.254 783.536 224.15 783.736 223.942C783.944 223.725 784.048 223.409 784.048 222.993C784.048 222.577 783.948 222.265 783.749 222.057C783.549 221.84 783.307 221.732 783.021 221.732C782.743 221.732 782.501 221.84 782.293 222.057C782.085 222.265 781.981 222.577 781.981 222.993C781.981 223.409 782.08 223.725 782.28 223.942C782.488 224.15 782.735 224.254 783.021 224.254ZM788.364 230.156C787.956 230.156 787.588 230.065 787.259 229.883C786.938 229.701 786.682 229.445 786.492 229.116C786.301 228.778 786.206 228.375 786.206 227.907C786.206 227.448 786.301 227.049 786.492 226.711C786.682 226.373 786.942 226.113 787.272 225.931C787.601 225.749 787.969 225.658 788.377 225.658C788.775 225.658 789.135 225.749 789.456 225.931C789.785 226.113 790.045 226.373 790.236 226.711C790.426 227.049 790.522 227.448 790.522 227.907C790.522 228.375 790.426 228.778 790.236 229.116C790.045 229.445 789.785 229.701 789.456 229.883C789.135 230.065 788.771 230.156 788.364 230.156ZM788.364 229.155C788.641 229.155 788.879 229.051 789.079 228.843C789.287 228.635 789.391 228.323 789.391 227.907C789.391 227.491 789.291 227.179 789.092 226.971C788.892 226.754 788.65 226.646 788.364 226.646C788.086 226.646 787.844 226.754 787.636 226.971C787.428 227.179 787.324 227.491 787.324 227.907C787.324 228.323 787.423 228.635 787.623 228.843C787.831 229.051 788.078 229.155 788.364 229.155Z" fill="#949494"/>
<path d="M771.563 254.156C770.74 254.156 770.029 253.961 769.431 253.571C768.842 253.172 768.387 252.622 768.066 251.92C767.754 251.209 767.598 250.386 767.598 249.45C767.598 248.514 767.754 247.695 768.066 246.993C768.387 246.282 768.842 245.732 769.431 245.342C770.029 244.943 770.74 244.744 771.563 244.744C772.386 244.744 773.093 244.943 773.682 245.342C774.271 245.732 774.722 246.282 775.034 246.993C775.355 247.695 775.515 248.514 775.515 249.45C775.515 250.386 775.355 251.209 775.034 251.92C774.722 252.622 774.271 253.172 773.682 253.571C773.093 253.961 772.386 254.156 771.563 254.156ZM771.563 252.921C772.057 252.921 772.495 252.782 772.876 252.505C773.266 252.228 773.569 251.829 773.786 251.309C774.003 250.789 774.111 250.169 774.111 249.45C774.111 248.731 774.003 248.111 773.786 247.591C773.569 247.071 773.266 246.672 772.876 246.395C772.495 246.118 772.057 245.979 771.563 245.979C771.06 245.979 770.618 246.118 770.237 246.395C769.856 246.672 769.557 247.071 769.34 247.591C769.123 248.111 769.015 248.731 769.015 249.45C769.015 250.169 769.123 250.789 769.34 251.309C769.557 251.829 769.856 252.228 770.237 252.505C770.618 252.782 771.06 252.921 771.563 252.921Z" fill="#949494"/>
<path d="M718.196 271V270.012C718.785 269.544 719.349 269.072 719.886 268.595C720.423 268.118 720.9 267.65 721.316 267.191C721.741 266.723 722.074 266.268 722.317 265.826C722.56 265.375 722.681 264.942 722.681 264.526C722.681 264.249 722.633 263.989 722.538 263.746C722.443 263.495 722.287 263.295 722.07 263.148C721.853 262.992 721.563 262.914 721.199 262.914C720.653 262.914 720.241 263.087 719.964 263.434C719.695 263.781 719.565 264.197 719.574 264.682H718.235C718.244 264.041 718.378 263.503 718.638 263.07C718.907 262.637 719.262 262.307 719.704 262.082C720.155 261.857 720.662 261.744 721.225 261.744C722.083 261.744 722.768 261.987 723.279 262.472C723.799 262.949 724.059 263.616 724.059 264.474C724.059 264.985 723.933 265.492 723.682 265.995C723.439 266.498 723.119 266.983 722.72 267.451C722.33 267.91 721.91 268.344 721.459 268.751C721.008 269.158 720.579 269.527 720.172 269.856H724.332V271H718.196ZM729.799 271V269.18H725.236V268.088L729.578 261.9H731.164V267.984H732.438V269.18H731.164V271H729.799ZM726.731 267.984H729.877V263.421L726.731 267.984Z" fill="#949494"/>
<path d="M360.693 271V263.46L359.224 263.798V262.784L361.239 261.9H362.123V271H360.693ZM363.79 271V270.012C364.38 269.544 364.943 269.072 365.48 268.595C366.018 268.118 366.494 267.65 366.91 267.191C367.335 266.723 367.669 266.268 367.911 265.826C368.154 265.375 368.275 264.942 368.275 264.526C368.275 264.249 368.228 263.989 368.132 263.746C368.037 263.495 367.881 263.295 367.664 263.148C367.448 262.992 367.157 262.914 366.793 262.914C366.247 262.914 365.836 263.087 365.558 263.434C365.29 263.781 365.16 264.197 365.168 264.682H363.829C363.838 264.041 363.972 263.503 364.232 263.07C364.501 262.637 364.856 262.307 365.298 262.082C365.749 261.857 366.256 261.744 366.819 261.744C367.677 261.744 368.362 261.987 368.873 262.472C369.393 262.949 369.653 263.616 369.653 264.474C369.653 264.985 369.528 265.492 369.276 265.995C369.034 266.498 368.713 266.983 368.314 267.451C367.924 267.91 367.504 268.344 367.053 268.751C366.603 269.158 366.174 269.527 365.766 269.856H369.926V271H363.79Z" fill="#949494"/>
<path d="M420.363 271V263.46L418.894 263.798V262.784L420.909 261.9H421.793V271H420.363ZM427.789 271V269.18H423.226V268.088L427.568 261.9H429.154V267.984H430.428V269.18H429.154V271H427.789ZM424.721 267.984H427.867V263.421L424.721 267.984Z" fill="#949494"/>
<path d="M480.306 271V263.46L478.837 263.798V262.784L480.852 261.9H481.736V271H480.306ZM486.926 271.156C486.259 271.156 485.695 271.03 485.236 270.779C484.777 270.528 484.404 270.194 484.118 269.778C483.841 269.362 483.641 268.894 483.52 268.374C483.399 267.854 483.338 267.321 483.338 266.775C483.338 265.77 483.477 264.89 483.754 264.136C484.04 263.382 484.447 262.797 484.976 262.381C485.505 261.956 486.146 261.744 486.9 261.744C487.498 261.744 488.009 261.861 488.434 262.095C488.859 262.329 489.188 262.641 489.422 263.031C489.665 263.421 489.812 263.846 489.864 264.305H488.577C488.499 263.854 488.313 263.508 488.018 263.265C487.723 263.022 487.346 262.901 486.887 262.901C486.254 262.901 485.73 263.2 485.314 263.798C484.907 264.387 484.69 265.297 484.664 266.528C484.872 266.147 485.193 265.822 485.626 265.553C486.068 265.284 486.575 265.15 487.147 265.15C487.658 265.15 488.135 265.271 488.577 265.514C489.028 265.757 489.392 266.099 489.669 266.541C489.955 266.974 490.098 267.49 490.098 268.088C490.098 268.617 489.968 269.115 489.708 269.583C489.448 270.051 489.08 270.432 488.603 270.727C488.135 271.013 487.576 271.156 486.926 271.156ZM486.848 269.96C487.212 269.96 487.537 269.882 487.823 269.726C488.109 269.57 488.334 269.358 488.499 269.089C488.664 268.812 488.746 268.5 488.746 268.153C488.746 267.598 488.564 267.156 488.2 266.827C487.845 266.498 487.39 266.333 486.835 266.333C486.471 266.333 486.142 266.415 485.847 266.58C485.561 266.745 485.336 266.966 485.171 267.243C485.006 267.512 484.924 267.811 484.924 268.14C484.924 268.495 485.006 268.812 485.171 269.089C485.344 269.358 485.574 269.57 485.86 269.726C486.155 269.882 486.484 269.96 486.848 269.96Z" fill="#949494"/>
<path d="M540.382 271V263.46L538.913 263.798V262.784L540.928 261.9H541.812V271H540.382ZM546.768 271.156C546.162 271.156 545.611 271.048 545.117 270.831C544.632 270.606 544.242 270.294 543.947 269.895C543.661 269.496 543.518 269.028 543.518 268.491C543.518 267.945 543.67 267.455 543.973 267.022C544.285 266.589 544.697 266.294 545.208 266.138C544.749 265.956 544.394 265.692 544.142 265.345C543.891 264.99 543.765 264.6 543.765 264.175C543.765 263.733 543.882 263.33 544.116 262.966C544.35 262.593 544.688 262.299 545.13 262.082C545.581 261.857 546.127 261.744 546.768 261.744C547.41 261.744 547.951 261.857 548.393 262.082C548.844 262.299 549.186 262.593 549.42 262.966C549.654 263.33 549.771 263.733 549.771 264.175C549.771 264.591 549.641 264.981 549.381 265.345C549.13 265.7 548.775 265.965 548.315 266.138C548.827 266.303 549.234 266.602 549.537 267.035C549.849 267.46 550.005 267.945 550.005 268.491C550.005 269.028 549.862 269.496 549.576 269.895C549.29 270.294 548.9 270.606 548.406 270.831C547.921 271.048 547.375 271.156 546.768 271.156ZM546.768 265.696C547.271 265.696 547.665 265.566 547.951 265.306C548.246 265.046 548.393 264.712 548.393 264.305C548.393 263.846 548.25 263.495 547.964 263.252C547.678 263.009 547.28 262.888 546.768 262.888C546.257 262.888 545.858 263.009 545.572 263.252C545.286 263.495 545.143 263.846 545.143 264.305C545.143 264.712 545.286 265.046 545.572 265.306C545.858 265.566 546.257 265.696 546.768 265.696ZM546.768 269.986C547.392 269.986 547.86 269.839 548.172 269.544C548.484 269.241 548.64 268.855 548.64 268.387C548.64 267.867 548.471 267.468 548.133 267.191C547.804 266.905 547.349 266.762 546.768 266.762C546.188 266.762 545.728 266.905 545.39 267.191C545.052 267.468 544.883 267.867 544.883 268.387C544.883 268.855 545.039 269.241 545.351 269.544C545.672 269.839 546.144 269.986 546.768 269.986Z" fill="#949494"/>
<path d="M597.008 271V270.012C597.597 269.544 598.161 269.072 598.698 268.595C599.235 268.118 599.712 267.65 600.128 267.191C600.553 266.723 600.886 266.268 601.129 265.826C601.372 265.375 601.493 264.942 601.493 264.526C601.493 264.249 601.445 263.989 601.35 263.746C601.255 263.495 601.099 263.295 600.882 263.148C600.665 262.992 600.375 262.914 600.011 262.914C599.465 262.914 599.053 263.087 598.776 263.434C598.507 263.781 598.377 264.197 598.386 264.682H597.047C597.056 264.041 597.19 263.503 597.45 263.07C597.719 262.637 598.074 262.307 598.516 262.082C598.967 261.857 599.474 261.744 600.037 261.744C600.895 261.744 601.58 261.987 602.091 262.472C602.611 262.949 602.871 263.616 602.871 264.474C602.871 264.985 602.745 265.492 602.494 265.995C602.251 266.498 601.931 266.983 601.532 267.451C601.142 267.91 600.722 268.344 600.271 268.751C599.82 269.158 599.391 269.527 598.984 269.856H603.144V271H597.008ZM608.168 271.156C607.345 271.156 606.634 270.961 606.036 270.571C605.447 270.172 604.992 269.622 604.671 268.92C604.359 268.209 604.203 267.386 604.203 266.45C604.203 265.514 604.359 264.695 604.671 263.993C604.992 263.282 605.447 262.732 606.036 262.342C606.634 261.943 607.345 261.744 608.168 261.744C608.991 261.744 609.698 261.943 610.287 262.342C610.876 262.732 611.327 263.282 611.639 263.993C611.96 264.695 612.12 265.514 612.12 266.45C612.12 267.386 611.96 268.209 611.639 268.92C611.327 269.622 610.876 270.172 610.287 270.571C609.698 270.961 608.991 271.156 608.168 271.156ZM608.168 269.921C608.662 269.921 609.1 269.782 609.481 269.505C609.871 269.228 610.174 268.829 610.391 268.309C610.608 267.789 610.716 267.169 610.716 266.45C610.716 265.731 610.608 265.111 610.391 264.591C610.174 264.071 609.871 263.672 609.481 263.395C609.1 263.118 608.662 262.979 608.168 262.979C607.665 262.979 607.223 263.118 606.842 263.395C606.461 263.672 606.162 264.071 605.945 264.591C605.728 265.111 605.62 265.731 605.62 266.45C605.62 267.169 605.728 267.789 605.945 268.309C606.162 268.829 606.461 269.228 606.842 269.505C607.223 269.782 607.665 269.921 608.168 269.921Z" fill="#949494"/>
<path d="M657.802 271V270.012C658.391 269.544 658.954 269.072 659.492 268.595C660.029 268.118 660.506 267.65 660.922 267.191C661.346 266.723 661.68 266.268 661.923 265.826C662.165 265.375 662.287 264.942 662.287 264.526C662.287 264.249 662.239 263.989 662.144 263.746C662.048 263.495 661.892 263.295 661.676 263.148C661.459 262.992 661.169 262.914 660.805 262.914C660.259 262.914 659.847 263.087 659.57 263.434C659.301 263.781 659.171 264.197 659.18 264.682H657.841C657.849 264.041 657.984 263.503 658.244 263.07C658.512 262.637 658.868 262.307 659.31 262.082C659.76 261.857 660.267 261.744 660.831 261.744C661.689 261.744 662.373 261.987 662.885 262.472C663.405 262.949 663.665 263.616 663.665 264.474C663.665 264.985 663.539 265.492 663.288 265.995C663.045 266.498 662.724 266.983 662.326 267.451C661.936 267.91 661.515 268.344 661.065 268.751C660.614 269.158 660.185 269.527 659.778 269.856H663.938V271H657.802ZM665.241 271V270.012C665.83 269.544 666.394 269.072 666.931 268.595C667.468 268.118 667.945 267.65 668.361 267.191C668.786 266.723 669.119 266.268 669.362 265.826C669.605 265.375 669.726 264.942 669.726 264.526C669.726 264.249 669.678 263.989 669.583 263.746C669.488 263.495 669.332 263.295 669.115 263.148C668.898 262.992 668.608 262.914 668.244 262.914C667.698 262.914 667.286 263.087 667.009 263.434C666.74 263.781 666.61 264.197 666.619 264.682H665.28C665.289 264.041 665.423 263.503 665.683 263.07C665.952 262.637 666.307 262.307 666.749 262.082C667.2 261.857 667.707 261.744 668.27 261.744C669.128 261.744 669.813 261.987 670.324 262.472C670.844 262.949 671.104 263.616 671.104 264.474C671.104 264.985 670.978 265.492 670.727 265.995C670.484 266.498 670.164 266.983 669.765 267.451C669.375 267.91 668.955 268.344 668.504 268.751C668.053 269.158 667.624 269.527 667.217 269.856H671.377V271H665.241Z" fill="#949494"/>
<path d="M300.07 271V263.46L298.601 263.798V262.784L300.616 261.9H301.5V271H300.07ZM306.989 271.156C306.165 271.156 305.455 270.961 304.857 270.571C304.267 270.172 303.812 269.622 303.492 268.92C303.18 268.209 303.024 267.386 303.024 266.45C303.024 265.514 303.18 264.695 303.492 263.993C303.812 263.282 304.267 262.732 304.857 262.342C305.455 261.943 306.165 261.744 306.989 261.744C307.812 261.744 308.518 261.943 309.108 262.342C309.697 262.732 310.148 263.282 310.46 263.993C310.78 264.695 310.941 265.514 310.941 266.45C310.941 267.386 310.78 268.209 310.46 268.92C310.148 269.622 309.697 270.172 309.108 270.571C308.518 270.961 307.812 271.156 306.989 271.156ZM306.989 269.921C307.483 269.921 307.92 269.782 308.302 269.505C308.692 269.228 308.995 268.829 309.212 268.309C309.428 267.789 309.537 267.169 309.537 266.45C309.537 265.731 309.428 265.111 309.212 264.591C308.995 264.071 308.692 263.672 308.302 263.395C307.92 263.118 307.483 262.979 306.989 262.979C306.486 262.979 306.044 263.118 305.663 263.395C305.281 263.672 304.982 264.071 304.766 264.591C304.549 265.111 304.441 265.731 304.441 266.45C304.441 267.169 304.549 267.789 304.766 268.309C304.982 268.829 305.281 269.228 305.663 269.505C306.044 269.782 306.486 269.921 306.989 269.921Z" fill="#949494"/>
<path d="M186.338 271.156C185.671 271.156 185.108 271.03 184.648 270.779C184.189 270.528 183.816 270.194 183.53 269.778C183.253 269.362 183.054 268.894 182.932 268.374C182.811 267.854 182.75 267.321 182.75 266.775C182.75 265.77 182.889 264.89 183.166 264.136C183.452 263.382 183.86 262.797 184.388 262.381C184.917 261.956 185.558 261.744 186.312 261.744C186.91 261.744 187.422 261.861 187.846 262.095C188.271 262.329 188.6 262.641 188.834 263.031C189.077 263.421 189.224 263.846 189.276 264.305H187.989C187.911 263.854 187.725 263.508 187.43 263.265C187.136 263.022 186.759 262.901 186.299 262.901C185.667 262.901 185.142 263.2 184.726 263.798C184.319 264.387 184.102 265.297 184.076 266.528C184.284 266.147 184.605 265.822 185.038 265.553C185.48 265.284 185.987 265.15 186.559 265.15C187.071 265.15 187.547 265.271 187.989 265.514C188.44 265.757 188.804 266.099 189.081 266.541C189.367 266.974 189.51 267.49 189.51 268.088C189.51 268.617 189.38 269.115 189.12 269.583C188.86 270.051 188.492 270.432 188.015 270.727C187.547 271.013 186.988 271.156 186.338 271.156ZM186.26 269.96C186.624 269.96 186.949 269.882 187.235 269.726C187.521 269.57 187.747 269.358 187.911 269.089C188.076 268.812 188.158 268.5 188.158 268.153C188.158 267.598 187.976 267.156 187.612 266.827C187.257 266.498 186.802 266.333 186.247 266.333C185.883 266.333 185.554 266.415 185.259 266.58C184.973 266.745 184.748 266.966 184.583 267.243C184.419 267.512 184.336 267.811 184.336 268.14C184.336 268.495 184.419 268.812 184.583 269.089C184.757 269.358 184.986 269.57 185.272 269.726C185.567 269.882 185.896 269.96 186.26 269.96Z" fill="#949494"/>
<path d="M126.201 271V269.18H121.638V268.088L125.98 261.9H127.566V267.984H128.84V269.18H127.566V271H126.201ZM123.133 267.984H126.279V263.421L123.133 267.984Z" fill="#949494"/>
<path d="M62.2025 271V270.012C62.7919 269.544 63.3552 269.072 63.8925 268.595C64.4299 268.118 64.9065 267.65 65.3225 267.191C65.7472 266.723 66.0809 266.268 66.3235 265.826C66.5662 265.375 66.6875 264.942 66.6875 264.526C66.6875 264.249 66.6399 263.989 66.5445 263.746C66.4492 263.495 66.2932 263.295 66.0765 263.148C65.8599 262.992 65.5695 262.914 65.2055 262.914C64.6595 262.914 64.2479 263.087 63.9705 263.434C63.7019 263.781 63.5719 264.197 63.5805 264.682H62.2415C62.2502 264.041 62.3845 263.503 62.6445 263.07C62.9132 262.637 63.2685 262.307 63.7105 262.082C64.1612 261.857 64.6682 261.744 65.2315 261.744C66.0895 261.744 66.7742 261.987 67.2855 262.472C67.8055 262.949 68.0655 263.616 68.0655 264.474C68.0655 264.985 67.9399 265.492 67.6885 265.995C67.4459 266.498 67.1252 266.983 66.7265 267.451C66.3365 267.91 65.9162 268.344 65.4655 268.751C65.0149 269.158 64.5859 269.527 64.1785 269.856H68.3385V271H62.2025Z" fill="#949494"/>
<path d="M5.18029 271.156C4.35696 271.156 3.64629 270.961 3.04829 270.571C2.45896 270.172 2.00396 269.622 1.68329 268.92C1.37129 268.209 1.21529 267.386 1.21529 266.45C1.21529 265.514 1.37129 264.695 1.68329 263.993C2.00396 263.282 2.45896 262.732 3.04829 262.342C3.64629 261.943 4.35696 261.744 5.18029 261.744C6.00363 261.744 6.70996 261.943 7.29929 262.342C7.88863 262.732 8.33929 263.282 8.65129 263.993C8.97196 264.695 9.13229 265.514 9.13229 266.45C9.13229 267.386 8.97196 268.209 8.65129 268.92C8.33929 269.622 7.88863 270.172 7.29929 270.571C6.70996 270.961 6.00363 271.156 5.18029 271.156ZM5.18029 269.921C5.67429 269.921 6.11196 269.782 6.49329 269.505C6.88329 269.228 7.18663 268.829 7.40329 268.309C7.61996 267.789 7.72829 267.169 7.72829 266.45C7.72829 265.731 7.61996 265.111 7.40329 264.591C7.18663 264.071 6.88329 263.672 6.49329 263.395C6.11196 263.118 5.67429 262.979 5.18029 262.979C4.67763 262.979 4.23563 263.118 3.85429 263.395C3.47296 263.672 3.17396 264.071 2.95729 264.591C2.74063 265.111 2.63229 265.731 2.63229 266.45C2.63229 267.169 2.74063 267.789 2.95729 268.309C3.17396 268.829 3.47296 269.228 3.85429 269.505C4.23563 269.782 4.67763 269.921 5.18029 269.921Z" fill="#949494"/>
<path d="M245.18 271.156C244.574 271.156 244.023 271.048 243.529 270.831C243.044 270.606 242.654 270.294 242.359 269.895C242.073 269.496 241.93 269.028 241.93 268.491C241.93 267.945 242.082 267.455 242.385 267.022C242.697 266.589 243.109 266.294 243.62 266.138C243.161 265.956 242.806 265.692 242.554 265.345C242.303 264.99 242.177 264.6 242.177 264.175C242.177 263.733 242.294 263.33 242.528 262.966C242.762 262.593 243.1 262.299 243.542 262.082C243.993 261.857 244.539 261.744 245.18 261.744C245.822 261.744 246.363 261.857 246.805 262.082C247.256 262.299 247.598 262.593 247.832 262.966C248.066 263.33 248.183 263.733 248.183 264.175C248.183 264.591 248.053 264.981 247.793 265.345C247.542 265.7 247.187 265.965 246.727 266.138C247.239 266.303 247.646 266.602 247.949 267.035C248.261 267.46 248.417 267.945 248.417 268.491C248.417 269.028 248.274 269.496 247.988 269.895C247.702 270.294 247.312 270.606 246.818 270.831C246.333 271.048 245.787 271.156 245.18 271.156ZM245.18 265.696C245.683 265.696 246.077 265.566 246.363 265.306C246.658 265.046 246.805 264.712 246.805 264.305C246.805 263.846 246.662 263.495 246.376 263.252C246.09 263.009 245.692 262.888 245.18 262.888C244.669 262.888 244.27 263.009 243.984 263.252C243.698 263.495 243.555 263.846 243.555 264.305C243.555 264.712 243.698 265.046 243.984 265.306C244.27 265.566 244.669 265.696 245.18 265.696ZM245.18 269.986C245.804 269.986 246.272 269.839 246.584 269.544C246.896 269.241 247.052 268.855 247.052 268.387C247.052 267.867 246.883 267.468 246.545 267.191C246.216 266.905 245.761 266.762 245.18 266.762C244.6 266.762 244.14 266.905 243.802 267.191C243.464 267.468 243.295 267.867 243.295 268.387C243.295 268.855 243.451 269.241 243.763 269.544C244.084 269.839 244.556 269.986 245.18 269.986Z" fill="#949494"/>
<path d="M6 249.5H185.5L249 123.5L274 49.5L368 20L399 119L427.5 26L452.5 20L477.5 26L541.5 106L605.5 179.5L637.5 234.5L666 244L696 249.5H726" stroke="#6E73EE" stroke-width="2" stroke-linecap="round" stroke-linejoin="round"/>
<circle cx="185" cy="250" r="3.5" fill="#6E73EE" stroke="white"/>
<circle cx="249" cy="124" r="3.5" fill="#6E73EE" stroke="white"/>
<circle cx="274" cy="49" r="3.5" fill="#6E73EE" stroke="white"/>
<circle cx="367" cy="20" r="3.5" fill="#6E73EE" stroke="white"/>
<circle cx="429" cy="27" r="3.5" fill="#6E73EE" stroke="white"/>
<circle cx="451" cy="20" r="3.5" fill="#6E73EE" stroke="white"/>
<circle cx="481" cy="28" r="3.5" fill="#6E73EE" stroke="white"/>
<circle cx="605" cy="179" r="3.5" fill="#6E73EE" stroke="white"/>
<circle cx="635" cy="234" r="3.5" fill="#6E73EE" stroke="white"/>
<circle cx="695" cy="249" r="3.5" fill="#6E73EE" stroke="white"/>
<circle cx="666" cy="243" r="3.5" fill="#6E73EE" stroke="white"/>
<circle cx="399" cy="118" r="3.5" fill="#6E73EE" stroke="white"/>
<path d="M6 250H185.5L249 197.843L274 167.211L368 155L397.5 229L425.5 239L455 202.5H484.5L546.5 229L605.5 221.024H609.5L637.5 250H696H726" stroke="#27A574" stroke-width="2" stroke-linecap="round" stroke-linejoin="round"/>
<circle cx="185" cy="250" r="3.5" fill="#27A574" stroke="white"/>
<circle cx="274" cy="167" r="3.5" fill="#27A574" stroke="white"/>
<circle cx="249" cy="198" r="3.5" fill="#27A574" stroke="white"/>
<circle cx="369" cy="154" r="3.5" fill="#27A574" stroke="white"/>
<circle cx="425" cy="238" r="3.5" fill="#27A574" stroke="white"/>
<circle cx="455" cy="203" r="3.5" fill="#27A574" stroke="white"/>
<circle cx="487" cy="203" r="3.5" fill="#27A574" stroke="white"/>
<circle cx="547" cy="227" r="3.5" fill="#27A574" stroke="white"/>
<circle cx="609" cy="220" r="3.5" fill="#27A574" stroke="white"/>
<circle cx="639" cy="250" r="3.5" fill="#27A574" stroke="white"/>
<circle cx="396" cy="227" r="3.5" fill="#27A574" stroke="white"/>
</svg>
