<svg width="88" height="104" viewBox="0 0 88 104" fill="none" xmlns="http://www.w3.org/2000/svg">
<path d="M1.25113 98V88.9H2.62913V92.8H7.03613V88.9H8.41413V98H7.03613V93.931H2.62913V98H1.25113ZM12.5918 98.156C11.8118 98.156 11.1965 97.9133 10.7458 97.428C10.3038 96.9427 10.0828 96.219 10.0828 95.257V91.552H11.4608V95.114C11.4608 96.362 11.9721 96.986 12.9948 96.986C13.5061 96.986 13.9265 96.804 14.2558 96.44C14.5851 96.076 14.7498 95.556 14.7498 94.88V91.552H16.1278V98H14.9058L14.8018 96.869C14.6025 97.2677 14.3078 97.584 13.9178 97.818C13.5365 98.0433 13.0945 98.156 12.5918 98.156ZM17.8808 98V91.552H19.1028L19.2198 92.462C19.4278 92.1327 19.7008 91.8727 20.0388 91.682C20.3854 91.4913 20.7841 91.396 21.2348 91.396C22.2574 91.396 22.9681 91.799 23.3668 92.605C23.6008 92.2323 23.9128 91.9377 24.3028 91.721C24.7014 91.5043 25.1304 91.396 25.5898 91.396C26.3958 91.396 27.0284 91.6387 27.4878 92.124C27.9471 92.6093 28.1768 93.333 28.1768 94.295V98H26.7988V94.438C26.7988 93.19 26.3221 92.566 25.3688 92.566C24.8834 92.566 24.4848 92.748 24.1728 93.112C23.8694 93.476 23.7178 93.996 23.7178 94.672V98H22.3398V94.438C22.3398 93.19 21.8588 92.566 20.8968 92.566C20.4201 92.566 20.0258 92.748 19.7138 93.112C19.4104 93.476 19.2588 93.996 19.2588 94.672V98H17.8808ZM30.569 90.33C30.309 90.33 30.0923 90.252 29.919 90.096C29.7543 89.9313 29.672 89.7277 29.672 89.485C29.672 89.2423 29.7543 89.043 29.919 88.887C30.0923 88.7223 30.309 88.64 30.569 88.64C30.829 88.64 31.0413 88.7223 31.206 88.887C31.3793 89.043 31.466 89.2423 31.466 89.485C31.466 89.7277 31.3793 89.9313 31.206 90.096C31.0413 90.252 30.829 90.33 30.569 90.33ZM29.88 98V91.552H31.258V98H29.88ZM36.0151 98.156C35.3911 98.156 34.8407 98.0087 34.3641 97.714C33.8874 97.4193 33.5147 97.0163 33.2461 96.505C32.9774 95.9937 32.8431 95.413 32.8431 94.763C32.8431 94.113 32.9774 93.5367 33.2461 93.034C33.5147 92.5227 33.8874 92.124 34.3641 91.838C34.8494 91.5433 35.4041 91.396 36.0281 91.396C36.5394 91.396 36.9857 91.4957 37.3671 91.695C37.7571 91.8943 38.0604 92.176 38.2771 92.54V88.64H39.6551V98H38.4201L38.2771 96.999C38.0691 97.3023 37.7831 97.571 37.4191 97.805C37.0551 98.039 36.5871 98.156 36.0151 98.156ZM36.2621 96.96C36.8514 96.96 37.3324 96.7563 37.7051 96.349C38.0864 95.9417 38.2771 95.4173 38.2771 94.776C38.2771 94.126 38.0864 93.6017 37.7051 93.203C37.3324 92.7957 36.8514 92.592 36.2621 92.592C35.6727 92.592 35.1874 92.7957 34.8061 93.203C34.4247 93.6017 34.2341 94.126 34.2341 94.776C34.2341 95.2007 34.3207 95.5777 34.4941 95.907C34.6674 96.2363 34.9057 96.4963 35.2091 96.687C35.5211 96.869 35.8721 96.96 36.2621 96.96ZM42.1725 90.33C41.9125 90.33 41.6958 90.252 41.5225 90.096C41.3578 89.9313 41.2755 89.7277 41.2755 89.485C41.2755 89.2423 41.3578 89.043 41.5225 88.887C41.6958 88.7223 41.9125 88.64 42.1725 88.64C42.4325 88.64 42.6448 88.7223 42.8095 88.887C42.9828 89.043 43.0695 89.2423 43.0695 89.485C43.0695 89.7277 42.9828 89.9313 42.8095 90.096C42.6448 90.252 42.4325 90.33 42.1725 90.33ZM41.4835 98V91.552H42.8615V98H41.4835ZM47.3846 98C46.7519 98 46.2492 97.8483 45.8766 97.545C45.5039 97.233 45.3176 96.6827 45.3176 95.894V92.709H44.2126V91.552H45.3176L45.4866 89.914H46.6956V91.552H48.5156V92.709H46.6956V95.894C46.6956 96.2493 46.7692 96.4963 46.9166 96.635C47.0726 96.765 47.3369 96.83 47.7096 96.83H48.4506V98H47.3846ZM50.6904 100.86L52.2374 97.467H51.8604L49.3124 91.552H50.8074L52.7834 96.323L54.8504 91.552H56.3064L52.1464 100.86H50.6904ZM60.7148 98V88.64H62.0928V98H60.7148ZM66.8538 98.156C66.2211 98.156 65.6578 98.0173 65.1638 97.74C64.6785 97.454 64.2971 97.0597 64.0198 96.557C63.7425 96.0543 63.6038 95.4693 63.6038 94.802C63.6038 94.126 63.7381 93.5323 64.0068 93.021C64.2841 92.5097 64.6655 92.111 65.1508 91.825C65.6448 91.539 66.2168 91.396 66.8668 91.396C67.4995 91.396 68.0498 91.539 68.5178 91.825C68.9858 92.1023 69.3498 92.475 69.6098 92.943C69.8698 93.411 69.9998 93.9267 69.9998 94.49C69.9998 94.5767 69.9955 94.672 69.9868 94.776C69.9868 94.8713 69.9825 94.9797 69.9738 95.101H64.9558C64.9991 95.725 65.2028 96.2017 65.5668 96.531C65.9395 96.8517 66.3685 97.012 66.8538 97.012C67.2438 97.012 67.5688 96.9253 67.8288 96.752C68.0975 96.57 68.2968 96.3273 68.4268 96.024H69.8048C69.6315 96.6307 69.2848 97.1377 68.7648 97.545C68.2535 97.9523 67.6165 98.156 66.8538 98.156ZM66.8538 92.527C66.3945 92.527 65.9871 92.6657 65.6318 92.943C65.2765 93.2117 65.0598 93.619 64.9818 94.165H68.6218C68.5958 93.6623 68.4181 93.2637 68.0888 92.969C67.7595 92.6743 67.3478 92.527 66.8538 92.527ZM72.9827 98L70.5647 91.552H72.0077L73.8017 96.687L75.5957 91.552H77.0257L74.6207 98H72.9827ZM80.844 98.156C80.2114 98.156 79.648 98.0173 79.154 97.74C78.6687 97.454 78.2874 97.0597 78.01 96.557C77.7327 96.0543 77.594 95.4693 77.594 94.802C77.594 94.126 77.7284 93.5323 77.997 93.021C78.2744 92.5097 78.6557 92.111 79.141 91.825C79.635 91.539 80.207 91.396 80.857 91.396C81.4897 91.396 82.04 91.539 82.508 91.825C82.976 92.1023 83.34 92.475 83.6 92.943C83.86 93.411 83.99 93.9267 83.99 94.49C83.99 94.5767 83.9857 94.672 83.977 94.776C83.977 94.8713 83.9727 94.9797 83.964 95.101H78.946C78.9894 95.725 79.193 96.2017 79.557 96.531C79.9297 96.8517 80.3587 97.012 80.844 97.012C81.234 97.012 81.559 96.9253 81.819 96.752C82.0877 96.57 82.287 96.3273 82.417 96.024H83.795C83.6217 96.6307 83.275 97.1377 82.755 97.545C82.2437 97.9523 81.6067 98.156 80.844 98.156ZM80.844 92.527C80.3847 92.527 79.9774 92.6657 79.622 92.943C79.2667 93.2117 79.05 93.619 78.972 94.165H82.612C82.586 93.6623 82.4084 93.2637 82.079 92.969C81.7497 92.6743 81.338 92.527 80.844 92.527ZM85.4198 98V88.64H86.7978V98H85.4198Z" fill="#949494"/>
<path d="M32.0964 44.216C31.1724 44.216 30.3924 44.042 29.7564 43.694C29.1204 43.346 28.6044 42.884 28.2084 42.308C27.8244 41.732 27.5484 41.084 27.3804 40.364C27.2124 39.644 27.1284 38.906 27.1284 38.15C27.1284 36.758 27.3204 35.54 27.7044 34.496C28.1004 33.452 28.6644 32.642 29.3964 32.066C30.1284 31.478 31.0164 31.184 32.0604 31.184C32.8884 31.184 33.5964 31.346 34.1844 31.67C34.7724 31.994 35.2284 32.426 35.5524 32.966C35.8884 33.506 36.0924 34.094 36.1644 34.73H34.3824C34.2744 34.106 34.0164 33.626 33.6084 33.29C33.2004 32.954 32.6784 32.786 32.0424 32.786C31.1664 32.786 30.4404 33.2 29.8644 34.028C29.3004 34.844 29.0004 36.104 28.9644 37.808C29.2524 37.28 29.6964 36.83 30.2964 36.458C30.9084 36.086 31.6104 35.9 32.4024 35.9C33.1104 35.9 33.7704 36.068 34.3824 36.404C35.0064 36.74 35.5104 37.214 35.8944 37.826C36.2904 38.426 36.4884 39.14 36.4884 39.968C36.4884 40.7 36.3084 41.39 35.9484 42.038C35.5884 42.686 35.0784 43.214 34.4184 43.622C33.7704 44.018 32.9964 44.216 32.0964 44.216ZM31.9884 42.56C32.4924 42.56 32.9424 42.452 33.3384 42.236C33.7344 42.02 34.0464 41.726 34.2744 41.354C34.5024 40.97 34.6164 40.538 34.6164 40.058C34.6164 39.29 34.3644 38.678 33.8604 38.222C33.3684 37.766 32.7384 37.538 31.9704 37.538C31.4664 37.538 31.0104 37.652 30.6024 37.88C30.2064 38.108 29.8944 38.414 29.6664 38.798C29.4384 39.17 29.3244 39.584 29.3244 40.04C29.3244 40.532 29.4384 40.97 29.6664 41.354C29.9064 41.726 30.2244 42.02 30.6204 42.236C31.0284 42.452 31.4844 42.56 31.9884 42.56ZM42.8754 44.216C42.0594 44.216 41.3154 44.072 40.6434 43.784C39.9834 43.484 39.4554 43.034 39.0594 42.434C38.6634 41.834 38.4534 41.084 38.4294 40.184H40.3194C40.3434 40.856 40.5714 41.426 41.0034 41.894C41.4474 42.35 42.0714 42.578 42.8754 42.578C43.6434 42.578 44.2314 42.368 44.6394 41.948C45.0474 41.516 45.2514 40.982 45.2514 40.346C45.2514 39.578 44.9754 39.008 44.4234 38.636C43.8834 38.264 43.2174 38.078 42.4254 38.078H41.4894V36.494H42.4434C43.1514 36.494 43.7214 36.326 44.1534 35.99C44.5974 35.654 44.8194 35.18 44.8194 34.568C44.8194 34.052 44.6454 33.632 44.2974 33.308C43.9614 32.984 43.4814 32.822 42.8574 32.822C42.2094 32.822 41.6994 33.014 41.3274 33.398C40.9554 33.77 40.7514 34.238 40.7154 34.802H38.8254C38.8494 34.07 39.0294 33.434 39.3654 32.894C39.7134 32.354 40.1874 31.934 40.7874 31.634C41.3874 31.334 42.0774 31.184 42.8574 31.184C43.6974 31.184 44.3994 31.334 44.9634 31.634C45.5394 31.922 45.9714 32.318 46.2594 32.822C46.5594 33.314 46.7094 33.854 46.7094 34.442C46.7094 35.114 46.5234 35.702 46.1514 36.206C45.7794 36.71 45.2814 37.046 44.6574 37.214C45.3774 37.37 45.9714 37.724 46.4394 38.276C46.9074 38.816 47.1414 39.518 47.1414 40.382C47.1414 41.078 46.9794 41.72 46.6554 42.308C46.3314 42.884 45.8514 43.346 45.2154 43.694C44.5794 44.042 43.7994 44.216 42.8754 44.216ZM51.6973 37.412C51.1333 37.412 50.6233 37.286 50.1673 37.034C49.7233 36.782 49.3693 36.428 49.1053 35.972C48.8413 35.504 48.7093 34.946 48.7093 34.298C48.7093 33.662 48.8413 33.116 49.1053 32.66C49.3693 32.192 49.7293 31.832 50.1853 31.58C50.6413 31.328 51.1513 31.202 51.7153 31.202C52.2673 31.202 52.7653 31.328 53.2093 31.58C53.6653 31.832 54.0253 32.192 54.2893 32.66C54.5533 33.116 54.6853 33.662 54.6853 34.298C54.6853 34.946 54.5533 35.504 54.2893 35.972C54.0253 36.428 53.6653 36.782 53.2093 37.034C52.7653 37.286 52.2613 37.412 51.6973 37.412ZM50.7973 44L58.0153 31.4H59.8873L52.6873 44H50.7973ZM51.6973 36.044C52.0813 36.044 52.4113 35.9 52.6873 35.612C52.9753 35.312 53.1193 34.874 53.1193 34.298C53.1193 33.722 52.9813 33.29 52.7053 33.002C52.4293 32.702 52.0933 32.552 51.6973 32.552C51.3133 32.552 50.9773 32.702 50.6893 33.002C50.4013 33.29 50.2573 33.722 50.2573 34.298C50.2573 34.874 50.3953 35.312 50.6713 35.612C50.9593 35.9 51.3013 36.044 51.6973 36.044ZM59.0953 44.216C58.5313 44.216 58.0213 44.09 57.5653 43.838C57.1213 43.586 56.7673 43.232 56.5033 42.776C56.2393 42.308 56.1073 41.75 56.1073 41.102C56.1073 40.466 56.2393 39.914 56.5033 39.446C56.7673 38.978 57.1273 38.618 57.5833 38.366C58.0393 38.114 58.5493 37.988 59.1133 37.988C59.6653 37.988 60.1633 38.114 60.6073 38.366C61.0633 38.618 61.4233 38.978 61.6873 39.446C61.9513 39.914 62.0833 40.466 62.0833 41.102C62.0833 41.75 61.9513 42.308 61.6873 42.776C61.4233 43.232 61.0633 43.586 60.6073 43.838C60.1633 44.09 59.6593 44.216 59.0953 44.216ZM59.0953 42.83C59.4793 42.83 59.8093 42.686 60.0853 42.398C60.3733 42.11 60.5173 41.678 60.5173 41.102C60.5173 40.526 60.3793 40.094 60.1033 39.806C59.8273 39.506 59.4913 39.356 59.0953 39.356C58.7113 39.356 58.3753 39.506 58.0873 39.806C57.7993 40.094 57.6553 40.526 57.6553 41.102C57.6553 41.678 57.7933 42.11 58.0693 42.398C58.3573 42.686 58.6993 42.83 59.0953 42.83Z" fill="#3D3D3D"/>
<path d="M84 40C84 62.0914 66.0914 80 44 80C21.9086 80 4 62.0914 4 40C4 17.9086 21.9086 0 44 0C66.0914 0 84 17.9086 84 40ZM12 40C12 57.6731 26.3269 72 44 72C61.6731 72 76 57.6731 76 40C76 22.3269 61.6731 8 44 8C26.3269 8 12 22.3269 12 40Z" fill="#F1F1F1"/>
<path d="M44 4C49.9681 4 55.8425 5.48374 61.0948 8.31772C66.3471 11.1517 70.8125 15.247 74.0891 20.2352C77.3657 25.2233 79.3508 30.9479 79.8657 36.8937C80.3807 42.8395 79.4094 48.8201 77.0392 54.2973C74.669 59.7746 70.9742 64.5766 66.2874 68.2714C61.6006 71.9662 56.0687 74.4378 50.1895 75.4639C44.3102 76.49 38.2682 76.0384 32.6068 74.1496C26.9455 72.2609 21.8426 68.9942 17.7571 64.6437" stroke="#22E0E0" stroke-width="8" stroke-linecap="round"/>
</svg>
