<svg width="121" height="108" viewBox="0 0 121 108" fill="none" xmlns="http://www.w3.org/2000/svg">
<path d="M31.16 48L36.038 37.038H29.486V35.4H38V36.786L33.158 48H31.16ZM44.7575 48.216C43.6175 48.216 42.6335 47.946 41.8055 47.406C40.9895 46.854 40.3595 46.092 39.9155 45.12C39.4835 44.136 39.2675 42.996 39.2675 41.7C39.2675 40.404 39.4835 39.27 39.9155 38.298C40.3595 37.314 40.9895 36.552 41.8055 36.012C42.6335 35.46 43.6175 35.184 44.7575 35.184C45.8975 35.184 46.8755 35.46 47.6915 36.012C48.5075 36.552 49.1315 37.314 49.5635 38.298C50.0075 39.27 50.2295 40.404 50.2295 41.7C50.2295 42.996 50.0075 44.136 49.5635 45.12C49.1315 46.092 48.5075 46.854 47.6915 47.406C46.8755 47.946 45.8975 48.216 44.7575 48.216ZM44.7575 46.506C45.4415 46.506 46.0475 46.314 46.5755 45.93C47.1155 45.546 47.5355 44.994 47.8355 44.274C48.1355 43.554 48.2855 42.696 48.2855 41.7C48.2855 40.704 48.1355 39.846 47.8355 39.126C47.5355 38.406 47.1155 37.854 46.5755 37.47C46.0475 37.086 45.4415 36.894 44.7575 36.894C44.0615 36.894 43.4495 37.086 42.9215 37.47C42.3935 37.854 41.9795 38.406 41.6795 39.126C41.3795 39.846 41.2295 40.704 41.2295 41.7C41.2295 42.696 41.3795 43.554 41.6795 44.274C41.9795 44.994 42.3935 45.546 42.9215 45.93C43.4495 46.314 44.0615 46.506 44.7575 46.506ZM57.3961 48.216C56.2561 48.216 55.2721 47.946 54.4441 47.406C53.6281 46.854 52.9981 46.092 52.5541 45.12C52.1221 44.136 51.9061 42.996 51.9061 41.7C51.9061 40.404 52.1221 39.27 52.5541 38.298C52.9981 37.314 53.6281 36.552 54.4441 36.012C55.2721 35.46 56.2561 35.184 57.3961 35.184C58.5361 35.184 59.5141 35.46 60.3301 36.012C61.1461 36.552 61.7701 37.314 62.2021 38.298C62.6461 39.27 62.8681 40.404 62.8681 41.7C62.8681 42.996 62.6461 44.136 62.2021 45.12C61.7701 46.092 61.1461 46.854 60.3301 47.406C59.5141 47.946 58.5361 48.216 57.3961 48.216ZM57.3961 46.506C58.0801 46.506 58.6861 46.314 59.2141 45.93C59.7541 45.546 60.1741 44.994 60.4741 44.274C60.7741 43.554 60.9241 42.696 60.9241 41.7C60.9241 40.704 60.7741 39.846 60.4741 39.126C60.1741 38.406 59.7541 37.854 59.2141 37.47C58.6861 37.086 58.0801 36.894 57.3961 36.894C56.7001 36.894 56.0881 37.086 55.5601 37.47C55.0321 37.854 54.6181 38.406 54.3181 39.126C54.0181 39.846 53.8681 40.704 53.8681 41.7C53.8681 42.696 54.0181 43.554 54.3181 44.274C54.6181 44.994 55.0321 45.546 55.5601 45.93C56.0881 46.314 56.7001 46.506 57.3961 46.506ZM68.788 49.76V44.032H69.548L69.636 44.648C69.764 44.4613 69.94 44.296 70.164 44.152C70.388 44.008 70.676 43.936 71.028 43.936C71.412 43.936 71.7506 44.0267 72.044 44.208C72.3373 44.3893 72.5666 44.6373 72.732 44.952C72.9026 45.2667 72.988 45.624 72.988 46.024C72.988 46.424 72.9026 46.7813 72.732 47.096C72.5666 47.4053 72.3373 47.6507 72.044 47.832C71.7506 48.008 71.4093 48.096 71.02 48.096C70.7106 48.096 70.436 48.0347 70.196 47.912C69.9613 47.7893 69.7746 47.616 69.636 47.392V49.76H68.788ZM70.876 47.36C71.2386 47.36 71.5373 47.2373 71.772 46.992C72.0066 46.7413 72.124 46.416 72.124 46.016C72.124 45.7547 72.0706 45.5227 71.964 45.32C71.8573 45.1173 71.7106 44.96 71.524 44.848C71.3373 44.7307 71.1213 44.672 70.876 44.672C70.5133 44.672 70.2146 44.7973 69.98 45.048C69.7506 45.2987 69.636 45.6213 69.636 46.016C69.636 46.416 69.7506 46.7413 69.98 46.992C70.2146 47.2373 70.5133 47.36 70.876 47.36ZM73.9051 49.76V44.032H74.6651L74.7531 44.648C74.8811 44.4613 75.0571 44.296 75.2811 44.152C75.5051 44.008 75.7931 43.936 76.1451 43.936C76.5291 43.936 76.8678 44.0267 77.1611 44.208C77.4545 44.3893 77.6838 44.6373 77.8491 44.952C78.0198 45.2667 78.1051 45.624 78.1051 46.024C78.1051 46.424 78.0198 46.7813 77.8491 47.096C77.6838 47.4053 77.4545 47.6507 77.1611 47.832C76.8678 48.008 76.5265 48.096 76.1371 48.096C75.8278 48.096 75.5531 48.0347 75.3131 47.912C75.0785 47.7893 74.8918 47.616 74.7531 47.392V49.76H73.9051ZM75.9931 47.36C76.3558 47.36 76.6545 47.2373 76.8891 46.992C77.1238 46.7413 77.2411 46.416 77.2411 46.016C77.2411 45.7547 77.1878 45.5227 77.0811 45.32C76.9745 45.1173 76.8278 44.96 76.6411 44.848C76.4545 44.7307 76.2385 44.672 75.9931 44.672C75.6305 44.672 75.3318 44.7973 75.0971 45.048C74.8678 45.2987 74.7531 45.6213 74.7531 46.016C74.7531 46.416 74.8678 46.7413 75.0971 46.992C75.3318 47.2373 75.6305 47.36 75.9931 47.36ZM79.0223 48V44.032H79.7743L79.8463 44.592C79.9743 44.3893 80.1423 44.2293 80.3503 44.112C80.5637 43.9947 80.809 43.936 81.0863 43.936C81.7157 43.936 82.153 44.184 82.3983 44.68C82.5423 44.4507 82.7343 44.2693 82.9743 44.136C83.2197 44.0027 83.4837 43.936 83.7663 43.936C84.2623 43.936 84.6517 44.0853 84.9343 44.384C85.217 44.6827 85.3583 45.128 85.3583 45.72V48H84.5103V45.808C84.5103 45.04 84.217 44.656 83.6303 44.656C83.3317 44.656 83.0863 44.768 82.8943 44.992C82.7077 45.216 82.6143 45.536 82.6143 45.952V48H81.7663V45.808C81.7663 45.04 81.4703 44.656 80.8783 44.656C80.585 44.656 80.3423 44.768 80.1503 44.992C79.9637 45.216 79.8703 45.536 79.8703 45.952V48H79.0223Z" fill="#3D3D3D"/>
<path d="M4.858 77.168C3.99 77.168 3.23867 76.958 2.604 76.538C1.97867 76.1087 1.498 75.516 1.162 74.76C0.826 73.9947 0.658 73.108 0.658 72.1C0.658 71.092 0.826 70.21 1.162 69.454C1.498 68.6887 1.97867 68.096 2.604 67.676C3.23867 67.2467 3.99 67.032 4.858 67.032C5.726 67.032 6.47267 67.2467 7.098 67.676C7.72333 68.096 8.204 68.6887 8.54 69.454C8.876 70.21 9.044 71.092 9.044 72.1C9.044 73.108 8.876 73.9947 8.54 74.76C8.204 75.516 7.72333 76.1087 7.098 76.538C6.47267 76.958 5.726 77.168 4.858 77.168ZM4.858 76.132C5.42733 76.132 5.936 75.9733 6.384 75.656C6.84133 75.3293 7.196 74.8673 7.448 74.27C7.70933 73.6633 7.84 72.94 7.84 72.1C7.84 71.26 7.70933 70.5413 7.448 69.944C7.196 69.3467 6.84133 68.8893 6.384 68.572C5.936 68.2453 5.42733 68.082 4.858 68.082C4.27933 68.082 3.766 68.2453 3.318 68.572C2.87 68.8893 2.51533 69.3467 2.254 69.944C1.99267 70.5413 1.862 71.26 1.862 72.1C1.862 72.94 1.99267 73.6633 2.254 74.27C2.51533 74.8673 2.87 75.3293 3.318 75.656C3.766 75.9733 4.27933 76.132 4.858 76.132Z" fill="#3D3D3D"/>
<path d="M88.002 77V68.516L86.42 68.866V68.054L88.394 67.2H89.192V77H88.002ZM91.5966 77.07C91.3633 77.07 91.1673 76.9953 91.0086 76.846C90.8593 76.6873 90.7846 76.496 90.7846 76.272C90.7846 76.048 90.8593 75.8613 91.0086 75.712C91.1673 75.5533 91.3633 75.474 91.5966 75.474C91.8206 75.474 92.0073 75.5533 92.1566 75.712C92.3153 75.8613 92.3946 76.048 92.3946 76.272C92.3946 76.496 92.3153 76.6873 92.1566 76.846C92.0073 76.9953 91.8206 77.07 91.5966 77.07ZM97.327 77.168C96.655 77.168 96.0717 77.0467 95.577 76.804C95.0823 76.5613 94.6857 76.23 94.387 75.81C94.0977 75.3807 93.9203 74.8953 93.855 74.354H95.003C95.115 74.8953 95.3763 75.334 95.787 75.67C96.1977 75.9967 96.7157 76.16 97.341 76.16C97.8077 76.16 98.209 76.0527 98.545 75.838C98.881 75.614 99.1377 75.3153 99.315 74.942C99.5017 74.5687 99.595 74.1533 99.595 73.696C99.595 72.968 99.3897 72.38 98.979 71.932C98.5683 71.484 98.0363 71.26 97.383 71.26C96.8417 71.26 96.3797 71.3813 95.997 71.624C95.6143 71.8667 95.3343 72.184 95.157 72.576H94.037L94.877 67.2H100.015V68.222H95.787L95.213 71.204C95.437 70.9333 95.745 70.7093 96.137 70.532C96.5383 70.3547 96.9957 70.266 97.509 70.266C98.153 70.266 98.713 70.4153 99.189 70.714C99.6743 71.0127 100.052 71.4187 100.323 71.932C100.594 72.4453 100.729 73.0287 100.729 73.682C100.729 74.3073 100.594 74.886 100.323 75.418C100.062 75.95 99.6743 76.3747 99.161 76.692C98.657 77.0093 98.0457 77.168 97.327 77.168ZM106.389 77.168C105.521 77.168 104.77 76.958 104.135 76.538C103.51 76.1087 103.029 75.516 102.693 74.76C102.357 73.9947 102.189 73.108 102.189 72.1C102.189 71.092 102.357 70.21 102.693 69.454C103.029 68.6887 103.51 68.096 104.135 67.676C104.77 67.2467 105.521 67.032 106.389 67.032C107.257 67.032 108.004 67.2467 108.629 67.676C109.255 68.096 109.735 68.6887 110.071 69.454C110.407 70.21 110.575 71.092 110.575 72.1C110.575 73.108 110.407 73.9947 110.071 74.76C109.735 75.516 109.255 76.1087 108.629 76.538C108.004 76.958 107.257 77.168 106.389 77.168ZM106.389 76.132C106.959 76.132 107.467 75.9733 107.915 75.656C108.373 75.3293 108.727 74.8673 108.979 74.27C109.241 73.6633 109.371 72.94 109.371 72.1C109.371 71.26 109.241 70.5413 108.979 69.944C108.727 69.3467 108.373 68.8893 107.915 68.572C107.467 68.2453 106.959 68.082 106.389 68.082C105.811 68.082 105.297 68.2453 104.849 68.572C104.401 68.8893 104.047 69.3467 103.785 69.944C103.524 70.5413 103.393 71.26 103.393 72.1C103.393 72.94 103.524 73.6633 103.785 74.27C104.047 74.8673 104.401 75.3293 104.849 75.656C105.297 75.9733 105.811 76.132 106.389 76.132ZM116.096 77.168C115.228 77.168 114.477 76.958 113.842 76.538C113.217 76.1087 112.736 75.516 112.4 74.76C112.064 73.9947 111.896 73.108 111.896 72.1C111.896 71.092 112.064 70.21 112.4 69.454C112.736 68.6887 113.217 68.096 113.842 67.676C114.477 67.2467 115.228 67.032 116.096 67.032C116.964 67.032 117.711 67.2467 118.336 67.676C118.962 68.096 119.442 68.6887 119.778 69.454C120.114 70.21 120.282 71.092 120.282 72.1C120.282 73.108 120.114 73.9947 119.778 74.76C119.442 75.516 118.962 76.1087 118.336 76.538C117.711 76.958 116.964 77.168 116.096 77.168ZM116.096 76.132C116.666 76.132 117.174 75.9733 117.622 75.656C118.08 75.3293 118.434 74.8673 118.686 74.27C118.948 73.6633 119.078 72.94 119.078 72.1C119.078 71.26 118.948 70.5413 118.686 69.944C118.434 69.3467 118.08 68.8893 117.622 68.572C117.174 68.2453 116.666 68.082 116.096 68.082C115.518 68.082 115.004 68.2453 114.556 68.572C114.108 68.8893 113.754 69.3467 113.492 69.944C113.231 70.5413 113.1 71.26 113.1 72.1C113.1 72.94 113.231 73.6633 113.492 74.27C113.754 74.8673 114.108 75.3293 114.556 75.656C115.004 75.9733 115.518 76.132 116.096 76.132Z" fill="#3D3D3D"/>
<path d="M33.4321 102.156C32.5308 102.156 31.7508 101.961 31.0921 101.571C30.4421 101.172 29.9395 100.622 29.5841 99.92C29.2288 99.2093 29.0511 98.3903 29.0511 97.463C29.0511 96.527 29.2288 95.708 29.5841 95.006C29.9395 94.2953 30.4421 93.7407 31.0921 93.342C31.7508 92.9433 32.5308 92.744 33.4321 92.744C34.4981 92.744 35.3691 93.004 36.0451 93.524C36.7211 94.044 37.1501 94.772 37.3321 95.708H35.7981C35.6768 95.1793 35.4168 94.759 35.0181 94.447C34.6195 94.135 34.0865 93.979 33.4191 93.979C32.5091 93.979 31.7898 94.291 31.2611 94.915C30.7325 95.5303 30.4681 96.3797 30.4681 97.463C30.4681 98.5377 30.7325 99.3827 31.2611 99.998C31.7898 100.613 32.5091 100.921 33.4191 100.921C34.0865 100.921 34.6195 100.774 35.0181 100.479C35.4168 100.184 35.6768 99.7813 35.7981 99.27H37.3321C37.1501 100.171 36.7211 100.878 36.0451 101.389C35.3691 101.9 34.4981 102.156 33.4321 102.156ZM43.0458 102.156C42.1445 102.156 41.3558 101.957 40.6798 101.558C40.0038 101.159 39.4752 100.609 39.0938 99.907C38.7125 99.1963 38.5218 98.3773 38.5218 97.45C38.5218 96.5227 38.7125 95.708 39.0938 95.006C39.4752 94.2953 40.0038 93.7407 40.6798 93.342C41.3558 92.9433 42.1445 92.744 43.0458 92.744C43.9472 92.744 44.7358 92.9433 45.4118 93.342C46.0878 93.7407 46.6122 94.2953 46.9848 95.006C47.3662 95.708 47.5568 96.5227 47.5568 97.45C47.5568 98.3773 47.3662 99.1963 46.9848 99.907C46.6122 100.609 46.0878 101.159 45.4118 101.558C44.7358 101.957 43.9472 102.156 43.0458 102.156ZM43.0458 100.921C43.6698 100.921 44.2115 100.782 44.6708 100.505C45.1388 100.228 45.5028 99.829 45.7628 99.309C46.0228 98.789 46.1528 98.1693 46.1528 97.45C46.1528 96.7307 46.0228 96.111 45.7628 95.591C45.5028 95.071 45.1388 94.6723 44.6708 94.395C44.2115 94.1177 43.6698 93.979 43.0458 93.979C42.4218 93.979 41.8758 94.1177 41.4078 94.395C40.9398 94.6723 40.5758 95.071 40.3158 95.591C40.0645 96.111 39.9388 96.7307 39.9388 97.45C39.9388 98.1693 40.0645 98.789 40.3158 99.309C40.5758 99.829 40.9398 100.228 41.4078 100.505C41.8758 100.782 42.4218 100.921 43.0458 100.921ZM48.7449 102V101.012C49.3342 100.544 49.8976 100.072 50.4349 99.595C50.9722 99.1183 51.4489 98.6503 51.8649 98.191C52.2896 97.723 52.6232 97.268 52.8659 96.826C53.1086 96.3753 53.2299 95.942 53.2299 95.526C53.2299 95.2487 53.1822 94.9887 53.0869 94.746C52.9916 94.4947 52.8356 94.2953 52.6189 94.148C52.4022 93.992 52.1119 93.914 51.7479 93.914C51.2019 93.914 50.7902 94.0873 50.5129 94.434C50.2442 94.7807 50.1142 95.1967 50.1229 95.682H48.7839C48.7926 95.0407 48.9269 94.5033 49.1869 94.07C49.4556 93.6367 49.8109 93.3073 50.2529 93.082C50.7036 92.8567 51.2106 92.744 51.7739 92.744C52.6319 92.744 53.3166 92.9867 53.8279 93.472C54.3479 93.9487 54.6079 94.616 54.6079 95.474C54.6079 95.9853 54.4822 96.4923 54.2309 96.995C53.9882 97.4977 53.6676 97.983 53.2689 98.451C52.8789 98.9103 52.4586 99.3437 52.0079 99.751C51.5572 100.158 51.1282 100.527 50.7209 100.856H54.8809V102H48.7449ZM59.5898 102V92.64H60.9678V102H59.5898ZM65.7288 102.156C65.0961 102.156 64.5328 102.017 64.0388 101.74C63.5535 101.454 63.1721 101.06 62.8948 100.557C62.6175 100.054 62.4788 99.4693 62.4788 98.802C62.4788 98.126 62.6131 97.5323 62.8818 97.021C63.1591 96.5097 63.5405 96.111 64.0258 95.825C64.5198 95.539 65.0918 95.396 65.7418 95.396C66.3745 95.396 66.9248 95.539 67.3928 95.825C67.8608 96.1023 68.2248 96.475 68.4848 96.943C68.7448 97.411 68.8748 97.9267 68.8748 98.49C68.8748 98.5767 68.8705 98.672 68.8618 98.776C68.8618 98.8713 68.8575 98.9797 68.8488 99.101H63.8308C63.8741 99.725 64.0778 100.202 64.4418 100.531C64.8145 100.852 65.2435 101.012 65.7288 101.012C66.1188 101.012 66.4438 100.925 66.7038 100.752C66.9725 100.57 67.1718 100.327 67.3018 100.024H68.6798C68.5065 100.631 68.1598 101.138 67.6398 101.545C67.1285 101.952 66.4915 102.156 65.7288 102.156ZM65.7288 96.527C65.2695 96.527 64.8621 96.6657 64.5068 96.943C64.1515 97.2117 63.9348 97.619 63.8568 98.165H67.4968C67.4708 97.6623 67.2931 97.2637 66.9638 96.969C66.6345 96.6743 66.2228 96.527 65.7288 96.527ZM71.8577 102L69.4397 95.552H70.8827L72.6767 100.687L74.4707 95.552H75.9007L73.4957 102H71.8577ZM79.719 102.156C79.0864 102.156 78.523 102.017 78.029 101.74C77.5437 101.454 77.1624 101.06 76.885 100.557C76.6077 100.054 76.469 99.4693 76.469 98.802C76.469 98.126 76.6034 97.5323 76.872 97.021C77.1494 96.5097 77.5307 96.111 78.016 95.825C78.51 95.539 79.082 95.396 79.732 95.396C80.3647 95.396 80.915 95.539 81.383 95.825C81.851 96.1023 82.215 96.475 82.475 96.943C82.735 97.411 82.865 97.9267 82.865 98.49C82.865 98.5767 82.8607 98.672 82.852 98.776C82.852 98.8713 82.8477 98.9797 82.839 99.101H77.821C77.8644 99.725 78.068 100.202 78.432 100.531C78.8047 100.852 79.2337 101.012 79.719 101.012C80.109 101.012 80.434 100.925 80.694 100.752C80.9627 100.57 81.162 100.327 81.292 100.024H82.67C82.4967 100.631 82.15 101.138 81.63 101.545C81.1187 101.952 80.4817 102.156 79.719 102.156ZM79.719 96.527C79.2597 96.527 78.8524 96.6657 78.497 96.943C78.1417 97.2117 77.925 97.619 77.847 98.165H81.487C81.461 97.6623 81.2834 97.2637 80.954 96.969C80.6247 96.6743 80.213 96.527 79.719 96.527ZM84.2948 102V92.64H85.6728V102H84.2948Z" fill="#949494"/>
<path d="M6 54C6 47.4339 7.29329 40.9321 9.80602 34.8658C12.3188 28.7995 16.0017 23.2876 20.6447 18.6447C25.2876 14.0017 30.7996 10.3188 36.8658 7.80602C42.9321 5.29329 49.4339 4 56 4C62.5661 4 69.0679 5.29329 75.1342 7.80603C81.2005 10.3188 86.7124 14.0017 91.3553 18.6447C95.9983 23.2876 99.6812 28.7996 102.194 34.8658C104.707 40.9321 106 47.4339 106 54" stroke="#F1F1F1" stroke-width="8" stroke-linecap="round"/>
<path d="M6 54C6 42.7684 9.78157 31.8639 16.7353 23.0438C23.6891 14.2237 33.4099 8.00178 44.3314 5.38063" stroke="#27A574" stroke-width="8" stroke-linecap="round"/>
</svg>
