<svg width="162" height="20" viewBox="0 0 162 20" fill="none" xmlns="http://www.w3.org/2000/svg">
<circle cx="6" cy="10" r="6" fill="#6E73EE"/>
<path d="M18.923 14V4.9H21.874C22.94 4.9 23.8153 5.08633 24.5 5.459C25.1933 5.83167 25.7047 6.36033 26.034 7.045C26.372 7.721 26.541 8.527 26.541 9.463C26.541 10.3903 26.372 11.1963 26.034 11.881C25.7047 12.557 25.1933 13.0813 24.5 13.454C23.8153 13.818 22.94 14 21.874 14H18.923ZM20.301 12.83H21.822C22.6453 12.83 23.2953 12.6957 23.772 12.427C24.2573 12.1583 24.604 11.7727 24.812 11.27C25.0287 10.7673 25.137 10.165 25.137 9.463C25.137 8.761 25.0287 8.15433 24.812 7.643C24.604 7.13167 24.2573 6.74167 23.772 6.473C23.2953 6.19567 22.6453 6.057 21.822 6.057H20.301V12.83ZM30.1956 14.156C29.6496 14.156 29.199 14.065 28.8436 13.883C28.4883 13.701 28.224 13.4627 28.0506 13.168C27.8773 12.8647 27.7906 12.5353 27.7906 12.18C27.7906 11.556 28.0333 11.062 28.5186 10.698C29.004 10.334 29.6973 10.152 30.5986 10.152H32.2886V10.035C32.2886 9.53233 32.15 9.15533 31.8726 8.904C31.604 8.65267 31.253 8.527 30.8196 8.527C30.4383 8.527 30.1046 8.62233 29.8186 8.813C29.5413 8.995 29.3723 9.268 29.3116 9.632H27.9336C27.977 9.164 28.133 8.76533 28.4016 8.436C28.679 8.098 29.0256 7.84233 29.4416 7.669C29.8663 7.487 30.33 7.396 30.8326 7.396C31.734 7.396 32.4316 7.63433 32.9256 8.111C33.4196 8.579 33.6666 9.22033 33.6666 10.035V14H32.4706L32.3536 12.895C32.1716 13.2503 31.9073 13.5493 31.5606 13.792C31.214 14.0347 30.759 14.156 30.1956 14.156ZM30.4686 13.038C30.8413 13.038 31.1533 12.9513 31.4046 12.778C31.6646 12.596 31.864 12.3577 32.0026 12.063C32.15 11.7683 32.241 11.4433 32.2756 11.088H30.7416C30.1956 11.088 29.8056 11.1833 29.5716 11.374C29.3463 11.5647 29.2336 11.803 29.2336 12.089C29.2336 12.3837 29.342 12.6177 29.5586 12.791C29.784 12.9557 30.0873 13.038 30.4686 13.038ZM36.0533 6.33C35.7933 6.33 35.5767 6.252 35.4033 6.096C35.2387 5.93133 35.1563 5.72767 35.1563 5.485C35.1563 5.24233 35.2387 5.043 35.4033 4.887C35.5767 4.72233 35.7933 4.64 36.0533 4.64C36.3133 4.64 36.5257 4.72233 36.6903 4.887C36.8637 5.043 36.9503 5.24233 36.9503 5.485C36.9503 5.72767 36.8637 5.93133 36.6903 6.096C36.5257 6.252 36.3133 6.33 36.0533 6.33ZM35.3643 14V7.552H36.7423V14H35.3643ZM38.5614 14V4.64H39.9394V14H38.5614ZM42.4385 16.86L43.9855 13.467H43.6085L41.0605 7.552H42.5555L44.5315 12.323L46.5985 7.552H48.0545L43.8945 16.86H42.4385Z" fill="#949494"/>
<path d="M106.782 14.013L104.325 4.9H105.807L107.614 12.44L109.694 4.9H111.215L113.23 12.44L115.037 4.9H116.519L114.023 14H112.411L110.422 6.863L108.368 14L106.782 14.013ZM120.075 14.156C119.442 14.156 118.879 14.0173 118.385 13.74C117.899 13.454 117.518 13.0597 117.241 12.557C116.963 12.0543 116.825 11.4693 116.825 10.802C116.825 10.126 116.959 9.53233 117.228 9.021C117.505 8.50967 117.886 8.111 118.372 7.825C118.866 7.539 119.438 7.396 120.088 7.396C120.72 7.396 121.271 7.539 121.739 7.825C122.207 8.10233 122.571 8.475 122.831 8.943C123.091 9.411 123.221 9.92667 123.221 10.49C123.221 10.5767 123.216 10.672 123.208 10.776C123.208 10.8713 123.203 10.9797 123.195 11.101H118.177C118.22 11.725 118.424 12.2017 118.788 12.531C119.16 12.8517 119.589 13.012 120.075 13.012C120.465 13.012 120.79 12.9253 121.05 12.752C121.318 12.57 121.518 12.3273 121.648 12.024H123.026C122.852 12.6307 122.506 13.1377 121.986 13.545C121.474 13.9523 120.837 14.156 120.075 14.156ZM120.075 8.527C119.615 8.527 119.208 8.66567 118.853 8.943C118.497 9.21167 118.281 9.619 118.203 10.165H121.843C121.817 9.66233 121.639 9.26367 121.31 8.969C120.98 8.67433 120.569 8.527 120.075 8.527ZM127.666 14.156C127.034 14.156 126.47 14.0173 125.976 13.74C125.491 13.454 125.11 13.0597 124.832 12.557C124.555 12.0543 124.416 11.4693 124.416 10.802C124.416 10.126 124.551 9.53233 124.819 9.021C125.097 8.50967 125.478 8.111 125.963 7.825C126.457 7.539 127.029 7.396 127.679 7.396C128.312 7.396 128.862 7.539 129.33 7.825C129.798 8.10233 130.162 8.475 130.422 8.943C130.682 9.411 130.812 9.92667 130.812 10.49C130.812 10.5767 130.808 10.672 130.799 10.776C130.799 10.8713 130.795 10.9797 130.786 11.101H125.768C125.812 11.725 126.015 12.2017 126.379 12.531C126.752 12.8517 127.181 13.012 127.666 13.012C128.056 13.012 128.381 12.9253 128.641 12.752C128.91 12.57 129.109 12.3273 129.239 12.024H130.617C130.444 12.6307 130.097 13.1377 129.577 13.545C129.066 13.9523 128.429 14.156 127.666 14.156ZM127.666 8.527C127.207 8.527 126.8 8.66567 126.444 8.943C126.089 9.21167 125.872 9.619 125.794 10.165H129.434C129.408 9.66233 129.231 9.26367 128.901 8.969C128.572 8.67433 128.16 8.527 127.666 8.527ZM132.242 14V4.64H133.62V10.217L136.09 7.552H137.741L134.998 10.477L138.144 14H136.402L133.62 10.698V14H132.242ZM141.733 14.156C141.1 14.156 140.537 14.0173 140.043 13.74C139.557 13.454 139.176 13.0597 138.899 12.557C138.621 12.0543 138.483 11.4693 138.483 10.802C138.483 10.126 138.617 9.53233 138.886 9.021C139.163 8.50967 139.544 8.111 140.03 7.825C140.524 7.539 141.096 7.396 141.746 7.396C142.378 7.396 142.929 7.539 143.397 7.825C143.865 8.10233 144.229 8.475 144.489 8.943C144.749 9.411 144.879 9.92667 144.879 10.49C144.879 10.5767 144.874 10.672 144.866 10.776C144.866 10.8713 144.861 10.9797 144.853 11.101H139.835C139.878 11.725 140.082 12.2017 140.446 12.531C140.818 12.8517 141.247 13.012 141.733 13.012C142.123 13.012 142.448 12.9253 142.708 12.752C142.976 12.57 143.176 12.3273 143.306 12.024H144.684C144.51 12.6307 144.164 13.1377 143.644 13.545C143.132 13.9523 142.495 14.156 141.733 14.156ZM141.733 8.527C141.273 8.527 140.866 8.66567 140.511 8.943C140.155 9.21167 139.939 9.619 139.861 10.165H143.501C143.475 9.66233 143.297 9.26367 142.968 8.969C142.638 8.67433 142.227 8.527 141.733 8.527ZM146.309 14V7.552H147.531L147.635 8.683C147.834 8.28433 148.124 7.97233 148.506 7.747C148.896 7.513 149.342 7.396 149.845 7.396C150.625 7.396 151.236 7.63867 151.678 8.124C152.128 8.60933 152.354 9.333 152.354 10.295V14H150.989V10.438C150.989 9.19 150.477 8.566 149.455 8.566C148.943 8.566 148.519 8.748 148.181 9.112C147.851 9.476 147.687 9.996 147.687 10.672V14H146.309ZM156.914 14.156C156.29 14.156 155.74 14.0087 155.263 13.714C154.787 13.4193 154.414 13.0163 154.145 12.505C153.877 11.9937 153.742 11.413 153.742 10.763C153.742 10.113 153.877 9.53667 154.145 9.034C154.414 8.52267 154.787 8.124 155.263 7.838C155.749 7.54333 156.303 7.396 156.927 7.396C157.439 7.396 157.885 7.49567 158.266 7.695C158.656 7.89433 158.96 8.176 159.176 8.54V4.64H160.554V14H159.319L159.176 12.999C158.968 13.3023 158.682 13.571 158.318 13.805C157.954 14.039 157.486 14.156 156.914 14.156ZM157.161 12.96C157.751 12.96 158.232 12.7563 158.604 12.349C158.986 11.9417 159.176 11.4173 159.176 10.776C159.176 10.126 158.986 9.60167 158.604 9.203C158.232 8.79567 157.751 8.592 157.161 8.592C156.572 8.592 156.087 8.79567 155.705 9.203C155.324 9.60167 155.133 10.126 155.133 10.776C155.133 11.2007 155.22 11.5777 155.393 11.907C155.567 12.2363 155.805 12.4963 156.108 12.687C156.42 12.869 156.771 12.96 157.161 12.96Z" fill="#949494"/>
<circle cx="91" cy="10" r="6" fill="#5ECBA1"/>
</svg>
