<svg width="377" height="264" viewBox="0 0 377 264" fill="none" xmlns="http://www.w3.org/2000/svg">
<path d="M43.563 258.156C42.7397 258.156 42.029 257.961 41.431 257.571C40.8417 257.172 40.3867 256.622 40.066 255.92C39.754 255.209 39.598 254.386 39.598 253.45C39.598 252.514 39.754 251.695 40.066 250.993C40.3867 250.282 40.8417 249.732 41.431 249.342C42.029 248.943 42.7397 248.744 43.563 248.744C44.3863 248.744 45.0927 248.943 45.682 249.342C46.2713 249.732 46.722 250.282 47.034 250.993C47.3547 251.695 47.515 252.514 47.515 253.45C47.515 254.386 47.3547 255.209 47.034 255.92C46.722 256.622 46.2713 257.172 45.682 257.571C45.0927 257.961 44.3863 258.156 43.563 258.156ZM43.563 256.921C44.057 256.921 44.4947 256.782 44.876 256.505C45.266 256.228 45.5693 255.829 45.786 255.309C46.0027 254.789 46.111 254.169 46.111 253.45C46.111 252.731 46.0027 252.111 45.786 251.591C45.5693 251.071 45.266 250.672 44.876 250.395C44.4947 250.118 44.057 249.979 43.563 249.979C43.0603 249.979 42.6183 250.118 42.237 250.395C41.8557 250.672 41.5567 251.071 41.34 251.591C41.1233 252.111 41.015 252.731 41.015 253.45C41.015 254.169 41.1233 254.789 41.34 255.309C41.5567 255.829 41.8557 256.228 42.237 256.505C42.6183 256.782 43.0603 256.921 43.563 256.921Z" fill="#949494"/>
<path d="M64.741 258V257.012C65.3303 256.544 65.8937 256.072 66.431 255.595C66.9683 255.118 67.445 254.65 67.861 254.191C68.2857 253.723 68.6193 253.268 68.862 252.826C69.1047 252.375 69.226 251.942 69.226 251.526C69.226 251.249 69.1783 250.989 69.083 250.746C68.9877 250.495 68.8317 250.295 68.615 250.148C68.3983 249.992 68.108 249.914 67.744 249.914C67.198 249.914 66.7863 250.087 66.509 250.434C66.2403 250.781 66.1103 251.197 66.119 251.682H64.78C64.7887 251.041 64.923 250.503 65.183 250.07C65.4517 249.637 65.807 249.307 66.249 249.082C66.6997 248.857 67.2067 248.744 67.77 248.744C68.628 248.744 69.3127 248.987 69.824 249.472C70.344 249.949 70.604 250.616 70.604 251.474C70.604 251.985 70.4783 252.492 70.227 252.995C69.9843 253.498 69.6637 253.983 69.265 254.451C68.875 254.91 68.4547 255.344 68.004 255.751C67.5533 256.158 67.1243 256.527 66.717 256.856H70.877V258H64.741Z" fill="#949494"/>
<path d="M92.07 258V256.18H87.507V255.088L91.849 248.9H93.435V254.984H94.709V256.18H93.435V258H92.07ZM89.002 254.984H92.148V250.421L89.002 254.984Z" fill="#949494"/>
<path d="M115.264 258.156C114.597 258.156 114.033 258.03 113.574 257.779C113.115 257.528 112.742 257.194 112.456 256.778C112.179 256.362 111.979 255.894 111.858 255.374C111.737 254.854 111.676 254.321 111.676 253.775C111.676 252.77 111.815 251.89 112.092 251.136C112.378 250.382 112.785 249.797 113.314 249.381C113.843 248.956 114.484 248.744 115.238 248.744C115.836 248.744 116.347 248.861 116.772 249.095C117.197 249.329 117.526 249.641 117.76 250.031C118.003 250.421 118.15 250.846 118.202 251.305H116.915C116.837 250.854 116.651 250.508 116.356 250.265C116.061 250.022 115.684 249.901 115.225 249.901C114.592 249.901 114.068 250.2 113.652 250.798C113.245 251.387 113.028 252.297 113.002 253.528C113.21 253.147 113.531 252.822 113.964 252.553C114.406 252.284 114.913 252.15 115.485 252.15C115.996 252.15 116.473 252.271 116.915 252.514C117.366 252.757 117.73 253.099 118.007 253.541C118.293 253.974 118.436 254.49 118.436 255.088C118.436 255.617 118.306 256.115 118.046 256.583C117.786 257.051 117.418 257.432 116.941 257.727C116.473 258.013 115.914 258.156 115.264 258.156ZM115.186 256.96C115.55 256.96 115.875 256.882 116.161 256.726C116.447 256.57 116.672 256.358 116.837 256.089C117.002 255.812 117.084 255.5 117.084 255.153C117.084 254.598 116.902 254.156 116.538 253.827C116.183 253.498 115.728 253.333 115.173 253.333C114.809 253.333 114.48 253.415 114.185 253.58C113.899 253.745 113.674 253.966 113.509 254.243C113.344 254.512 113.262 254.811 113.262 255.14C113.262 255.495 113.344 255.812 113.509 256.089C113.682 256.358 113.912 256.57 114.198 256.726C114.493 256.882 114.822 256.96 115.186 256.96Z" fill="#949494"/>
<path d="M139.03 258.156C138.423 258.156 137.873 258.048 137.379 257.831C136.894 257.606 136.504 257.294 136.209 256.895C135.923 256.496 135.78 256.028 135.78 255.491C135.78 254.945 135.932 254.455 136.235 254.022C136.547 253.589 136.959 253.294 137.47 253.138C137.011 252.956 136.655 252.692 136.404 252.345C136.153 251.99 136.027 251.6 136.027 251.175C136.027 250.733 136.144 250.33 136.378 249.966C136.612 249.593 136.95 249.299 137.392 249.082C137.843 248.857 138.389 248.744 139.03 248.744C139.671 248.744 140.213 248.857 140.655 249.082C141.106 249.299 141.448 249.593 141.682 249.966C141.916 250.33 142.033 250.733 142.033 251.175C142.033 251.591 141.903 251.981 141.643 252.345C141.392 252.7 141.036 252.965 140.577 253.138C141.088 253.303 141.496 253.602 141.799 254.035C142.111 254.46 142.267 254.945 142.267 255.491C142.267 256.028 142.124 256.496 141.838 256.895C141.552 257.294 141.162 257.606 140.668 257.831C140.183 258.048 139.637 258.156 139.03 258.156ZM139.03 252.696C139.533 252.696 139.927 252.566 140.213 252.306C140.508 252.046 140.655 251.712 140.655 251.305C140.655 250.846 140.512 250.495 140.226 250.252C139.94 250.009 139.541 249.888 139.03 249.888C138.519 249.888 138.12 250.009 137.834 250.252C137.548 250.495 137.405 250.846 137.405 251.305C137.405 251.712 137.548 252.046 137.834 252.306C138.12 252.566 138.519 252.696 139.03 252.696ZM139.03 256.986C139.654 256.986 140.122 256.839 140.434 256.544C140.746 256.241 140.902 255.855 140.902 255.387C140.902 254.867 140.733 254.468 140.395 254.191C140.066 253.905 139.611 253.762 139.03 253.762C138.449 253.762 137.99 253.905 137.652 254.191C137.314 254.468 137.145 254.867 137.145 255.387C137.145 255.855 137.301 256.241 137.613 256.544C137.934 256.839 138.406 256.986 139.03 256.986Z" fill="#949494"/>
<path d="M160.859 258V250.46L159.39 250.798V249.784L161.405 248.9H162.289V258H160.859ZM167.778 258.156C166.955 258.156 166.244 257.961 165.646 257.571C165.057 257.172 164.602 256.622 164.281 255.92C163.969 255.209 163.813 254.386 163.813 253.45C163.813 252.514 163.969 251.695 164.281 250.993C164.602 250.282 165.057 249.732 165.646 249.342C166.244 248.943 166.955 248.744 167.778 248.744C168.601 248.744 169.308 248.943 169.897 249.342C170.486 249.732 170.937 250.282 171.249 250.993C171.57 251.695 171.73 252.514 171.73 253.45C171.73 254.386 171.57 255.209 171.249 255.92C170.937 256.622 170.486 257.172 169.897 257.571C169.308 257.961 168.601 258.156 167.778 258.156ZM167.778 256.921C168.272 256.921 168.71 256.782 169.091 256.505C169.481 256.228 169.784 255.829 170.001 255.309C170.218 254.789 170.326 254.169 170.326 253.45C170.326 252.731 170.218 252.111 170.001 251.591C169.784 251.071 169.481 250.672 169.091 250.395C168.71 250.118 168.272 249.979 167.778 249.979C167.275 249.979 166.833 250.118 166.452 250.395C166.071 250.672 165.772 251.071 165.555 251.591C165.338 252.111 165.23 252.731 165.23 253.45C165.23 254.169 165.338 254.789 165.555 255.309C165.772 255.829 166.071 256.228 166.452 256.505C166.833 256.782 167.275 256.921 167.778 256.921Z" fill="#949494"/>
<path d="M189.859 258V250.46L188.39 250.798V249.784L190.405 248.9H191.289V258H189.859ZM192.956 258V257.012C193.545 256.544 194.109 256.072 194.646 255.595C195.183 255.118 195.66 254.65 196.076 254.191C196.501 253.723 196.834 253.268 197.077 252.826C197.32 252.375 197.441 251.942 197.441 251.526C197.441 251.249 197.393 250.989 197.298 250.746C197.203 250.495 197.047 250.295 196.83 250.148C196.613 249.992 196.323 249.914 195.959 249.914C195.413 249.914 195.001 250.087 194.724 250.434C194.455 250.781 194.325 251.197 194.334 251.682H192.995C193.004 251.041 193.138 250.503 193.398 250.07C193.667 249.637 194.022 249.307 194.464 249.082C194.915 248.857 195.422 248.744 195.985 248.744C196.843 248.744 197.528 248.987 198.039 249.472C198.559 249.949 198.819 250.616 198.819 251.474C198.819 251.985 198.693 252.492 198.442 252.995C198.199 253.498 197.879 253.983 197.48 254.451C197.09 254.91 196.67 255.344 196.219 255.751C195.768 256.158 195.339 256.527 194.932 256.856H199.092V258H192.956Z" fill="#949494"/>
<path d="M216.859 258V250.46L215.39 250.798V249.784L217.405 248.9H218.289V258H216.859ZM224.285 258V256.18H219.722V255.088L224.064 248.9H225.65V254.984H226.924V256.18H225.65V258H224.285ZM221.217 254.984H224.363V250.421L221.217 254.984Z" fill="#949494"/>
<path d="M244.859 258V250.46L243.39 250.798V249.784L245.405 248.9H246.289V258H244.859ZM251.479 258.156C250.812 258.156 250.248 258.03 249.789 257.779C249.33 257.528 248.957 257.194 248.671 256.778C248.394 256.362 248.194 255.894 248.073 255.374C247.952 254.854 247.891 254.321 247.891 253.775C247.891 252.77 248.03 251.89 248.307 251.136C248.593 250.382 249 249.797 249.529 249.381C250.058 248.956 250.699 248.744 251.453 248.744C252.051 248.744 252.562 248.861 252.987 249.095C253.412 249.329 253.741 249.641 253.975 250.031C254.218 250.421 254.365 250.846 254.417 251.305H253.13C253.052 250.854 252.866 250.508 252.571 250.265C252.276 250.022 251.899 249.901 251.44 249.901C250.807 249.901 250.283 250.2 249.867 250.798C249.46 251.387 249.243 252.297 249.217 253.528C249.425 253.147 249.746 252.822 250.179 252.553C250.621 252.284 251.128 252.15 251.7 252.15C252.211 252.15 252.688 252.271 253.13 252.514C253.581 252.757 253.945 253.099 254.222 253.541C254.508 253.974 254.651 254.49 254.651 255.088C254.651 255.617 254.521 256.115 254.261 256.583C254.001 257.051 253.633 257.432 253.156 257.727C252.688 258.013 252.129 258.156 251.479 258.156ZM251.401 256.96C251.765 256.96 252.09 256.882 252.376 256.726C252.662 256.57 252.887 256.358 253.052 256.089C253.217 255.812 253.299 255.5 253.299 255.153C253.299 254.598 253.117 254.156 252.753 253.827C252.398 253.498 251.943 253.333 251.388 253.333C251.024 253.333 250.695 253.415 250.4 253.58C250.114 253.745 249.889 253.966 249.724 254.243C249.559 254.512 249.477 254.811 249.477 255.14C249.477 255.495 249.559 255.812 249.724 256.089C249.897 256.358 250.127 256.57 250.413 256.726C250.708 256.882 251.037 256.96 251.401 256.96Z" fill="#949494"/>
<path d="M272.859 258V250.46L271.39 250.798V249.784L273.405 248.9H274.289V258H272.859ZM279.245 258.156C278.638 258.156 278.088 258.048 277.594 257.831C277.109 257.606 276.719 257.294 276.424 256.895C276.138 256.496 275.995 256.028 275.995 255.491C275.995 254.945 276.147 254.455 276.45 254.022C276.762 253.589 277.174 253.294 277.685 253.138C277.226 252.956 276.87 252.692 276.619 252.345C276.368 251.99 276.242 251.6 276.242 251.175C276.242 250.733 276.359 250.33 276.593 249.966C276.827 249.593 277.165 249.299 277.607 249.082C278.058 248.857 278.604 248.744 279.245 248.744C279.886 248.744 280.428 248.857 280.87 249.082C281.321 249.299 281.663 249.593 281.897 249.966C282.131 250.33 282.248 250.733 282.248 251.175C282.248 251.591 282.118 251.981 281.858 252.345C281.607 252.7 281.251 252.965 280.792 253.138C281.303 253.303 281.711 253.602 282.014 254.035C282.326 254.46 282.482 254.945 282.482 255.491C282.482 256.028 282.339 256.496 282.053 256.895C281.767 257.294 281.377 257.606 280.883 257.831C280.398 258.048 279.852 258.156 279.245 258.156ZM279.245 252.696C279.748 252.696 280.142 252.566 280.428 252.306C280.723 252.046 280.87 251.712 280.87 251.305C280.87 250.846 280.727 250.495 280.441 250.252C280.155 250.009 279.756 249.888 279.245 249.888C278.734 249.888 278.335 250.009 278.049 250.252C277.763 250.495 277.62 250.846 277.62 251.305C277.62 251.712 277.763 252.046 278.049 252.306C278.335 252.566 278.734 252.696 279.245 252.696ZM279.245 256.986C279.869 256.986 280.337 256.839 280.649 256.544C280.961 256.241 281.117 255.855 281.117 255.387C281.117 254.867 280.948 254.468 280.61 254.191C280.281 253.905 279.826 253.762 279.245 253.762C278.664 253.762 278.205 253.905 277.867 254.191C277.529 254.468 277.36 254.867 277.36 255.387C277.36 255.855 277.516 256.241 277.828 256.544C278.149 256.839 278.621 256.986 279.245 256.986Z" fill="#949494"/>
<path d="M299.741 258V257.012C300.33 256.544 300.894 256.072 301.431 255.595C301.968 255.118 302.445 254.65 302.861 254.191C303.286 253.723 303.619 253.268 303.862 252.826C304.105 252.375 304.226 251.942 304.226 251.526C304.226 251.249 304.178 250.989 304.083 250.746C303.988 250.495 303.832 250.295 303.615 250.148C303.398 249.992 303.108 249.914 302.744 249.914C302.198 249.914 301.786 250.087 301.509 250.434C301.24 250.781 301.11 251.197 301.119 251.682H299.78C299.789 251.041 299.923 250.503 300.183 250.07C300.452 249.637 300.807 249.307 301.249 249.082C301.7 248.857 302.207 248.744 302.77 248.744C303.628 248.744 304.313 248.987 304.824 249.472C305.344 249.949 305.604 250.616 305.604 251.474C305.604 251.985 305.478 252.492 305.227 252.995C304.984 253.498 304.664 253.983 304.265 254.451C303.875 254.91 303.455 255.344 303.004 255.751C302.553 256.158 302.124 256.527 301.717 256.856H305.877V258H299.741ZM310.901 258.156C310.078 258.156 309.367 257.961 308.769 257.571C308.18 257.172 307.725 256.622 307.404 255.92C307.092 255.209 306.936 254.386 306.936 253.45C306.936 252.514 307.092 251.695 307.404 250.993C307.725 250.282 308.18 249.732 308.769 249.342C309.367 248.943 310.078 248.744 310.901 248.744C311.724 248.744 312.431 248.943 313.02 249.342C313.609 249.732 314.06 250.282 314.372 250.993C314.693 251.695 314.853 252.514 314.853 253.45C314.853 254.386 314.693 255.209 314.372 255.92C314.06 256.622 313.609 257.172 313.02 257.571C312.431 257.961 311.724 258.156 310.901 258.156ZM310.901 256.921C311.395 256.921 311.833 256.782 312.214 256.505C312.604 256.228 312.907 255.829 313.124 255.309C313.341 254.789 313.449 254.169 313.449 253.45C313.449 252.731 313.341 252.111 313.124 251.591C312.907 251.071 312.604 250.672 312.214 250.395C311.833 250.118 311.395 249.979 310.901 249.979C310.398 249.979 309.956 250.118 309.575 250.395C309.194 250.672 308.895 251.071 308.678 251.591C308.461 252.111 308.353 252.731 308.353 253.45C308.353 254.169 308.461 254.789 308.678 255.309C308.895 255.829 309.194 256.228 309.575 256.505C309.956 256.782 310.398 256.921 310.901 256.921Z" fill="#949494"/>
<path d="M331.741 258V257.012C332.33 256.544 332.894 256.072 333.431 255.595C333.968 255.118 334.445 254.65 334.861 254.191C335.286 253.723 335.619 253.268 335.862 252.826C336.105 252.375 336.226 251.942 336.226 251.526C336.226 251.249 336.178 250.989 336.083 250.746C335.988 250.495 335.832 250.295 335.615 250.148C335.398 249.992 335.108 249.914 334.744 249.914C334.198 249.914 333.786 250.087 333.509 250.434C333.24 250.781 333.11 251.197 333.119 251.682H331.78C331.789 251.041 331.923 250.503 332.183 250.07C332.452 249.637 332.807 249.307 333.249 249.082C333.7 248.857 334.207 248.744 334.77 248.744C335.628 248.744 336.313 248.987 336.824 249.472C337.344 249.949 337.604 250.616 337.604 251.474C337.604 251.985 337.478 252.492 337.227 252.995C336.984 253.498 336.664 253.983 336.265 254.451C335.875 254.91 335.455 255.344 335.004 255.751C334.553 256.158 334.124 256.527 333.717 256.856H337.877V258H331.741ZM339.18 258V257.012C339.77 256.544 340.333 256.072 340.87 255.595C341.408 255.118 341.884 254.65 342.3 254.191C342.725 253.723 343.059 253.268 343.301 252.826C343.544 252.375 343.665 251.942 343.665 251.526C343.665 251.249 343.618 250.989 343.522 250.746C343.427 250.495 343.271 250.295 343.054 250.148C342.838 249.992 342.547 249.914 342.183 249.914C341.637 249.914 341.226 250.087 340.948 250.434C340.68 250.781 340.55 251.197 340.558 251.682H339.219C339.228 251.041 339.362 250.503 339.622 250.07C339.891 249.637 340.246 249.307 340.688 249.082C341.139 248.857 341.646 248.744 342.209 248.744C343.067 248.744 343.752 248.987 344.263 249.472C344.783 249.949 345.043 250.616 345.043 251.474C345.043 251.985 344.918 252.492 344.666 252.995C344.424 253.498 344.103 253.983 343.704 254.451C343.314 254.91 342.894 255.344 342.443 255.751C341.993 256.158 341.564 256.527 341.156 256.856H345.316V258H339.18Z" fill="#949494"/>
<path d="M361.741 258V257.012C362.33 256.544 362.894 256.072 363.431 255.595C363.968 255.118 364.445 254.65 364.861 254.191C365.286 253.723 365.619 253.268 365.862 252.826C366.105 252.375 366.226 251.942 366.226 251.526C366.226 251.249 366.178 250.989 366.083 250.746C365.988 250.495 365.832 250.295 365.615 250.148C365.398 249.992 365.108 249.914 364.744 249.914C364.198 249.914 363.786 250.087 363.509 250.434C363.24 250.781 363.11 251.197 363.119 251.682H361.78C361.789 251.041 361.923 250.503 362.183 250.07C362.452 249.637 362.807 249.307 363.249 249.082C363.7 248.857 364.207 248.744 364.77 248.744C365.628 248.744 366.313 248.987 366.824 249.472C367.344 249.949 367.604 250.616 367.604 251.474C367.604 251.985 367.478 252.492 367.227 252.995C366.984 253.498 366.664 253.983 366.265 254.451C365.875 254.91 365.455 255.344 365.004 255.751C364.553 256.158 364.124 256.527 363.717 256.856H367.877V258H361.741ZM373.344 258V256.18H368.781V255.088L373.123 248.9H374.709V254.984H375.983V256.18H374.709V258H373.344ZM370.276 254.984H373.422V250.421L370.276 254.984Z" fill="#949494"/>
<path d="M0.923 56V46.9H2.548L5.629 52.958L8.697 46.9H10.322V56H8.944V49.279L6.162 54.7H5.096L2.301 49.292V56H0.923ZM15.135 56.156C14.5197 56.156 13.965 56.0173 13.471 55.74C12.9857 55.454 12.6 55.0597 12.314 54.557C12.028 54.0457 11.885 53.452 11.885 52.776C11.885 52.1 12.028 51.5107 12.314 51.008C12.6087 50.4967 13.003 50.1023 13.497 49.825C13.991 49.539 14.5414 49.396 15.148 49.396C15.7634 49.396 16.3137 49.539 16.799 49.825C17.293 50.1023 17.683 50.4967 17.969 51.008C18.2637 51.5107 18.411 52.1 18.411 52.776C18.411 53.452 18.2637 54.0457 17.969 54.557C17.683 55.0597 17.293 55.454 16.799 55.74C16.305 56.0173 15.7504 56.156 15.135 56.156ZM15.135 54.973C15.4644 54.973 15.7677 54.8907 16.045 54.726C16.331 54.5613 16.5607 54.3187 16.734 53.998C16.9074 53.6687 16.994 53.2613 16.994 52.776C16.994 52.2907 16.9074 51.8877 16.734 51.567C16.5694 51.2377 16.344 50.9907 16.058 50.826C15.7807 50.6613 15.4774 50.579 15.148 50.579C14.8187 50.579 14.511 50.6613 14.225 50.826C13.9477 50.9907 13.7224 51.2377 13.549 51.567C13.3757 51.8877 13.289 52.2907 13.289 52.776C13.289 53.2613 13.3757 53.6687 13.549 53.998C13.7224 54.3187 13.9477 54.5613 14.225 54.726C14.5024 54.8907 14.8057 54.973 15.135 54.973ZM19.9013 56V49.552H21.1233L21.2273 50.683C21.4266 50.2843 21.7169 49.9723 22.0983 49.747C22.4883 49.513 22.9346 49.396 23.4373 49.396C24.2173 49.396 24.8283 49.6387 25.2703 50.124C25.7209 50.6093 25.9463 51.333 25.9463 52.295V56H24.5813V52.438C24.5813 51.19 24.0699 50.566 23.0473 50.566C22.5359 50.566 22.1113 50.748 21.7733 51.112C21.4439 51.476 21.2793 51.996 21.2793 52.672V56H19.9013Z" fill="#949494"/>
<rect x="39" y="38" width="13" height="28" rx="4" fill="#277858"/>
<rect x="53" y="38" width="13" height="28" rx="4" fill="#27A574"/>
<rect x="67" y="38" width="13" height="28" rx="4" fill="#F5C000"/>
<rect x="81" y="38" width="13" height="28" rx="4" fill="#F5C000"/>
<rect x="95" y="38" width="13" height="28" rx="4" fill="#F5C000"/>
<rect x="109" y="38" width="13" height="28" rx="4" fill="#FE2D2A"/>
<rect x="123" y="38" width="13" height="28" rx="4" fill="#B20301"/>
<rect x="137" y="38" width="13" height="28" rx="4" fill="#B20301"/>
<rect x="151" y="38" width="13" height="28" rx="4" fill="#FE2D2A"/>
<rect x="165" y="38" width="13" height="28" rx="4" fill="#F5C000"/>
<rect x="179" y="38" width="13" height="28" rx="4" fill="#FE2D2A"/>
<rect x="193" y="38" width="13" height="28" rx="4" fill="#F5C000"/>
<rect x="207" y="38" width="13" height="28" rx="4" fill="#FE2D2A"/>
<rect x="221" y="38" width="13" height="28" rx="4" fill="#B20301"/>
<rect x="235" y="38" width="13" height="28" rx="4" fill="#FE2D2A"/>
<rect x="249" y="38" width="13" height="28" rx="4" fill="#FE2D2A"/>
<rect x="263" y="38" width="13" height="28" rx="4" fill="#FE2D2A"/>
<rect x="277" y="38" width="13" height="28" rx="4" fill="#FE2D2A"/>
<rect x="291" y="38" width="13" height="28" rx="4" fill="#FE2D2A"/>
<rect x="305" y="38" width="13" height="28" rx="4" fill="#F5C000"/>
<rect x="319" y="38" width="13" height="28" rx="4" fill="#27A574"/>
<rect x="333" y="38" width="13" height="28" rx="4" fill="#27A574"/>
<rect x="347" y="38" width="13" height="28" rx="4" fill="#277758"/>
<rect x="361" y="38" width="13" height="28" rx="4" fill="#277758"/>
<path d="M3.055 85V77.018H0.364V75.9H7.111V77.018H4.433V85H3.055ZM10.0801 85.156C9.30008 85.156 8.68474 84.9133 8.23408 84.428C7.79208 83.9427 7.57108 83.219 7.57108 82.257V78.552H8.94908V82.114C8.94908 83.362 9.46041 83.986 10.4831 83.986C10.9944 83.986 11.4147 83.804 11.7441 83.44C12.0734 83.076 12.2381 82.556 12.2381 81.88V78.552H13.6161V85H12.3941L12.2901 83.869C12.0907 84.2677 11.7961 84.584 11.4061 84.818C11.0247 85.0433 10.5827 85.156 10.0801 85.156ZM18.385 85.156C17.7524 85.156 17.189 85.0173 16.695 84.74C16.2097 84.454 15.8284 84.0597 15.551 83.557C15.2737 83.0543 15.135 82.4693 15.135 81.802C15.135 81.126 15.2694 80.5323 15.538 80.021C15.8154 79.5097 16.1967 79.111 16.682 78.825C17.176 78.539 17.748 78.396 18.398 78.396C19.0307 78.396 19.581 78.539 20.049 78.825C20.517 79.1023 20.881 79.475 21.141 79.943C21.401 80.411 21.531 80.9267 21.531 81.49C21.531 81.5767 21.5267 81.672 21.518 81.776C21.518 81.8713 21.5137 81.9797 21.505 82.101H16.487C16.5304 82.725 16.734 83.2017 17.098 83.531C17.4707 83.8517 17.8997 84.012 18.385 84.012C18.775 84.012 19.1 83.9253 19.36 83.752C19.6287 83.57 19.828 83.3273 19.958 83.024H21.336C21.1627 83.6307 20.816 84.1377 20.296 84.545C19.7847 84.9523 19.1477 85.156 18.385 85.156ZM18.385 79.527C17.9257 79.527 17.5184 79.6657 17.163 79.943C16.8077 80.2117 16.591 80.619 16.513 81.165H20.153C20.127 80.6623 19.9494 80.2637 19.62 79.969C19.2907 79.6743 18.879 79.527 18.385 79.527Z" fill="#949494"/>
<rect x="39" y="67" width="13" height="28" rx="4" fill="#277758"/>
<rect x="53" y="67" width="13" height="28" rx="4" fill="#27A574"/>
<rect x="67" y="67" width="13" height="28" rx="4" fill="#27A574"/>
<rect x="81" y="67" width="13" height="28" rx="4" fill="#27A574"/>
<rect x="95" y="67" width="13" height="28" rx="4" fill="#27A574"/>
<rect x="109" y="67" width="13" height="28" rx="4" fill="#F5C000"/>
<rect x="123" y="67" width="13" height="28" rx="4" fill="#FE2D2A"/>
<rect x="137" y="67" width="13" height="28" rx="4" fill="#FE2D2A"/>
<rect x="151" y="67" width="13" height="28" rx="4" fill="#B20301"/>
<rect x="165" y="67" width="13" height="28" rx="4" fill="#B20301"/>
<rect x="179" y="67" width="13" height="28" rx="4" fill="#FE2D2A"/>
<rect x="193" y="67" width="13" height="28" rx="4" fill="#B20301"/>
<rect x="207" y="67" width="13" height="28" rx="4" fill="#FE2D2A"/>
<rect x="221" y="67" width="13" height="28" rx="4" fill="#B20301"/>
<rect x="235" y="67" width="13" height="28" rx="4" fill="#FE2D2A"/>
<rect x="249" y="67" width="13" height="28" rx="4" fill="#FE2D2A"/>
<rect x="263" y="67" width="13" height="28" rx="4" fill="#F5C000"/>
<rect x="277" y="67" width="13" height="28" rx="4" fill="#F5C000"/>
<rect x="291" y="67" width="13" height="28" rx="4" fill="#F5C000"/>
<rect x="305" y="67" width="13" height="28" rx="4" fill="#F5C000"/>
<rect x="319" y="67" width="13" height="28" rx="4" fill="#F5C000"/>
<rect x="333" y="67" width="13" height="28" rx="4" fill="#F5C000"/>
<rect x="347" y="67" width="13" height="28" rx="4" fill="#27A574"/>
<rect x="361" y="67" width="13" height="28" rx="4" fill="#277758"/>
<path d="M2.782 114.013L0.325 104.9H1.807L3.614 112.44L5.694 104.9H7.215L9.23 112.44L11.037 104.9H12.519L10.023 114H8.411L6.422 106.863L4.368 114L2.782 114.013ZM16.0745 114.156C15.4418 114.156 14.8785 114.017 14.3845 113.74C13.8992 113.454 13.5178 113.06 13.2405 112.557C12.9632 112.054 12.8245 111.469 12.8245 110.802C12.8245 110.126 12.9588 109.532 13.2275 109.021C13.5048 108.51 13.8862 108.111 14.3715 107.825C14.8655 107.539 15.4375 107.396 16.0875 107.396C16.7202 107.396 17.2705 107.539 17.7385 107.825C18.2065 108.102 18.5705 108.475 18.8305 108.943C19.0905 109.411 19.2205 109.927 19.2205 110.49C19.2205 110.577 19.2162 110.672 19.2075 110.776C19.2075 110.871 19.2032 110.98 19.1945 111.101H14.1765C14.2198 111.725 14.4235 112.202 14.7875 112.531C15.1602 112.852 15.5892 113.012 16.0745 113.012C16.4645 113.012 16.7895 112.925 17.0495 112.752C17.3182 112.57 17.5175 112.327 17.6475 112.024H19.0255C18.8522 112.631 18.5055 113.138 17.9855 113.545C17.4742 113.952 16.8372 114.156 16.0745 114.156ZM16.0745 108.527C15.6152 108.527 15.2078 108.666 14.8525 108.943C14.4972 109.212 14.2805 109.619 14.2025 110.165H17.8425C17.8165 109.662 17.6388 109.264 17.3095 108.969C16.9802 108.674 16.5685 108.527 16.0745 108.527ZM23.5883 114.156C22.9643 114.156 22.414 114.009 21.9373 113.714C21.4606 113.419 21.088 113.016 20.8193 112.505C20.5506 111.994 20.4163 111.413 20.4163 110.763C20.4163 110.113 20.5506 109.537 20.8193 109.034C21.088 108.523 21.4606 108.124 21.9373 107.838C22.4226 107.543 22.9773 107.396 23.6013 107.396C24.1126 107.396 24.559 107.496 24.9403 107.695C25.3303 107.894 25.6336 108.176 25.8503 108.54V104.64H27.2283V114H25.9933L25.8503 112.999C25.6423 113.302 25.3563 113.571 24.9923 113.805C24.6283 114.039 24.1603 114.156 23.5883 114.156ZM23.8353 112.96C24.4246 112.96 24.9056 112.756 25.2783 112.349C25.6596 111.942 25.8503 111.417 25.8503 110.776C25.8503 110.126 25.6596 109.602 25.2783 109.203C24.9056 108.796 24.4246 108.592 23.8353 108.592C23.246 108.592 22.7606 108.796 22.3793 109.203C21.998 109.602 21.8073 110.126 21.8073 110.776C21.8073 111.201 21.894 111.578 22.0673 111.907C22.2406 112.236 22.479 112.496 22.7823 112.687C23.0943 112.869 23.4453 112.96 23.8353 112.96Z" fill="#949494"/>
<rect x="39" y="96" width="13" height="28" rx="4" fill="#277758"/>
<rect x="53" y="96" width="13" height="28" rx="4" fill="#277758"/>
<rect x="67" y="96" width="13" height="28" rx="4" fill="#27A574"/>
<rect x="81" y="96" width="13" height="28" rx="4" fill="#27A574"/>
<rect x="95" y="96" width="13" height="28" rx="4" fill="#F5C000"/>
<rect x="109" y="96" width="13" height="28" rx="4" fill="#F5C000"/>
<rect x="123" y="96" width="13" height="28" rx="4" fill="#F5C000"/>
<rect x="137" y="96" width="13" height="28" rx="4" fill="#FE2D2A"/>
<rect x="151" y="96" width="13" height="28" rx="4" fill="#FE2D2A"/>
<rect x="165" y="96" width="13" height="28" rx="4" fill="#B20301"/>
<rect x="179" y="96" width="13" height="28" rx="4" fill="#FE2D2A"/>
<rect x="193" y="96" width="13" height="28" rx="4" fill="#B20301"/>
<rect x="207" y="96" width="13" height="28" rx="4" fill="#FE2D2A"/>
<rect x="221" y="96" width="13" height="28" rx="4" fill="#FE2D2A"/>
<rect x="235" y="96" width="13" height="28" rx="4" fill="#FE2D2A"/>
<rect x="249" y="96" width="13" height="28" rx="4" fill="#FE2D2A"/>
<rect x="263" y="96" width="13" height="28" rx="4" fill="#F5C000"/>
<rect x="277" y="96" width="13" height="28" rx="4" fill="#F5C000"/>
<rect x="291" y="96" width="13" height="28" rx="4" fill="#F5C000"/>
<rect x="305" y="96" width="13" height="28" rx="4" fill="#F5C000"/>
<rect x="319" y="96" width="13" height="28" rx="4" fill="#F5C000"/>
<rect x="333" y="96" width="13" height="28" rx="4" fill="#27A574"/>
<rect x="347" y="96" width="13" height="28" rx="4" fill="#277758"/>
<rect x="361" y="96" width="13" height="28" rx="4" fill="#277758"/>
<path d="M3.055 143V135.018H0.364V133.9H7.111V135.018H4.433V143H3.055ZM8.34854 143V133.64H9.72654V137.592C9.94321 137.219 10.2422 136.929 10.6235 136.721C11.0135 136.504 11.4425 136.396 11.9105 136.396C12.6819 136.396 13.2885 136.639 13.7305 137.124C14.1725 137.609 14.3935 138.333 14.3935 139.295V143H13.0285V139.438C13.0285 138.19 12.5302 137.566 11.5335 137.566C11.0135 137.566 10.5802 137.748 10.2335 138.112C9.89554 138.476 9.72654 138.996 9.72654 139.672V143H8.34854ZM18.3955 143.156C17.6155 143.156 17.0002 142.913 16.5495 142.428C16.1075 141.943 15.8865 141.219 15.8865 140.257V136.552H17.2645V140.114C17.2645 141.362 17.7758 141.986 18.7985 141.986C19.3098 141.986 19.7302 141.804 20.0595 141.44C20.3888 141.076 20.5535 140.556 20.5535 139.88V136.552H21.9315V143H20.7095L20.6055 141.869C20.4062 142.268 20.1115 142.584 19.7215 142.818C19.3402 143.043 18.8982 143.156 18.3955 143.156Z" fill="#949494"/>
<rect x="39" y="125" width="13" height="28" rx="4" fill="#277758"/>
<rect x="53" y="125" width="13" height="28" rx="4" fill="#277758"/>
<rect x="67" y="125" width="13" height="28" rx="4" fill="#277758"/>
<rect x="81" y="125" width="13" height="28" rx="4" fill="#27A574"/>
<rect x="95" y="125" width="13" height="28" rx="4" fill="#F5C000"/>
<rect x="109" y="125" width="13" height="28" rx="4" fill="#F5C000"/>
<rect x="123" y="125" width="13" height="28" rx="4" fill="#FE2D2A"/>
<rect x="137" y="125" width="13" height="28" rx="4" fill="#FE2D2A"/>
<rect x="151" y="125" width="13" height="28" rx="4" fill="#FE2D2A"/>
<rect x="165" y="125" width="13" height="28" rx="4" fill="#FE2D2A"/>
<rect x="179" y="125" width="13" height="28" rx="4" fill="#FE2D2A"/>
<rect x="193" y="125" width="13" height="28" rx="4" fill="#B20301"/>
<rect x="207" y="125" width="13" height="28" rx="4" fill="#FE2D2A"/>
<rect x="221" y="125" width="13" height="28" rx="4" fill="#FE2D2A"/>
<rect x="235" y="125" width="13" height="28" rx="4" fill="#FE2D2A"/>
<rect x="249" y="125" width="13" height="28" rx="4" fill="#FE2D2A"/>
<rect x="263" y="125" width="13" height="28" rx="4" fill="#FE2D2A"/>
<rect x="277" y="125" width="13" height="28" rx="4" fill="#F5C000"/>
<rect x="291" y="125" width="13" height="28" rx="4" fill="#F5C000"/>
<rect x="305" y="125" width="13" height="28" rx="4" fill="#F5C000"/>
<rect x="319" y="125" width="13" height="28" rx="4" fill="#F5C000"/>
<rect x="333" y="125" width="13" height="28" rx="4" fill="#F5C000"/>
<rect x="347" y="125" width="13" height="28" rx="4" fill="#27A574"/>
<rect x="361" y="125" width="13" height="28" rx="4" fill="#277758"/>
<path d="M0.923 174V164.9H6.63V166.018H2.301V168.891H5.889V169.996H2.301V174H0.923ZM7.92959 174V167.552H9.16459L9.28159 168.774C9.50693 168.349 9.81893 168.016 10.2176 167.773C10.6249 167.522 11.1146 167.396 11.6866 167.396V168.839H11.3096C10.9283 168.839 10.5859 168.904 10.2826 169.034C9.98793 169.155 9.74959 169.368 9.56759 169.671C9.39426 169.966 9.30759 170.377 9.30759 170.906V174H7.92959ZM13.6481 166.33C13.3881 166.33 13.1714 166.252 12.9981 166.096C12.8334 165.931 12.7511 165.728 12.7511 165.485C12.7511 165.242 12.8334 165.043 12.9981 164.887C13.1714 164.722 13.3881 164.64 13.6481 164.64C13.9081 164.64 14.1204 164.722 14.2851 164.887C14.4584 165.043 14.5451 165.242 14.5451 165.485C14.5451 165.728 14.4584 165.931 14.2851 166.096C14.1204 166.252 13.9081 166.33 13.6481 166.33ZM12.9591 174V167.552H14.3371V174H12.9591Z" fill="#949494"/>
<rect x="39" y="154" width="13" height="28" rx="4" fill="#277758"/>
<rect x="53" y="154" width="13" height="28" rx="4" fill="#277758"/>
<rect x="67" y="154" width="13" height="28" rx="4" fill="#277758"/>
<rect x="81" y="154" width="13" height="28" rx="4" fill="#27A574"/>
<rect x="95" y="154" width="13" height="28" rx="4" fill="#27A574"/>
<rect x="109" y="154" width="13" height="28" rx="4" fill="#27A574"/>
<rect x="123" y="154" width="13" height="28" rx="4" fill="#F5C000"/>
<rect x="137" y="154" width="13" height="28" rx="4" fill="#F5C000"/>
<rect x="151" y="154" width="13" height="28" rx="4" fill="#F5C000"/>
<rect x="165" y="154" width="13" height="28" rx="4" fill="#F5C000"/>
<rect x="179" y="154" width="13" height="28" rx="4" fill="#FE2D2A"/>
<rect x="193" y="154" width="13" height="28" rx="4" fill="#F5C000"/>
<rect x="207" y="154" width="13" height="28" rx="4" fill="#FE2D2A"/>
<rect x="221" y="154" width="13" height="28" rx="4" fill="#F5C000"/>
<rect x="235" y="154" width="13" height="28" rx="4" fill="#FE2D2A"/>
<rect x="249" y="154" width="13" height="28" rx="4" fill="#F5C000"/>
<rect x="263" y="154" width="13" height="28" rx="4" fill="#27A574"/>
<rect x="277" y="154" width="13" height="28" rx="4" fill="#27A574"/>
<rect x="291" y="154" width="13" height="28" rx="4" fill="#27A574"/>
<rect x="305" y="154" width="13" height="28" rx="4" fill="#27A574"/>
<rect x="319" y="154" width="13" height="28" rx="4" fill="#27A574"/>
<rect x="333" y="154" width="13" height="28" rx="4" fill="#277758"/>
<rect x="347" y="154" width="13" height="28" rx="4" fill="#277758"/>
<rect x="361" y="154" width="13" height="28" rx="4" fill="#277758"/>
<path d="M3.926 203.156C3.25867 203.156 2.67367 203.039 2.171 202.805C1.66833 202.571 1.274 202.237 0.988 201.804C0.710667 201.371 0.567667 200.855 0.559 200.257H2.015C2.02367 200.742 2.19267 201.154 2.522 201.492C2.85133 201.83 3.315 201.999 3.913 201.999C4.44167 201.999 4.85333 201.873 5.148 201.622C5.45133 201.362 5.603 201.033 5.603 200.634C5.603 200.313 5.52933 200.053 5.382 199.854C5.24333 199.655 5.04833 199.49 4.797 199.36C4.55433 199.23 4.27267 199.113 3.952 199.009C3.63133 198.905 3.29333 198.792 2.938 198.671C2.236 198.437 1.70733 198.134 1.352 197.761C1.00533 197.388 0.832 196.899 0.832 196.292C0.823333 195.781 0.940333 195.334 1.183 194.953C1.43433 194.572 1.781 194.277 2.223 194.069C2.67367 193.852 3.198 193.744 3.796 193.744C4.38533 193.744 4.901 193.852 5.343 194.069C5.79367 194.286 6.14467 194.589 6.396 194.979C6.64733 195.36 6.77733 195.807 6.786 196.318H5.33C5.33 196.084 5.26933 195.863 5.148 195.655C5.02667 195.438 4.849 195.261 4.615 195.122C4.381 194.983 4.095 194.914 3.757 194.914C3.32367 194.905 2.964 195.014 2.678 195.239C2.40067 195.464 2.262 195.776 2.262 196.175C2.262 196.53 2.366 196.803 2.574 196.994C2.782 197.185 3.068 197.345 3.432 197.475C3.796 197.596 4.212 197.739 4.68 197.904C5.13067 198.051 5.53367 198.229 5.889 198.437C6.24433 198.645 6.526 198.918 6.734 199.256C6.95067 199.594 7.059 200.023 7.059 200.543C7.059 201.002 6.942 201.431 6.708 201.83C6.474 202.22 6.123 202.541 5.655 202.792C5.187 203.035 4.61067 203.156 3.926 203.156ZM10.6976 203.156C10.1516 203.156 9.70091 203.065 9.34558 202.883C8.99024 202.701 8.72591 202.463 8.55258 202.168C8.37924 201.865 8.29258 201.535 8.29258 201.18C8.29258 200.556 8.53524 200.062 9.02058 199.698C9.50591 199.334 10.1992 199.152 11.1006 199.152H12.7906V199.035C12.7906 198.532 12.6519 198.155 12.3746 197.904C12.1059 197.653 11.7549 197.527 11.3216 197.527C10.9402 197.527 10.6066 197.622 10.3206 197.813C10.0432 197.995 9.87424 198.268 9.81358 198.632H8.43558C8.47891 198.164 8.63491 197.765 8.90358 197.436C9.18091 197.098 9.52758 196.842 9.94358 196.669C10.3682 196.487 10.8319 196.396 11.3346 196.396C12.2359 196.396 12.9336 196.634 13.4276 197.111C13.9216 197.579 14.1686 198.22 14.1686 199.035V203H12.9726L12.8556 201.895C12.6736 202.25 12.4092 202.549 12.0626 202.792C11.7159 203.035 11.2609 203.156 10.6976 203.156ZM10.9706 202.038C11.3432 202.038 11.6552 201.951 11.9066 201.778C12.1666 201.596 12.3659 201.358 12.5046 201.063C12.6519 200.768 12.7429 200.443 12.7776 200.088H11.2436C10.6976 200.088 10.3076 200.183 10.0736 200.374C9.84824 200.565 9.73558 200.803 9.73558 201.089C9.73558 201.384 9.84391 201.618 10.0606 201.791C10.2859 201.956 10.5892 202.038 10.9706 202.038ZM18.3523 203C17.7197 203 17.217 202.848 16.8443 202.545C16.4717 202.233 16.2853 201.683 16.2853 200.894V197.709H15.1803V196.552H16.2853L16.4543 194.914H17.6633V196.552H19.4833V197.709H17.6633V200.894C17.6633 201.249 17.737 201.496 17.8843 201.635C18.0403 201.765 18.3047 201.83 18.6773 201.83H19.4183V203H18.3523Z" fill="#949494"/>
<rect x="39" y="183" width="13" height="28" rx="4" fill="#277758"/>
<rect x="53" y="183" width="13" height="28" rx="4" fill="#277758"/>
<rect x="67" y="183" width="13" height="28" rx="4" fill="#277758"/>
<rect x="81" y="183" width="13" height="28" rx="4" fill="#277758"/>
<rect x="95" y="183" width="13" height="28" rx="4" fill="#277758"/>
<rect x="109" y="183" width="13" height="28" rx="4" fill="#27A574"/>
<rect x="123" y="183" width="13" height="28" rx="4" fill="#F5C000"/>
<rect x="137" y="183" width="13" height="28" rx="4" fill="#F5C000"/>
<rect x="151" y="183" width="13" height="28" rx="4" fill="#F5C000"/>
<rect x="165" y="183" width="13" height="28" rx="4" fill="#27A574"/>
<rect x="179" y="183" width="13" height="28" rx="4" fill="#27A574"/>
<rect x="193" y="183" width="13" height="28" rx="4" fill="#277758"/>
<rect x="207" y="183" width="13" height="28" rx="4" fill="#277758"/>
<rect x="221" y="183" width="13" height="28" rx="4" fill="#277758"/>
<rect x="235" y="183" width="13" height="28" rx="4" fill="#277758"/>
<rect x="249" y="183" width="13" height="28" rx="4" fill="#277758"/>
<rect x="263" y="183" width="13" height="28" rx="4" fill="#277758"/>
<rect x="277" y="183" width="13" height="28" rx="4" fill="#277758"/>
<rect x="291" y="183" width="13" height="28" rx="4" fill="#277758"/>
<rect x="305" y="183" width="13" height="28" rx="4" fill="#277758"/>
<rect x="319" y="183" width="13" height="28" rx="4" fill="#277758"/>
<rect x="333" y="183" width="13" height="28" rx="4" fill="#277758"/>
<rect x="347" y="183" width="13" height="28" rx="4" fill="#277758"/>
<rect x="361" y="183" width="13" height="28" rx="4" fill="#277758"/>
<path d="M3.926 232.156C3.25867 232.156 2.67367 232.039 2.171 231.805C1.66833 231.571 1.274 231.237 0.988 230.804C0.710667 230.371 0.567667 229.855 0.559 229.257H2.015C2.02367 229.742 2.19267 230.154 2.522 230.492C2.85133 230.83 3.315 230.999 3.913 230.999C4.44167 230.999 4.85333 230.873 5.148 230.622C5.45133 230.362 5.603 230.033 5.603 229.634C5.603 229.313 5.52933 229.053 5.382 228.854C5.24333 228.655 5.04833 228.49 4.797 228.36C4.55433 228.23 4.27267 228.113 3.952 228.009C3.63133 227.905 3.29333 227.792 2.938 227.671C2.236 227.437 1.70733 227.134 1.352 226.761C1.00533 226.388 0.832 225.899 0.832 225.292C0.823333 224.781 0.940333 224.334 1.183 223.953C1.43433 223.572 1.781 223.277 2.223 223.069C2.67367 222.852 3.198 222.744 3.796 222.744C4.38533 222.744 4.901 222.852 5.343 223.069C5.79367 223.286 6.14467 223.589 6.396 223.979C6.64733 224.36 6.77733 224.807 6.786 225.318H5.33C5.33 225.084 5.26933 224.863 5.148 224.655C5.02667 224.438 4.849 224.261 4.615 224.122C4.381 223.983 4.095 223.914 3.757 223.914C3.32367 223.905 2.964 224.014 2.678 224.239C2.40067 224.464 2.262 224.776 2.262 225.175C2.262 225.53 2.366 225.803 2.574 225.994C2.782 226.185 3.068 226.345 3.432 226.475C3.796 226.596 4.212 226.739 4.68 226.904C5.13067 227.051 5.53367 227.229 5.889 227.437C6.24433 227.645 6.526 227.918 6.734 228.256C6.95067 228.594 7.059 229.023 7.059 229.543C7.059 230.002 6.942 230.431 6.708 230.83C6.474 231.22 6.123 231.541 5.655 231.792C5.187 232.035 4.61067 232.156 3.926 232.156ZM10.8926 232.156C10.1126 232.156 9.49724 231.913 9.04658 231.428C8.60458 230.943 8.38358 230.219 8.38358 229.257V225.552H9.76158V229.114C9.76158 230.362 10.2729 230.986 11.2956 230.986C11.8069 230.986 12.2272 230.804 12.5566 230.44C12.8859 230.076 13.0506 229.556 13.0506 228.88V225.552H14.4286V232H13.2066L13.1026 230.869C12.9032 231.268 12.6086 231.584 12.2186 231.818C11.8372 232.043 11.3952 232.156 10.8926 232.156ZM16.1815 232V225.552H17.4035L17.5075 226.683C17.7069 226.284 17.9972 225.972 18.3785 225.747C18.7685 225.513 19.2149 225.396 19.7175 225.396C20.4975 225.396 21.1085 225.639 21.5505 226.124C22.0012 226.609 22.2265 227.333 22.2265 228.295V232H20.8615V228.438C20.8615 227.19 20.3502 226.566 19.3275 226.566C18.8162 226.566 18.3915 226.748 18.0535 227.112C17.7242 227.476 17.5595 227.996 17.5595 228.672V232H16.1815Z" fill="#949494"/>
<rect x="39" y="212" width="13" height="28" rx="4" fill="#277758"/>
<rect x="53" y="212" width="13" height="28" rx="4" fill="#277758"/>
<rect x="67" y="212" width="13" height="28" rx="4" fill="#277758"/>
<rect x="81" y="212" width="13" height="28" rx="4" fill="#277758"/>
<rect x="95" y="212" width="13" height="28" rx="4" fill="#277758"/>
<rect x="109" y="212" width="13" height="28" rx="4" fill="#277758"/>
<rect x="123" y="212" width="13" height="28" rx="4" fill="#277758"/>
<rect x="137" y="212" width="13" height="28" rx="4" fill="#277758"/>
<rect x="151" y="212" width="13" height="28" rx="4" fill="#277758"/>
<rect x="165" y="212" width="13" height="28" rx="4" fill="#277758"/>
<rect x="179" y="212" width="13" height="28" rx="4" fill="#277758"/>
<rect x="193" y="212" width="13" height="28" rx="4" fill="#277758"/>
<rect x="207" y="212" width="13" height="28" rx="4" fill="#277758"/>
<rect x="221" y="212" width="13" height="28" rx="4" fill="#277758"/>
<rect x="235" y="212" width="13" height="28" rx="4" fill="#277758"/>
<rect x="249" y="212" width="13" height="28" rx="4" fill="#277758"/>
<rect x="263" y="212" width="13" height="28" rx="4" fill="#277758"/>
<rect x="277" y="212" width="13" height="28" rx="4" fill="#277758"/>
<rect x="291" y="212" width="13" height="28" rx="4" fill="#277758"/>
<rect x="305" y="212" width="13" height="28" rx="4" fill="#277758"/>
<rect x="319" y="212" width="13" height="28" rx="4" fill="#277758"/>
<rect x="333" y="212" width="13" height="28" rx="4" fill="#277758"/>
<rect x="347" y="212" width="13" height="28" rx="4" fill="#277758"/>
<rect x="361" y="212" width="13" height="28" rx="4" fill="#277758"/>
<path d="M247 6L253 12L247 18" stroke="#F1F1F1" stroke-width="2" stroke-linecap="round" stroke-linejoin="round"/>
<path d="M166 6L160 12L166 18" stroke="#949494" stroke-width="2" stroke-linecap="round" stroke-linejoin="round"/>
<path d="M188.026 18V16.632C188.842 15.984 189.622 15.33 190.366 14.67C191.11 14.01 191.77 13.362 192.346 12.726C192.934 12.078 193.396 11.448 193.732 10.836C194.068 10.212 194.236 9.612 194.236 9.036C194.236 8.652 194.17 8.292 194.038 7.956C193.906 7.608 193.69 7.332 193.39 7.128C193.09 6.912 192.688 6.804 192.184 6.804C191.428 6.804 190.858 7.044 190.474 7.524C190.102 8.004 189.922 8.58 189.934 9.252H188.08C188.092 8.364 188.278 7.62 188.638 7.02C189.01 6.42 189.502 5.964 190.114 5.652C190.738 5.34 191.44 5.184 192.22 5.184C193.408 5.184 194.356 5.52 195.064 6.192C195.784 6.852 196.144 7.776 196.144 8.964C196.144 9.672 195.97 10.374 195.622 11.07C195.286 11.766 194.842 12.438 194.29 13.086C193.75 13.722 193.168 14.322 192.544 14.886C191.92 15.45 191.326 15.96 190.762 16.416H196.522V18H188.026ZM203.478 18.216C202.338 18.216 201.354 17.946 200.526 17.406C199.71 16.854 199.08 16.092 198.636 15.12C198.204 14.136 197.988 12.996 197.988 11.7C197.988 10.404 198.204 9.27 198.636 8.298C199.08 7.314 199.71 6.552 200.526 6.012C201.354 5.46 202.338 5.184 203.478 5.184C204.618 5.184 205.596 5.46 206.412 6.012C207.228 6.552 207.852 7.314 208.284 8.298C208.728 9.27 208.95 10.404 208.95 11.7C208.95 12.996 208.728 14.136 208.284 15.12C207.852 16.092 207.228 16.854 206.412 17.406C205.596 17.946 204.618 18.216 203.478 18.216ZM203.478 16.506C204.162 16.506 204.768 16.314 205.296 15.93C205.836 15.546 206.256 14.994 206.556 14.274C206.856 13.554 207.006 12.696 207.006 11.7C207.006 10.704 206.856 9.846 206.556 9.126C206.256 8.406 205.836 7.854 205.296 7.47C204.768 7.086 204.162 6.894 203.478 6.894C202.782 6.894 202.17 7.086 201.642 7.47C201.114 7.854 200.7 8.406 200.4 9.126C200.1 9.846 199.95 10.704 199.95 11.7C199.95 12.696 200.1 13.554 200.4 14.274C200.7 14.994 201.114 15.546 201.642 15.93C202.17 16.314 202.782 16.506 203.478 16.506ZM210.684 18V16.632C211.5 15.984 212.28 15.33 213.024 14.67C213.768 14.01 214.428 13.362 215.004 12.726C215.592 12.078 216.054 11.448 216.39 10.836C216.726 10.212 216.894 9.612 216.894 9.036C216.894 8.652 216.828 8.292 216.696 7.956C216.564 7.608 216.348 7.332 216.048 7.128C215.748 6.912 215.346 6.804 214.842 6.804C214.086 6.804 213.516 7.044 213.132 7.524C212.76 8.004 212.58 8.58 212.592 9.252H210.738C210.75 8.364 210.936 7.62 211.296 7.02C211.668 6.42 212.16 5.964 212.772 5.652C213.396 5.34 214.098 5.184 214.878 5.184C216.066 5.184 217.014 5.52 217.722 6.192C218.442 6.852 218.802 7.776 218.802 8.964C218.802 9.672 218.628 10.374 218.28 11.07C217.944 11.766 217.5 12.438 216.948 13.086C216.408 13.722 215.826 14.322 215.202 14.886C214.578 15.45 213.984 15.96 213.42 16.416H219.18V18H210.684ZM222.533 18V7.56L220.499 8.028V6.624L223.289 5.4H224.513V18H222.533Z" fill="#949494"/>
</svg>
