<svg width="117" height="108" viewBox="0 0 117 108" fill="none" xmlns="http://www.w3.org/2000/svg">
<path d="M26.9245 48.2161C26.0005 48.2161 25.2205 48.0421 24.5845 47.6941C23.9485 47.3461 23.4325 46.8841 23.0365 46.3081C22.6525 45.7321 22.3765 45.0841 22.2085 44.3641C22.0405 43.6441 21.9565 42.9061 21.9565 42.1501C21.9565 40.7581 22.1485 39.5401 22.5325 38.4961C22.9285 37.4521 23.4925 36.6421 24.2245 36.0661C24.9565 35.4781 25.8445 35.1841 26.8885 35.1841C27.7165 35.1841 28.4245 35.3461 29.0125 35.6701C29.6005 35.9941 30.0565 36.4261 30.3805 36.9661C30.7165 37.5061 30.9205 38.0941 30.9925 38.7301H29.2105C29.1025 38.1061 28.8445 37.6261 28.4365 37.2901C28.0285 36.9541 27.5065 36.7861 26.8705 36.7861C25.9945 36.7861 25.2685 37.2001 24.6925 38.0281C24.1285 38.8441 23.8285 40.1041 23.7925 41.8081C24.0805 41.2801 24.5245 40.8301 25.1245 40.4581C25.7365 40.0861 26.4385 39.9001 27.2305 39.9001C27.9385 39.9001 28.5985 40.0681 29.2105 40.4041C29.8345 40.7401 30.3385 41.2141 30.7225 41.8261C31.1185 42.4261 31.3165 43.1401 31.3165 43.9681C31.3165 44.7001 31.1365 45.3901 30.7765 46.0381C30.4165 46.6861 29.9065 47.2141 29.2465 47.6221C28.5985 48.0181 27.8245 48.2161 26.9245 48.2161ZM26.8165 46.5601C27.3205 46.5601 27.7705 46.4521 28.1665 46.2361C28.5625 46.0201 28.8745 45.7261 29.1025 45.3541C29.3305 44.9701 29.4445 44.5381 29.4445 44.0581C29.4445 43.2901 29.1925 42.6781 28.6885 42.2221C28.1965 41.7661 27.5665 41.5381 26.7985 41.5381C26.2945 41.5381 25.8385 41.6521 25.4305 41.8801C25.0345 42.1081 24.7225 42.4141 24.4945 42.7981C24.2665 43.1701 24.1525 43.5841 24.1525 44.0401C24.1525 44.5321 24.2665 44.9701 24.4945 45.3541C24.7345 45.7261 25.0525 46.0201 25.4485 46.2361C25.8565 46.4521 26.3125 46.5601 26.8165 46.5601ZM38.7116 48.2161C37.5716 48.2161 36.5876 47.9461 35.7596 47.4061C34.9436 46.8541 34.3136 46.0921 33.8696 45.1201C33.4376 44.1361 33.2216 42.9961 33.2216 41.7001C33.2216 40.4041 33.4376 39.2701 33.8696 38.2981C34.3136 37.3141 34.9436 36.5521 35.7596 36.0121C36.5876 35.4601 37.5716 35.1841 38.7116 35.1841C39.8516 35.1841 40.8296 35.4601 41.6456 36.0121C42.4616 36.5521 43.0856 37.3141 43.5176 38.2981C43.9616 39.2701 44.1836 40.4041 44.1836 41.7001C44.1836 42.9961 43.9616 44.1361 43.5176 45.1201C43.0856 46.0921 42.4616 46.8541 41.6456 47.4061C40.8296 47.9461 39.8516 48.2161 38.7116 48.2161ZM38.7116 46.5061C39.3956 46.5061 40.0016 46.3141 40.5296 45.9301C41.0696 45.5461 41.4896 44.9941 41.7896 44.2741C42.0896 43.5541 42.2396 42.6961 42.2396 41.7001C42.2396 40.7041 42.0896 39.8461 41.7896 39.1261C41.4896 38.4061 41.0696 37.8541 40.5296 37.4701C40.0016 37.0861 39.3956 36.8941 38.7116 36.8941C38.0156 36.8941 37.4036 37.0861 36.8756 37.4701C36.3476 37.8541 35.9336 38.4061 35.6336 39.1261C35.3336 39.8461 35.1836 40.7041 35.1836 41.7001C35.1836 42.6961 35.3336 43.5541 35.6336 44.2741C35.9336 44.9941 36.3476 45.5461 36.8756 45.9301C37.4036 46.3141 38.0156 46.5061 38.7116 46.5061ZM54.8414 48.2161C53.9774 48.2161 53.2154 48.0121 52.5554 47.6041C51.8954 47.1961 51.3794 46.6381 51.0074 45.9301C50.6354 45.2221 50.4494 44.4181 50.4494 43.5181C50.4494 42.6181 50.6354 41.8201 51.0074 41.1241C51.3794 40.4161 51.8954 39.8641 52.5554 39.4681C53.2274 39.0601 53.9954 38.8561 54.8594 38.8561C55.5674 38.8561 56.1854 38.9941 56.7134 39.2701C57.2534 39.5461 57.6734 39.9361 57.9734 40.4401V35.0401H59.8814V48.0001H58.1714L57.9734 46.6141C57.6854 47.0341 57.2894 47.4061 56.7854 47.7301C56.2814 48.0541 55.6334 48.2161 54.8414 48.2161ZM55.1834 46.5601C55.9994 46.5601 56.6654 46.2781 57.1814 45.7141C57.7094 45.1501 57.9734 44.4241 57.9734 43.5361C57.9734 42.6361 57.7094 41.9101 57.1814 41.3581C56.6654 40.7941 55.9994 40.5121 55.1834 40.5121C54.3674 40.5121 53.6954 40.7941 53.1674 41.3581C52.6394 41.9101 52.3754 42.6361 52.3754 43.5361C52.3754 44.1241 52.4954 44.6461 52.7354 45.1021C52.9754 45.5581 53.3054 45.9181 53.7254 46.1821C54.1574 46.4341 54.6434 46.5601 55.1834 46.5601ZM65.3111 48.2161C64.5551 48.2161 63.9311 48.0901 63.4391 47.8381C62.9471 47.5861 62.5811 47.2561 62.3411 46.8481C62.1011 46.4281 61.9811 45.9721 61.9811 45.4801C61.9811 44.6161 62.3171 43.9321 62.9891 43.4281C63.6611 42.9241 64.6211 42.6721 65.8691 42.6721H68.2091V42.5101C68.2091 41.8141 68.0171 41.2921 67.6331 40.9441C67.2611 40.5961 66.7751 40.4221 66.1751 40.4221C65.6471 40.4221 65.1851 40.5541 64.7891 40.8181C64.4051 41.0701 64.1711 41.4481 64.0871 41.9521H62.1791C62.2391 41.3041 62.4551 40.7521 62.8271 40.2961C63.2111 39.8281 63.6911 39.4741 64.2671 39.2341C64.8551 38.9821 65.4971 38.8561 66.1931 38.8561C67.4411 38.8561 68.4071 39.1861 69.0911 39.8461C69.7751 40.4941 70.1171 41.3821 70.1171 42.5101V48.0001H68.4611L68.2991 46.4701C68.0471 46.9621 67.6811 47.3761 67.2011 47.7121C66.7211 48.0481 66.0911 48.2161 65.3111 48.2161ZM65.6891 46.6681C66.2051 46.6681 66.6371 46.5481 66.9851 46.3081C67.3451 46.0561 67.6211 45.7261 67.8131 45.3181C68.0171 44.9101 68.1431 44.4601 68.1911 43.9681H66.0671C65.3111 43.9681 64.7711 44.1001 64.4471 44.3641C64.1351 44.6281 63.9791 44.9581 63.9791 45.3541C63.9791 45.7621 64.1291 46.0861 64.4291 46.3261C64.7411 46.5541 65.1611 46.6681 65.6891 46.6681ZM73.1045 51.9601L75.2465 47.2621H74.7245L71.1965 39.0721H73.2665L76.0025 45.6781L78.8645 39.0721H80.8805L75.1205 51.9601H73.1045ZM85.5386 48.2161C84.4106 48.2161 83.4806 47.9401 82.7486 47.3881C82.0166 46.8361 81.5966 46.1041 81.4886 45.1921H83.4146C83.5106 45.6001 83.7386 45.9541 84.0986 46.2541C84.4586 46.5421 84.9326 46.6861 85.5206 46.6861C86.0966 46.6861 86.5166 46.5661 86.7806 46.3261C87.0446 46.0861 87.1766 45.8101 87.1766 45.4981C87.1766 45.0421 86.9906 44.7361 86.6186 44.5801C86.2586 44.4121 85.7546 44.2621 85.1066 44.1301C84.6026 44.0221 84.0986 43.8781 83.5946 43.6981C83.1026 43.5181 82.6886 43.2661 82.3526 42.9421C82.0286 42.6061 81.8666 42.1561 81.8666 41.5921C81.8666 40.8121 82.1666 40.1641 82.7666 39.6481C83.3666 39.1201 84.2066 38.8561 85.2866 38.8561C86.2826 38.8561 87.0866 39.0961 87.6986 39.5761C88.3226 40.0561 88.6886 40.7341 88.7966 41.6101H86.9606C86.9006 41.2261 86.7206 40.9261 86.4206 40.7101C86.1326 40.4941 85.7426 40.3861 85.2506 40.3861C84.7706 40.3861 84.3986 40.4881 84.1346 40.6921C83.8706 40.8841 83.7386 41.1361 83.7386 41.4481C83.7386 41.7601 83.9186 42.0061 84.2786 42.1861C84.6506 42.3661 85.1366 42.5281 85.7366 42.6721C86.3366 42.8041 86.8886 42.9601 87.3926 43.1401C87.9086 43.3081 88.3226 43.5601 88.6346 43.8961C88.9466 44.2321 89.1026 44.7241 89.1026 45.3721C89.1146 46.1881 88.7966 46.8661 88.1486 47.4061C87.5126 47.9461 86.6426 48.2161 85.5386 48.2161Z" fill="#3D3D3D"/>
<path d="M4.858 77.168C3.99 77.168 3.23867 76.958 2.604 76.538C1.97867 76.1087 1.498 75.516 1.162 74.76C0.826 73.9947 0.658 73.108 0.658 72.1C0.658 71.092 0.826 70.21 1.162 69.454C1.498 68.6887 1.97867 68.096 2.604 67.676C3.23867 67.2467 3.99 67.032 4.858 67.032C5.726 67.032 6.47267 67.2467 7.098 67.676C7.72333 68.096 8.204 68.6887 8.54 69.454C8.876 70.21 9.044 71.092 9.044 72.1C9.044 73.108 8.876 73.9947 8.54 74.76C8.204 75.516 7.72333 76.1087 7.098 76.538C6.47267 76.958 5.726 77.168 4.858 77.168ZM4.858 76.132C5.42733 76.132 5.936 75.9733 6.384 75.656C6.84133 75.3293 7.196 74.8673 7.448 74.27C7.70933 73.6633 7.84 72.94 7.84 72.1C7.84 71.26 7.70933 70.5413 7.448 69.944C7.196 69.3467 6.84133 68.8893 6.384 68.572C5.936 68.2453 5.42733 68.082 4.858 68.082C4.27933 68.082 3.766 68.2453 3.318 68.572C2.87 68.8893 2.51533 69.3467 2.254 69.944C1.99267 70.5413 1.862 71.26 1.862 72.1C1.862 72.94 1.99267 73.6633 2.254 74.27C2.51533 74.8673 2.87 75.3293 3.318 75.656C3.766 75.9733 4.27933 76.132 4.858 76.132Z" fill="#3D3D3D"/>
<path d="M97.002 77V68.516L95.42 68.866V68.054L97.394 67.2H98.192V77H97.002ZM100.107 77V76.174C100.769 75.6513 101.395 75.124 101.983 74.592C102.58 74.0507 103.107 73.5187 103.565 72.996C104.031 72.4733 104.395 71.96 104.657 71.456C104.927 70.952 105.063 70.4667 105.063 70C105.063 69.6547 105.002 69.3327 104.881 69.034C104.769 68.7353 104.582 68.4973 104.321 68.32C104.059 68.1333 103.705 68.04 103.257 68.04C102.827 68.04 102.468 68.138 102.179 68.334C101.889 68.5207 101.67 68.7727 101.521 69.09C101.381 69.4073 101.311 69.748 101.311 70.112H100.177C100.177 69.468 100.312 68.9173 100.583 68.46C100.853 67.9933 101.222 67.6387 101.689 67.396C102.155 67.1533 102.683 67.032 103.271 67.032C104.139 67.032 104.848 67.2793 105.399 67.774C105.959 68.2593 106.239 68.9873 106.239 69.958C106.239 70.5367 106.094 71.1107 105.805 71.68C105.515 72.24 105.147 72.786 104.699 73.318C104.251 73.8407 103.77 74.3307 103.257 74.788C102.753 75.2453 102.281 75.656 101.843 76.02H106.575V77H100.107ZM111.958 77.168C111.09 77.168 110.338 76.958 109.704 76.538C109.078 76.1087 108.598 75.516 108.262 74.76C107.926 73.9947 107.758 73.108 107.758 72.1C107.758 71.092 107.926 70.21 108.262 69.454C108.598 68.6887 109.078 68.096 109.704 67.676C110.338 67.2467 111.09 67.032 111.958 67.032C112.826 67.032 113.572 67.2467 114.198 67.676C114.823 68.096 115.304 68.6887 115.64 69.454C115.976 70.21 116.144 71.092 116.144 72.1C116.144 73.108 115.976 73.9947 115.64 74.76C115.304 75.516 114.823 76.1087 114.198 76.538C113.572 76.958 112.826 77.168 111.958 77.168ZM111.958 76.132C112.527 76.132 113.036 75.9733 113.484 75.656C113.941 75.3293 114.296 74.8673 114.548 74.27C114.809 73.6633 114.94 72.94 114.94 72.1C114.94 71.26 114.809 70.5413 114.548 69.944C114.296 69.3467 113.941 68.8893 113.484 68.572C113.036 68.2453 112.527 68.082 111.958 68.082C111.379 68.082 110.866 68.2453 110.418 68.572C109.97 68.8893 109.615 69.3467 109.354 69.944C109.092 70.5413 108.962 71.26 108.962 72.1C108.962 72.94 109.092 73.6633 109.354 74.27C109.615 74.8673 109.97 75.3293 110.418 75.656C110.866 75.9733 111.379 76.132 111.958 76.132Z" fill="#3D3D3D"/>
<path d="M2.05093 102V92.9H3.42893L7.99193 99.751V92.9H9.36993V102H7.99193L3.42893 95.149V102H2.05093ZM14.1809 102.156C13.5483 102.156 12.9849 102.017 12.4909 101.74C12.0056 101.454 11.6243 101.06 11.3469 100.557C11.0696 100.054 10.9309 99.4693 10.9309 98.802C10.9309 98.126 11.0653 97.5323 11.3339 97.021C11.6113 96.5097 11.9926 96.111 12.4779 95.825C12.9719 95.539 13.5439 95.396 14.1939 95.396C14.8266 95.396 15.3769 95.539 15.8449 95.825C16.3129 96.1023 16.6769 96.475 16.9369 96.943C17.1969 97.411 17.3269 97.9267 17.3269 98.49C17.3269 98.5767 17.3226 98.672 17.3139 98.776C17.3139 98.8713 17.3096 98.9797 17.3009 99.101H12.2829C12.3263 99.725 12.5299 100.202 12.8939 100.531C13.2666 100.852 13.6956 101.012 14.1809 101.012C14.5709 101.012 14.8959 100.925 15.1559 100.752C15.4246 100.57 15.6239 100.327 15.7539 100.024H17.1319C16.9586 100.631 16.6119 101.138 16.0919 101.545C15.5806 101.952 14.9436 102.156 14.1809 102.156ZM14.1809 96.527C13.7216 96.527 13.3143 96.6657 12.9589 96.943C12.6036 97.2117 12.3869 97.619 12.3089 98.165H15.9489C15.9229 97.6623 15.7453 97.2637 15.4159 96.969C15.0866 96.6743 14.6749 96.527 14.1809 96.527ZM17.7519 102L20.0399 98.776L17.7519 95.552H19.2209L20.9499 98.022L22.6659 95.552H24.1479L21.8599 98.776L24.1479 102H22.6659L20.9499 99.53L19.2209 102H17.7519ZM27.9734 102C27.3408 102 26.8381 101.848 26.4654 101.545C26.0928 101.233 25.9064 100.683 25.9064 99.894V96.709H24.8014V95.552H25.9064L26.0754 93.914H27.2844V95.552H29.1044V96.709H27.2844V99.894C27.2844 100.249 27.3581 100.496 27.5054 100.635C27.6614 100.765 27.9258 100.83 28.2984 100.83H29.0394V102H27.9734ZM33.8527 102V92.9H35.4777L38.5587 98.958L41.6267 92.9H43.2517V102H41.8737V95.279L39.0917 100.7H38.0257L35.2307 95.292V102H33.8527ZM47.2327 102.156C46.6867 102.156 46.2361 102.065 45.8807 101.883C45.5254 101.701 45.2611 101.463 45.0877 101.168C44.9144 100.865 44.8277 100.535 44.8277 100.18C44.8277 99.556 45.0704 99.062 45.5557 98.698C46.0411 98.334 46.7344 98.152 47.6357 98.152H49.3257V98.035C49.3257 97.5323 49.1871 97.1553 48.9097 96.904C48.6411 96.6527 48.2901 96.527 47.8567 96.527C47.4754 96.527 47.1417 96.6223 46.8557 96.813C46.5784 96.995 46.4094 97.268 46.3487 97.632H44.9707C45.0141 97.164 45.1701 96.7653 45.4387 96.436C45.7161 96.098 46.0627 95.8423 46.4787 95.669C46.9034 95.487 47.3671 95.396 47.8697 95.396C48.7711 95.396 49.4687 95.6343 49.9627 96.111C50.4567 96.579 50.7037 97.2203 50.7037 98.035V102H49.5077L49.3907 100.895C49.2087 101.25 48.9444 101.549 48.5977 101.792C48.2511 102.035 47.7961 102.156 47.2327 102.156ZM47.5057 101.038C47.8784 101.038 48.1904 100.951 48.4417 100.778C48.7017 100.596 48.9011 100.358 49.0397 100.063C49.1871 99.7683 49.2781 99.4433 49.3127 99.088H47.7787C47.2327 99.088 46.8427 99.1833 46.6087 99.374C46.3834 99.5647 46.2707 99.803 46.2707 100.089C46.2707 100.384 46.3791 100.618 46.5957 100.791C46.8211 100.956 47.1244 101.038 47.5057 101.038ZM53.0905 94.33C52.8305 94.33 52.6138 94.252 52.4405 94.096C52.2758 93.9313 52.1935 93.7277 52.1935 93.485C52.1935 93.2423 52.2758 93.043 52.4405 92.887C52.6138 92.7223 52.8305 92.64 53.0905 92.64C53.3505 92.64 53.5628 92.7223 53.7275 92.887C53.9008 93.043 53.9875 93.2423 53.9875 93.485C53.9875 93.7277 53.9008 93.9313 53.7275 94.096C53.5628 94.252 53.3505 94.33 53.0905 94.33ZM52.4015 102V95.552H53.7795V102H52.4015ZM55.5985 102V95.552H56.8205L56.9245 96.683C57.1239 96.2843 57.4142 95.9723 57.7955 95.747C58.1855 95.513 58.6319 95.396 59.1345 95.396C59.9145 95.396 60.5255 95.6387 60.9675 96.124C61.4182 96.6093 61.6435 97.333 61.6435 98.295V102H60.2785V98.438C60.2785 97.19 59.7672 96.566 58.7445 96.566C58.2332 96.566 57.8085 96.748 57.4705 97.112C57.1412 97.476 56.9765 97.996 56.9765 98.672V102H55.5985ZM65.9705 102C65.3378 102 64.8352 101.848 64.4625 101.545C64.0898 101.233 63.9035 100.683 63.9035 99.894V96.709H62.7985V95.552H63.9035L64.0725 93.914H65.2815V95.552H67.1015V96.709H65.2815V99.894C65.2815 100.249 65.3552 100.496 65.5025 100.635C65.6585 100.765 65.9228 100.83 66.2955 100.83H67.0365V102H65.9705ZM71.3733 102.156C70.7407 102.156 70.1773 102.017 69.6833 101.74C69.198 101.454 68.8167 101.06 68.5393 100.557C68.262 100.054 68.1233 99.4693 68.1233 98.802C68.1233 98.126 68.2577 97.5323 68.5263 97.021C68.8037 96.5097 69.185 96.111 69.6703 95.825C70.1643 95.539 70.7363 95.396 71.3863 95.396C72.019 95.396 72.5693 95.539 73.0373 95.825C73.5053 96.1023 73.8693 96.475 74.1293 96.943C74.3893 97.411 74.5193 97.9267 74.5193 98.49C74.5193 98.5767 74.515 98.672 74.5063 98.776C74.5063 98.8713 74.502 98.9797 74.4933 99.101H69.4753C69.5187 99.725 69.7223 100.202 70.0863 100.531C70.459 100.852 70.888 101.012 71.3733 101.012C71.7633 101.012 72.0883 100.925 72.3483 100.752C72.617 100.57 72.8163 100.327 72.9463 100.024H74.3243C74.151 100.631 73.8043 101.138 73.2843 101.545C72.773 101.952 72.136 102.156 71.3733 102.156ZM71.3733 96.527C70.914 96.527 70.5067 96.6657 70.1513 96.943C69.796 97.2117 69.5793 97.619 69.5013 98.165H73.1413C73.1153 97.6623 72.9377 97.2637 72.6083 96.969C72.279 96.6743 71.8673 96.527 71.3733 96.527ZM75.9491 102V95.552H77.1711L77.2751 96.683C77.4745 96.2843 77.7648 95.9723 78.1461 95.747C78.5361 95.513 78.9825 95.396 79.4851 95.396C80.2651 95.396 80.8761 95.6387 81.3181 96.124C81.7688 96.6093 81.9941 97.333 81.9941 98.295V102H80.6291V98.438C80.6291 97.19 80.1178 96.566 79.0951 96.566C78.5838 96.566 78.1591 96.748 77.8211 97.112C77.4918 97.476 77.3271 97.996 77.3271 98.672V102H75.9491ZM85.8011 102.156C85.2551 102.156 84.8044 102.065 84.4491 101.883C84.0938 101.701 83.8294 101.463 83.6561 101.168C83.4828 100.865 83.3961 100.535 83.3961 100.18C83.3961 99.556 83.6388 99.062 84.1241 98.698C84.6094 98.334 85.3028 98.152 86.2041 98.152H87.8941V98.035C87.8941 97.5323 87.7554 97.1553 87.4781 96.904C87.2094 96.6527 86.8584 96.527 86.4251 96.527C86.0438 96.527 85.7101 96.6223 85.4241 96.813C85.1468 96.995 84.9778 97.268 84.9171 97.632H83.5391C83.5824 97.164 83.7384 96.7653 84.0071 96.436C84.2844 96.098 84.6311 95.8423 85.0471 95.669C85.4718 95.487 85.9354 95.396 86.4381 95.396C87.3394 95.396 88.0371 95.6343 88.5311 96.111C89.0251 96.579 89.2721 97.2203 89.2721 98.035V102H88.0761L87.9591 100.895C87.7771 101.25 87.5128 101.549 87.1661 101.792C86.8194 102.035 86.3644 102.156 85.8011 102.156ZM86.0741 101.038C86.4468 101.038 86.7588 100.951 87.0101 100.778C87.2701 100.596 87.4694 100.358 87.6081 100.063C87.7554 99.7683 87.8464 99.4433 87.8811 99.088H86.3471C85.8011 99.088 85.4111 99.1833 85.1771 99.374C84.9518 99.5647 84.8391 99.803 84.8391 100.089C84.8391 100.384 84.9474 100.618 85.1641 100.791C85.3894 100.956 85.6928 101.038 86.0741 101.038ZM90.8788 102V95.552H92.1008L92.2048 96.683C92.4041 96.2843 92.6945 95.9723 93.0758 95.747C93.4658 95.513 93.9121 95.396 94.4148 95.396C95.1948 95.396 95.8058 95.6387 96.2478 96.124C96.6985 96.6093 96.9238 97.333 96.9238 98.295V102H95.5588V98.438C95.5588 97.19 95.0475 96.566 94.0248 96.566C93.5135 96.566 93.0888 96.748 92.7508 97.112C92.4215 97.476 92.2568 97.996 92.2568 98.672V102H90.8788ZM101.602 102.156C100.969 102.156 100.401 102.013 99.8988 101.727C99.4048 101.441 99.0148 101.047 98.7288 100.544C98.4514 100.033 98.3128 99.4433 98.3128 98.776C98.3128 98.1087 98.4514 97.5237 98.7288 97.021C99.0148 96.5097 99.4048 96.111 99.8988 95.825C100.401 95.539 100.969 95.396 101.602 95.396C102.399 95.396 103.066 95.604 103.604 96.02C104.15 96.436 104.501 96.9993 104.657 97.71H103.214C103.127 97.3547 102.936 97.0773 102.642 96.878C102.347 96.6787 102 96.579 101.602 96.579C101.264 96.579 100.952 96.6657 100.666 96.839C100.38 97.0037 100.15 97.2507 99.9768 97.58C99.8034 97.9007 99.7168 98.2993 99.7168 98.776C99.7168 99.2527 99.8034 99.6557 99.9768 99.985C100.15 100.306 100.38 100.553 100.666 100.726C100.952 100.899 101.264 100.986 101.602 100.986C102 100.986 102.347 100.886 102.642 100.687C102.936 100.488 103.127 100.206 103.214 99.842H104.657C104.509 100.535 104.163 101.094 103.617 101.519C103.071 101.944 102.399 102.156 101.602 102.156ZM109.167 102.156C108.535 102.156 107.971 102.017 107.477 101.74C106.992 101.454 106.611 101.06 106.333 100.557C106.056 100.054 105.917 99.4693 105.917 98.802C105.917 98.126 106.052 97.5323 106.32 97.021C106.598 96.5097 106.979 96.111 107.464 95.825C107.958 95.539 108.53 95.396 109.18 95.396C109.813 95.396 110.363 95.539 110.831 95.825C111.299 96.1023 111.663 96.475 111.923 96.943C112.183 97.411 112.313 97.9267 112.313 98.49C112.313 98.5767 112.309 98.672 112.3 98.776C112.3 98.8713 112.296 98.9797 112.287 99.101H107.269C107.313 99.725 107.516 100.202 107.88 100.531C108.253 100.852 108.682 101.012 109.167 101.012C109.557 101.012 109.882 100.925 110.142 100.752C110.411 100.57 110.61 100.327 110.74 100.024H112.118C111.945 100.631 111.598 101.138 111.078 101.545C110.567 101.952 109.93 102.156 109.167 102.156ZM109.167 96.527C108.708 96.527 108.301 96.6657 107.945 96.943C107.59 97.2117 107.373 97.619 107.295 98.165H110.935C110.909 97.6623 110.732 97.2637 110.402 96.969C110.073 96.6743 109.661 96.527 109.167 96.527Z" fill="#949494"/>
<path d="M6 54C6 47.4339 7.29329 40.9321 9.80602 34.8658C12.3188 28.7995 16.0017 23.2876 20.6447 18.6447C25.2876 14.0017 30.7996 10.3188 36.8658 7.80602C42.9321 5.29329 49.4339 4 56 4C62.5661 4 69.0679 5.29329 75.1342 7.80603C81.2005 10.3188 86.7124 14.0017 91.3553 18.6447C95.9983 23.2876 99.6812 28.7996 102.194 34.8658C104.707 40.9321 106 47.4339 106 54" stroke="#F1F1F1" stroke-width="8" stroke-linecap="round"/>
<path d="M6 54C6 42.7684 9.78157 31.8639 16.7353 23.0438C23.6891 14.2237 33.4099 8.00178 44.3314 5.38063" stroke="#27A574" stroke-width="8" stroke-linecap="round"/>
</svg>
