<svg width="113" height="108" viewBox="0 0 113 108" fill="none" xmlns="http://www.w3.org/2000/svg">
<path d="M29.6337 48.2161C28.7937 48.2161 28.0317 48.0661 27.3477 47.7661C26.6757 47.4541 26.1357 47.0221 25.7277 46.4701C25.3317 45.9181 25.1337 45.2701 25.1337 44.5261C25.1337 43.7701 25.3437 43.0921 25.7637 42.4921C26.1957 41.8921 26.7657 41.4841 27.4737 41.2681C26.8377 41.0161 26.3457 40.6501 25.9977 40.1701C25.6497 39.6781 25.4757 39.1381 25.4757 38.5501C25.4757 37.9381 25.6377 37.3801 25.9617 36.8761C26.2857 36.3601 26.7537 35.9521 27.3657 35.6521C27.9897 35.3401 28.7457 35.1841 29.6337 35.1841C30.5217 35.1841 31.2717 35.3401 31.8837 35.6521C32.5077 35.9521 32.9817 36.3601 33.3057 36.8761C33.6297 37.3801 33.7917 37.9381 33.7917 38.5501C33.7917 39.1261 33.6117 39.6661 33.2517 40.1701C32.9037 40.6621 32.4117 41.0281 31.7757 41.2681C32.4837 41.4961 33.0477 41.9101 33.4677 42.5101C33.8997 43.0981 34.1157 43.7701 34.1157 44.5261C34.1157 45.2701 33.9177 45.9181 33.5217 46.4701C33.1257 47.0221 32.5857 47.4541 31.9017 47.7661C31.2297 48.0661 30.4737 48.2161 29.6337 48.2161ZM29.6337 40.6561C30.3297 40.6561 30.8757 40.4761 31.2717 40.1161C31.6797 39.7561 31.8837 39.2941 31.8837 38.7301C31.8837 38.0941 31.6857 37.6081 31.2897 37.2721C30.8937 36.9361 30.3417 36.7681 29.6337 36.7681C28.9257 36.7681 28.3737 36.9361 27.9777 37.2721C27.5817 37.6081 27.3837 38.0941 27.3837 38.7301C27.3837 39.2941 27.5817 39.7561 27.9777 40.1161C28.3737 40.4761 28.9257 40.6561 29.6337 40.6561ZM29.6337 46.5961C30.4977 46.5961 31.1457 46.3921 31.5777 45.9841C32.0097 45.5641 32.2257 45.0301 32.2257 44.3821C32.2257 43.6621 31.9917 43.1101 31.5237 42.7261C31.0677 42.3301 30.4377 42.1321 29.6337 42.1321C28.8297 42.1321 28.1937 42.3301 27.7257 42.7261C27.2577 43.1101 27.0237 43.6621 27.0237 44.3821C27.0237 45.0301 27.2397 45.5641 27.6717 45.9841C28.1157 46.3921 28.7697 46.5961 29.6337 46.5961ZM42.001 51.9601L44.143 47.2621H43.621L40.093 39.0721H42.163L44.899 45.6781L47.761 39.0721H49.777L44.017 51.9601H42.001ZM54.7131 48.2161C53.8371 48.2161 53.0571 48.0241 52.3731 47.6401C51.7011 47.2441 51.1731 46.6981 50.7891 46.0021C50.4051 45.3061 50.2131 44.4961 50.2131 43.5721C50.2131 42.6361 50.3991 41.8141 50.7711 41.1061C51.1551 40.3981 51.6831 39.8461 52.3551 39.4501C53.0391 39.0541 53.8311 38.8561 54.7311 38.8561C55.6071 38.8561 56.3691 39.0541 57.0171 39.4501C57.6651 39.8341 58.1691 40.3501 58.5291 40.9981C58.8891 41.6461 59.0691 42.3601 59.0691 43.1401C59.0691 43.2601 59.0631 43.3921 59.0511 43.5361C59.0511 43.6681 59.0451 43.8181 59.0331 43.9861H52.0851C52.1451 44.8501 52.4271 45.5101 52.9311 45.9661C53.4471 46.4101 54.0411 46.6321 54.7131 46.6321C55.2531 46.6321 55.7031 46.5121 56.0631 46.2721C56.4351 46.0201 56.7111 45.6841 56.8911 45.2641H58.7991C58.5591 46.1041 58.0791 46.8061 57.3591 47.3701C56.6511 47.9341 55.7691 48.2161 54.7131 48.2161ZM54.7131 40.4221C54.0771 40.4221 53.5131 40.6141 53.0211 40.9981C52.5291 41.3701 52.2291 41.9341 52.1211 42.6901H57.1611C57.1251 41.9941 56.8791 41.4421 56.4231 41.0341C55.9671 40.6261 55.3971 40.4221 54.7131 40.4221ZM64.0728 48.2161C63.3168 48.2161 62.6928 48.0901 62.2008 47.8381C61.7088 47.5861 61.3428 47.2561 61.1028 46.8481C60.8628 46.4281 60.7428 45.9721 60.7428 45.4801C60.7428 44.6161 61.0788 43.9321 61.7508 43.4281C62.4228 42.9241 63.3828 42.6721 64.6308 42.6721H66.9708V42.5101C66.9708 41.8141 66.7788 41.2921 66.3948 40.9441C66.0228 40.5961 65.5368 40.4221 64.9368 40.4221C64.4088 40.4221 63.9468 40.5541 63.5508 40.8181C63.1668 41.0701 62.9328 41.4481 62.8488 41.9521H60.9408C61.0008 41.3041 61.2168 40.7521 61.5888 40.2961C61.9728 39.8281 62.4528 39.4741 63.0288 39.2341C63.6168 38.9821 64.2588 38.8561 64.9548 38.8561C66.2028 38.8561 67.1688 39.1861 67.8528 39.8461C68.5368 40.4941 68.8788 41.3821 68.8788 42.5101V48.0001H67.2228L67.0608 46.4701C66.8088 46.9621 66.4428 47.3761 65.9628 47.7121C65.4828 48.0481 64.8528 48.2161 64.0728 48.2161ZM64.4508 46.6681C64.9668 46.6681 65.3988 46.5481 65.7468 46.3081C66.1068 46.0561 66.3828 45.7261 66.5748 45.3181C66.7788 44.9101 66.9048 44.4601 66.9528 43.9681H64.8288C64.0728 43.9681 63.5328 44.1001 63.2088 44.3641C62.8968 44.6281 62.7408 44.9581 62.7408 45.3541C62.7408 45.7621 62.8908 46.0861 63.1908 46.3261C63.5028 46.5541 63.9228 46.6681 64.4508 46.6681ZM71.1035 48.0001V39.0721H72.8135L72.9755 40.7641C73.2875 40.1761 73.7195 39.7141 74.2715 39.3781C74.8355 39.0301 75.5135 38.8561 76.3055 38.8561V40.8541H75.7835C75.2555 40.8541 74.7815 40.9441 74.3615 41.1241C73.9535 41.2921 73.6235 41.5861 73.3715 42.0061C73.1315 42.4141 73.0115 42.9841 73.0115 43.7161V48.0001H71.1035ZM81.5054 48.2161C80.3774 48.2161 79.4474 47.9401 78.7154 47.3881C77.9834 46.8361 77.5634 46.1041 77.4554 45.1921H79.3814C79.4774 45.6001 79.7054 45.9541 80.0654 46.2541C80.4254 46.5421 80.8994 46.6861 81.4874 46.6861C82.0634 46.6861 82.4834 46.5661 82.7474 46.3261C83.0114 46.0861 83.1434 45.8101 83.1434 45.4981C83.1434 45.0421 82.9574 44.7361 82.5854 44.5801C82.2254 44.4121 81.7214 44.2621 81.0734 44.1301C80.5694 44.0221 80.0654 43.8781 79.5614 43.6981C79.0694 43.5181 78.6554 43.2661 78.3194 42.9421C77.9954 42.6061 77.8334 42.1561 77.8334 41.5921C77.8334 40.8121 78.1334 40.1641 78.7334 39.6481C79.3334 39.1201 80.1734 38.8561 81.2534 38.8561C82.2494 38.8561 83.0534 39.0961 83.6654 39.5761C84.2894 40.0561 84.6554 40.7341 84.7634 41.6101H82.9274C82.8674 41.2261 82.6874 40.9261 82.3874 40.7101C82.0994 40.4941 81.7094 40.3861 81.2174 40.3861C80.7374 40.3861 80.3654 40.4881 80.1014 40.6921C79.8374 40.8841 79.7054 41.1361 79.7054 41.4481C79.7054 41.7601 79.8854 42.0061 80.2454 42.1861C80.6174 42.3661 81.1034 42.5281 81.7034 42.6721C82.3034 42.8041 82.8554 42.9601 83.3594 43.1401C83.8754 43.3081 84.2894 43.5601 84.6014 43.8961C84.9134 44.2321 85.0694 44.7241 85.0694 45.3721C85.0814 46.1881 84.7634 46.8661 84.1154 47.4061C83.4794 47.9461 82.6094 48.2161 81.5054 48.2161Z" fill="#3D3D3D"/>
<path d="M4.858 77.168C3.99 77.168 3.23867 76.958 2.604 76.538C1.97867 76.1087 1.498 75.516 1.162 74.76C0.826 73.9947 0.658 73.108 0.658 72.1C0.658 71.092 0.826 70.21 1.162 69.454C1.498 68.6887 1.97867 68.096 2.604 67.676C3.23867 67.2467 3.99 67.032 4.858 67.032C5.726 67.032 6.47267 67.2467 7.098 67.676C7.72333 68.096 8.204 68.6887 8.54 69.454C8.876 70.21 9.044 71.092 9.044 72.1C9.044 73.108 8.876 73.9947 8.54 74.76C8.204 75.516 7.72333 76.1087 7.098 76.538C6.47267 76.958 5.726 77.168 4.858 77.168ZM4.858 76.132C5.42733 76.132 5.936 75.9733 6.384 75.656C6.84133 75.3293 7.196 74.8673 7.448 74.27C7.70933 73.6633 7.84 72.94 7.84 72.1C7.84 71.26 7.70933 70.5413 7.448 69.944C7.196 69.3467 6.84133 68.8893 6.384 68.572C5.936 68.2453 5.42733 68.082 4.858 68.082C4.27933 68.082 3.766 68.2453 3.318 68.572C2.87 68.8893 2.51533 69.3467 2.254 69.944C1.99267 70.5413 1.862 71.26 1.862 72.1C1.862 72.94 1.99267 73.6633 2.254 74.27C2.51533 74.8673 2.87 75.3293 3.318 75.656C3.766 75.9733 4.27933 76.132 4.858 76.132Z" fill="#3D3D3D"/>
<path d="M100.474 77V74.9H95.504V73.99L100.264 67.2H101.636V73.864H103.092V74.9H101.636V77H100.474ZM96.806 73.864H100.53V68.502L96.806 73.864ZM107.747 77.168C107.103 77.168 106.524 77.0513 106.011 76.818C105.497 76.5753 105.091 76.244 104.793 75.824C104.503 75.3947 104.359 74.9 104.359 74.34C104.359 73.7427 104.531 73.206 104.877 72.73C105.231 72.254 105.698 71.9367 106.277 71.778C105.745 71.6007 105.334 71.316 105.045 70.924C104.755 70.532 104.611 70.1027 104.611 69.636C104.611 69.16 104.737 68.726 104.989 68.334C105.241 67.9327 105.6 67.6153 106.067 67.382C106.533 67.1487 107.093 67.032 107.747 67.032C108.4 67.032 108.96 67.1487 109.427 67.382C109.893 67.6153 110.253 67.9327 110.505 68.334C110.757 68.726 110.883 69.16 110.883 69.636C110.883 70.0933 110.738 70.5227 110.449 70.924C110.159 71.316 109.749 71.6007 109.217 71.778C109.795 71.9367 110.257 72.254 110.603 72.73C110.957 73.206 111.135 73.7427 111.135 74.34C111.135 74.9 110.985 75.3947 110.687 75.824C110.397 76.244 109.996 76.5753 109.483 76.818C108.969 77.0513 108.391 77.168 107.747 77.168ZM107.747 71.358C108.344 71.358 108.815 71.2087 109.161 70.91C109.515 70.602 109.693 70.2007 109.693 69.706C109.693 69.1553 109.52 68.74 109.175 68.46C108.829 68.18 108.353 68.04 107.747 68.04C107.14 68.04 106.664 68.18 106.319 68.46C105.983 68.74 105.815 69.1553 105.815 69.706C105.815 70.2007 105.987 70.602 106.333 70.91C106.678 71.2087 107.149 71.358 107.747 71.358ZM107.747 76.132C108.484 76.132 109.035 75.964 109.399 75.628C109.772 75.2827 109.959 74.83 109.959 74.27C109.959 73.6353 109.758 73.1547 109.357 72.828C108.955 72.5013 108.419 72.338 107.747 72.338C107.075 72.338 106.538 72.5013 106.137 72.828C105.735 73.1547 105.535 73.6353 105.535 74.27C105.535 74.83 105.717 75.2827 106.081 75.628C106.454 75.964 107.009 76.132 107.747 76.132Z" fill="#3D3D3D"/>
<path d="M14.9127 102V92.9H18.0977C18.8084 92.9 19.3977 93.0213 19.8657 93.264C20.3337 93.498 20.6804 93.823 20.9057 94.239C21.1397 94.6463 21.2567 95.11 21.2567 95.63C21.2567 96.124 21.1441 96.579 20.9187 96.995C20.7021 97.4023 20.3597 97.7273 19.8917 97.97C19.4237 98.2127 18.8257 98.334 18.0977 98.334H16.2907V102H14.9127ZM16.2907 97.203H18.0327C18.6827 97.203 19.1464 97.0643 19.4237 96.787C19.7097 96.501 19.8527 96.1153 19.8527 95.63C19.8527 95.1273 19.7097 94.7373 19.4237 94.46C19.1464 94.174 18.6827 94.031 18.0327 94.031H16.2907V97.203ZM22.5668 102V95.552H23.8018L23.9188 96.774C24.1441 96.3493 24.4561 96.0157 24.8548 95.773C25.2621 95.5217 25.7518 95.396 26.3238 95.396V96.839H25.9468C25.5655 96.839 25.2231 96.904 24.9198 97.034C24.6251 97.1553 24.3868 97.3677 24.2048 97.671C24.0315 97.9657 23.9448 98.3773 23.9448 98.906V102H22.5668ZM30.3435 102.156C29.7282 102.156 29.1735 102.017 28.6795 101.74C28.1942 101.454 27.8085 101.06 27.5225 100.557C27.2365 100.046 27.0935 99.452 27.0935 98.776C27.0935 98.1 27.2365 97.5107 27.5225 97.008C27.8172 96.4967 28.2115 96.1023 28.7055 95.825C29.1995 95.539 29.7499 95.396 30.3565 95.396C30.9719 95.396 31.5222 95.539 32.0075 95.825C32.5015 96.1023 32.8915 96.4967 33.1775 97.008C33.4722 97.5107 33.6195 98.1 33.6195 98.776C33.6195 99.452 33.4722 100.046 33.1775 100.557C32.8915 101.06 32.5015 101.454 32.0075 101.74C31.5135 102.017 30.9589 102.156 30.3435 102.156ZM30.3435 100.973C30.6729 100.973 30.9762 100.891 31.2535 100.726C31.5395 100.561 31.7692 100.319 31.9425 99.998C32.1159 99.6687 32.2025 99.2613 32.2025 98.776C32.2025 98.2907 32.1159 97.8877 31.9425 97.567C31.7779 97.2377 31.5525 96.9907 31.2665 96.826C30.9892 96.6613 30.6859 96.579 30.3565 96.579C30.0272 96.579 29.7195 96.6613 29.4335 96.826C29.1562 96.9907 28.9309 97.2377 28.7575 97.567C28.5842 97.8877 28.4975 98.2907 28.4975 98.776C28.4975 99.2613 28.5842 99.6687 28.7575 99.998C28.9309 100.319 29.1562 100.561 29.4335 100.726C29.7109 100.891 30.0142 100.973 30.3435 100.973ZM35.9288 94.33C35.6688 94.33 35.4521 94.252 35.2788 94.096C35.1141 93.9313 35.0318 93.7277 35.0318 93.485C35.0318 93.2423 35.1141 93.043 35.2788 92.887C35.4521 92.7223 35.6688 92.64 35.9288 92.64C36.1888 92.64 36.4011 92.7223 36.5658 92.887C36.7391 93.043 36.8258 93.2423 36.8258 93.485C36.8258 93.7277 36.7391 93.9313 36.5658 94.096C36.4011 94.252 36.1888 94.33 35.9288 94.33ZM33.8748 104.86V103.69H34.3818C34.6851 103.69 34.9018 103.625 35.0318 103.495C35.1618 103.374 35.2268 103.166 35.2268 102.871V95.552H36.6048V102.884C36.6048 103.586 36.4271 104.089 36.0718 104.392C35.7164 104.704 35.2224 104.86 34.5898 104.86H33.8748ZM41.4392 102.156C40.8066 102.156 40.2432 102.017 39.7492 101.74C39.2639 101.454 38.8826 101.06 38.6052 100.557C38.3279 100.054 38.1892 99.4693 38.1892 98.802C38.1892 98.126 38.3236 97.5323 38.5922 97.021C38.8696 96.5097 39.2509 96.111 39.7362 95.825C40.2302 95.539 40.8022 95.396 41.4522 95.396C42.0849 95.396 42.6352 95.539 43.1032 95.825C43.5712 96.1023 43.9352 96.475 44.1952 96.943C44.4552 97.411 44.5852 97.9267 44.5852 98.49C44.5852 98.5767 44.5809 98.672 44.5722 98.776C44.5722 98.8713 44.5679 98.9797 44.5592 99.101H39.5412C39.5846 99.725 39.7882 100.202 40.1522 100.531C40.5249 100.852 40.9539 101.012 41.4392 101.012C41.8292 101.012 42.1542 100.925 42.4142 100.752C42.6829 100.57 42.8822 100.327 43.0122 100.024H44.3902C44.2169 100.631 43.8702 101.138 43.3502 101.545C42.8389 101.952 42.2019 102.156 41.4392 102.156ZM41.4392 96.527C40.9799 96.527 40.5726 96.6657 40.2172 96.943C39.8619 97.2117 39.6452 97.619 39.5672 98.165H43.2072C43.1812 97.6623 43.0036 97.2637 42.6742 96.969C42.3449 96.6743 41.9332 96.527 41.4392 96.527ZM49.07 102.156C48.4374 102.156 47.8697 102.013 47.367 101.727C46.873 101.441 46.483 101.047 46.197 100.544C45.9197 100.033 45.781 99.4433 45.781 98.776C45.781 98.1087 45.9197 97.5237 46.197 97.021C46.483 96.5097 46.873 96.111 47.367 95.825C47.8697 95.539 48.4374 95.396 49.07 95.396C49.8674 95.396 50.5347 95.604 51.072 96.02C51.618 96.436 51.969 96.9993 52.125 97.71H50.682C50.5954 97.3547 50.4047 97.0773 50.11 96.878C49.8154 96.6787 49.4687 96.579 49.07 96.579C48.732 96.579 48.42 96.6657 48.134 96.839C47.848 97.0037 47.6184 97.2507 47.445 97.58C47.2717 97.9007 47.185 98.2993 47.185 98.776C47.185 99.2527 47.2717 99.6557 47.445 99.985C47.6184 100.306 47.848 100.553 48.134 100.726C48.42 100.899 48.732 100.986 49.07 100.986C49.4687 100.986 49.8154 100.886 50.11 100.687C50.4047 100.488 50.5954 100.206 50.682 99.842H52.125C51.9777 100.535 51.631 101.094 51.085 101.519C50.539 101.944 49.8674 102.156 49.07 102.156ZM56.1966 102C55.5639 102 55.0612 101.848 54.6886 101.545C54.3159 101.233 54.1296 100.683 54.1296 99.894V96.709H53.0246V95.552H54.1296L54.2986 93.914H55.5076V95.552H57.3276V96.709H55.5076V99.894C55.5076 100.249 55.5812 100.496 55.7286 100.635C55.8846 100.765 56.1489 100.83 56.5216 100.83H57.2626V102H56.1966ZM61.5994 102.156C60.9667 102.156 60.4034 102.017 59.9094 101.74C59.4241 101.454 59.0427 101.06 58.7654 100.557C58.4881 100.054 58.3494 99.4693 58.3494 98.802C58.3494 98.126 58.4837 97.5323 58.7524 97.021C59.0297 96.5097 59.4111 96.111 59.8964 95.825C60.3904 95.539 60.9624 95.396 61.6124 95.396C62.2451 95.396 62.7954 95.539 63.2634 95.825C63.7314 96.1023 64.0954 96.475 64.3554 96.943C64.6154 97.411 64.7454 97.9267 64.7454 98.49C64.7454 98.5767 64.7411 98.672 64.7324 98.776C64.7324 98.8713 64.7281 98.9797 64.7194 99.101H59.7014C59.7447 99.725 59.9484 100.202 60.3124 100.531C60.6851 100.852 61.1141 101.012 61.5994 101.012C61.9894 101.012 62.3144 100.925 62.5744 100.752C62.8431 100.57 63.0424 100.327 63.1724 100.024H64.5504C64.3771 100.631 64.0304 101.138 63.5104 101.545C62.9991 101.952 62.3621 102.156 61.5994 102.156ZM61.5994 96.527C61.1401 96.527 60.7327 96.6657 60.3774 96.943C60.0221 97.2117 59.8054 97.619 59.7274 98.165H63.3674C63.3414 97.6623 63.1637 97.2637 62.8344 96.969C62.5051 96.6743 62.0934 96.527 61.5994 96.527ZM69.1132 102.156C68.4892 102.156 67.9389 102.009 67.4622 101.714C66.9855 101.419 66.6129 101.016 66.3442 100.505C66.0755 99.9937 65.9412 99.413 65.9412 98.763C65.9412 98.113 66.0755 97.5367 66.3442 97.034C66.6129 96.5227 66.9855 96.124 67.4622 95.838C67.9475 95.5433 68.5022 95.396 69.1262 95.396C69.6375 95.396 70.0839 95.4957 70.4652 95.695C70.8552 95.8943 71.1585 96.176 71.3752 96.54V92.64H72.7532V102H71.5182L71.3752 100.999C71.1672 101.302 70.8812 101.571 70.5172 101.805C70.1532 102.039 69.6852 102.156 69.1132 102.156ZM69.3602 100.96C69.9495 100.96 70.4305 100.756 70.8032 100.349C71.1845 99.9417 71.3752 99.4173 71.3752 98.776C71.3752 98.126 71.1845 97.6017 70.8032 97.203C70.4305 96.7957 69.9495 96.592 69.3602 96.592C68.7709 96.592 68.2855 96.7957 67.9042 97.203C67.5229 97.6017 67.3322 98.126 67.3322 98.776C67.3322 99.2007 67.4189 99.5777 67.5922 99.907C67.7655 100.236 68.0039 100.496 68.3072 100.687C68.6192 100.869 68.9702 100.96 69.3602 100.96ZM77.818 102V92.9H79.196V100.908H83.33V102H77.818ZM85.5411 94.33C85.2811 94.33 85.0645 94.252 84.8911 94.096C84.7265 93.9313 84.6441 93.7277 84.6441 93.485C84.6441 93.2423 84.7265 93.043 84.8911 92.887C85.0645 92.7223 85.2811 92.64 85.5411 92.64C85.8011 92.64 86.0135 92.7223 86.1781 92.887C86.3515 93.043 86.4381 93.2423 86.4381 93.485C86.4381 93.7277 86.3515 93.9313 86.1781 94.096C86.0135 94.252 85.8011 94.33 85.5411 94.33ZM84.8521 102V95.552H86.2301V102H84.8521ZM88.3742 102V96.709H87.4512V95.552H88.3742V94.616C88.3742 93.914 88.5476 93.4113 88.8942 93.108C89.2496 92.796 89.7479 92.64 90.3892 92.64H91.0652V93.81H90.5972C90.2939 93.81 90.0772 93.875 89.9472 94.005C89.8172 94.1263 89.7522 94.3343 89.7522 94.629V95.552H91.2342V96.709H89.7522V102H88.3742ZM95.3055 102.156C94.6728 102.156 94.1095 102.017 93.6155 101.74C93.1301 101.454 92.7488 101.06 92.4715 100.557C92.1941 100.054 92.0555 99.4693 92.0555 98.802C92.0555 98.126 92.1898 97.5323 92.4585 97.021C92.7358 96.5097 93.1171 96.111 93.6025 95.825C94.0965 95.539 94.6685 95.396 95.3185 95.396C95.9511 95.396 96.5015 95.539 96.9695 95.825C97.4375 96.1023 97.8015 96.475 98.0615 96.943C98.3215 97.411 98.4515 97.9267 98.4515 98.49C98.4515 98.5767 98.4471 98.672 98.4385 98.776C98.4385 98.8713 98.4341 98.9797 98.4255 99.101H93.4075C93.4508 99.725 93.6545 100.202 94.0185 100.531C94.3911 100.852 94.8201 101.012 95.3055 101.012C95.6955 101.012 96.0205 100.925 96.2805 100.752C96.5491 100.57 96.7485 100.327 96.8785 100.024H98.2565C98.0831 100.631 97.7365 101.138 97.2165 101.545C96.7051 101.952 96.0681 102.156 95.3055 102.156ZM95.3055 96.527C94.8461 96.527 94.4388 96.6657 94.0835 96.943C93.7281 97.2117 93.5115 97.619 93.4335 98.165H97.0735C97.0475 97.6623 96.8698 97.2637 96.5405 96.969C96.2111 96.6743 95.7995 96.527 95.3055 96.527Z" fill="#949494"/>
<path d="M6 54C6 47.4339 7.29329 40.9321 9.80602 34.8658C12.3188 28.7995 16.0017 23.2876 20.6447 18.6447C25.2876 14.0017 30.7996 10.3188 36.8658 7.80602C42.9321 5.29329 49.4339 4 56 4C62.5661 4 69.0679 5.29329 75.1342 7.80603C81.2005 10.3188 86.7124 14.0017 91.3553 18.6447C95.9983 23.2876 99.6812 28.7996 102.194 34.8658C104.707 40.9321 106 47.4339 106 54" stroke="#F1F1F1" stroke-width="8" stroke-linecap="round"/>
<path d="M6 54C6 47.4339 7.29329 40.9321 9.80602 34.8658C12.3188 28.7995 16.0017 23.2876 20.6447 18.6447" stroke="#6E73EE" stroke-width="8" stroke-linecap="round"/>
</svg>
