<svg width="139" height="32" viewBox="0 0 139 32" fill="none" xmlns="http://www.w3.org/2000/svg">
<g clip-path="url(#clip0)">
<path d="M15.9901 -0.000163136C24.8371 0.0191956 31.9998 7.18193 31.9998 16.0289C31.9998 24.8371 24.7596 32.0386 15.9514 32.0192C7.14317 31.9805 -0.0195637 24.7597 -0.000204992 15.9321C0.0191537 7.16257 7.23996 -0.0195219 15.9901 -0.000163136ZM15.9708 23.3465C20.0361 23.3658 23.3464 20.0942 23.3658 16.0289C23.3852 11.9635 20.1135 8.65319 16.0482 8.63383C11.9829 8.61448 8.69187 11.8667 8.67251 15.9514C8.61443 20.0361 11.8861 23.3271 15.9708 23.3465ZM15.2545 2.84557C11.5376 2.98108 8.01431 4.82016 5.67191 7.74333C1.27747 13.2412 2.88425 20.9847 9.00161 23.8111C9.1952 23.9079 9.4275 23.9466 9.91147 24.1208C5.88485 20.675 5.14922 16.5516 6.48497 11.9635C7.80137 7.43359 10.7633 4.39427 15.2545 2.84557ZM15.5836 5.82682C19.4747 5.88489 22.5334 7.5691 25.0306 10.2987C27.586 13.0476 28.6507 16.3773 28.4571 20.1329C30.2188 15.8934 28.9024 10.5116 25.4565 7.53039C22.727 5.14926 18.1777 4.33619 15.5836 5.82682ZM25.6308 19.2231C24.1208 22.9012 21.5074 25.1081 18.1583 26.502C14.7899 27.8958 11.3827 27.799 7.99495 26.4439C11.7118 29.1735 15.7191 29.9865 20.0167 28.0506C23.4819 26.4826 25.805 22.8238 25.6308 19.2231Z" fill="white"/>
</g>
<path d="M53.4576 24.2948C51.7217 24.2948 50.2314 23.9263 48.9867 23.1893C47.7421 22.436 46.7841 21.3961 46.1126 20.0696C45.4412 18.7267 45.1054 17.1791 45.1054 15.4267C45.1054 13.6744 45.4412 12.1268 46.1126 10.7839C46.7841 9.44101 47.7421 8.3929 48.9867 7.63956C50.2314 6.88623 51.7217 6.50956 53.4576 6.50956C55.5211 6.50956 57.2079 7.02543 58.518 8.05717C59.8446 9.07254 60.6716 10.5055 60.9991 12.3561H57.5354C57.3225 11.4226 56.864 10.6938 56.1598 10.1698C55.472 9.62935 54.5549 9.35913 53.4085 9.35913C51.8199 9.35913 50.5753 9.89956 49.6746 10.9804C48.7738 12.0613 48.3235 13.5434 48.3235 15.4267C48.3235 17.3101 48.7738 18.7922 49.6746 19.873C50.5753 20.9375 51.8199 21.4698 53.4085 21.4698C54.5549 21.4698 55.472 21.2241 56.1598 20.7328C56.864 20.2251 57.3225 19.5291 57.5354 18.6448H60.9991C60.6716 20.4135 59.8446 21.7973 58.518 22.7963C57.2079 23.7953 55.5211 24.2948 53.4576 24.2948ZM68.5553 24.2948C67.3762 24.2948 66.3117 24.0246 65.3618 23.4841C64.4284 22.9437 63.6832 22.1986 63.1264 21.2487C62.586 20.2825 62.3157 19.1688 62.3157 17.9078C62.3157 16.6468 62.5942 15.5414 63.151 14.5915C63.7078 13.6253 64.4529 12.872 65.3864 12.3315C66.3363 11.7911 67.4007 11.5209 68.5799 11.5209C69.7426 11.5209 70.7907 11.7911 71.7242 12.3315C72.6741 12.872 73.4192 13.6253 73.9597 14.5915C74.5165 15.5414 74.7949 16.6468 74.7949 17.9078C74.7949 19.1688 74.5165 20.2825 73.9597 21.2487C73.4192 22.1986 72.6741 22.9437 71.7242 23.4841C70.7744 24.0246 69.7181 24.2948 68.5553 24.2948ZM68.5553 21.568C69.3742 21.568 70.0865 21.2651 70.6925 20.6591C71.2984 20.0368 71.6014 19.1197 71.6014 17.9078C71.6014 16.6959 71.2984 15.787 70.6925 15.1811C70.0865 14.5588 69.3823 14.2476 68.5799 14.2476C67.7447 14.2476 67.0241 14.5588 66.4181 15.1811C65.8286 15.787 65.5338 16.6959 65.5338 17.9078C65.5338 19.1197 65.8286 20.0368 66.4181 20.6591C67.0241 21.2651 67.7365 21.568 68.5553 21.568ZM76.6063 24V11.8157H79.3821L79.6278 13.8791C80.0044 13.1585 80.5449 12.5854 81.2491 12.1596C81.9697 11.7338 82.8131 11.5209 83.7793 11.5209C85.286 11.5209 86.4569 11.9958 87.2921 12.9457C88.1273 13.8955 88.5449 15.2875 88.5449 17.1217V24H85.4006V17.4165C85.4006 16.3684 85.1877 15.5659 84.7619 15.0091C84.3361 14.4523 83.6728 14.1739 82.7721 14.1739C81.8878 14.1739 81.159 14.4851 80.5858 15.1074C80.029 15.7297 79.7506 16.5977 79.7506 17.7113V24H76.6063ZM95.9806 24C94.7032 24 93.6797 23.6888 92.91 23.0665C92.1402 22.4442 91.7554 21.3388 91.7554 19.7502V14.4441H89.6673V11.8157H91.7554L92.1239 8.54848H94.8997V11.8157H98.1915V14.4441H94.8997V19.7748C94.8997 20.3643 95.0226 20.7738 95.2682 21.003C95.5302 21.2159 95.9724 21.3224 96.5947 21.3224H98.1178V24H95.9806ZM105.426 24.2948C104.247 24.2948 103.182 24.0246 102.232 23.4841C101.299 22.9437 100.554 22.1986 99.9969 21.2487C99.4565 20.2825 99.1862 19.1688 99.1862 17.9078C99.1862 16.6468 99.4647 15.5414 100.021 14.5915C100.578 13.6253 101.323 12.872 102.257 12.3315C103.207 11.7911 104.271 11.5209 105.45 11.5209C106.613 11.5209 107.661 11.7911 108.595 12.3315C109.545 12.872 110.29 13.6253 110.83 14.5915C111.387 15.5414 111.665 16.6468 111.665 17.9078C111.665 19.1688 111.387 20.2825 110.83 21.2487C110.29 22.1986 109.545 22.9437 108.595 23.4841C107.645 24.0246 106.589 24.2948 105.426 24.2948ZM105.426 21.568C106.245 21.568 106.957 21.2651 107.563 20.6591C108.169 20.0368 108.472 19.1197 108.472 17.9078C108.472 16.6959 108.169 15.787 107.563 15.1811C106.957 14.5588 106.253 14.2476 105.45 14.2476C104.615 14.2476 103.895 14.5588 103.289 15.1811C102.699 15.787 102.404 16.6959 102.404 17.9078C102.404 19.1197 102.699 20.0368 103.289 20.6591C103.895 21.2651 104.607 21.568 105.426 21.568ZM118.513 24.2948C117.432 24.2948 116.482 24.1228 115.663 23.7789C114.844 23.4186 114.189 22.9273 113.698 22.305C113.207 21.6827 112.912 20.9621 112.813 20.1433H115.982C116.081 20.6182 116.343 21.0276 116.768 21.3715C117.211 21.6991 117.776 21.8628 118.463 21.8628C119.151 21.8628 119.651 21.7236 119.962 21.4452C120.29 21.1668 120.453 20.8475 120.453 20.4872C120.453 19.9631 120.224 19.611 119.765 19.4309C119.307 19.2343 118.668 19.046 117.849 18.8659C117.325 18.7512 116.793 18.612 116.253 18.4483C115.712 18.2845 115.213 18.0798 114.754 17.8341C114.312 17.5721 113.952 17.2446 113.673 16.8515C113.395 16.4421 113.256 15.9426 113.256 15.353C113.256 14.2722 113.681 13.3633 114.533 12.6263C115.401 11.8893 116.613 11.5209 118.169 11.5209C119.61 11.5209 120.756 11.8566 121.608 12.528C122.476 13.1995 122.992 14.1248 123.155 15.3039H120.183C120.003 14.4032 119.323 13.9528 118.144 13.9528C117.555 13.9528 117.096 14.0675 116.768 14.2967C116.457 14.526 116.302 14.8126 116.302 15.1565C116.302 15.5168 116.539 15.8034 117.014 16.0163C117.489 16.2292 118.12 16.4257 118.906 16.6059C119.757 16.8024 120.535 17.0235 121.239 17.2691C121.96 17.4984 122.533 17.8505 122.959 18.3254C123.385 18.784 123.598 19.4472 123.598 20.3152C123.614 21.0686 123.417 21.7482 123.008 22.3541C122.599 22.9601 122.009 23.435 121.239 23.7789C120.47 24.1228 119.561 24.2948 118.513 24.2948ZM131.23 24.2948C130.05 24.2948 128.986 24.0246 128.036 23.4841C127.103 22.9437 126.358 22.1986 125.801 21.2487C125.26 20.2825 124.99 19.1688 124.99 17.9078C124.99 16.6468 125.268 15.5414 125.825 14.5915C126.382 13.6253 127.127 12.872 128.061 12.3315C129.011 11.7911 130.075 11.5209 131.254 11.5209C132.417 11.5209 133.465 11.7911 134.399 12.3315C135.348 12.872 136.094 13.6253 136.634 14.5915C137.191 15.5414 137.469 16.6468 137.469 17.9078C137.469 19.1688 137.191 20.2825 136.634 21.2487C136.094 22.1986 135.348 22.9437 134.399 23.4841C133.449 24.0246 132.392 24.2948 131.23 24.2948ZM131.23 21.568C132.048 21.568 132.761 21.2651 133.367 20.6591C133.973 20.0368 134.276 19.1197 134.276 17.9078C134.276 16.6959 133.973 15.787 133.367 15.1811C132.761 14.5588 132.057 14.2476 131.254 14.2476C130.419 14.2476 129.698 14.5588 129.092 15.1811C128.503 15.787 128.208 16.6959 128.208 17.9078C128.208 19.1197 128.503 20.0368 129.092 20.6591C129.698 21.2651 130.411 21.568 131.23 21.568Z" fill="white"/>
<defs>
<clipPath id="clip0">
<rect width="32" height="32" fill="white"/>
</clipPath>
</defs>
</svg>
